<?xml version="1.0" encoding="UTF-8"?>
<svg xmlns="http://www.w3.org/2000/svg" xmlns:xlink="http://www.w3.org/1999/xlink" viewBox="0 0 100 100" width="100px" height="100px">
<g id="surface384365">
<path style=" stroke:none;fill-rule:nonzero;fill:rgb(100%,100%,100%);fill-opacity:1;" d="M 50 4 C 24.617188 4 4 24.617188 4 50 C 4 75.382812 24.617188 96 50 96 C 75.382812 96 96 75.382812 96 50 C 96 24.617188 75.382812 4 50 4 Z M 50 8 C 73.21875 8 92 26.78125 92 50 C 92 73.21875 73.21875 92 50 92 C 26.78125 92 8 73.21875 8 50 C 8 26.78125 26.78125 8 50 8 Z M 53.160156 20 C 47.855469 20 43.835938 21.734375 41.355469 24.800781 C 38.875 27.867188 38 31.960938 38 36.453125 L 38 40 L 34 40 C 32.894531 40 32 40.894531 32 42 L 32 52 C 32 53.105469 32.894531 54 34 54 L 38 54 L 38 78 C 38 79.105469 38.894531 80 40 80 L 52 80 C 53.105469 80 54 79.105469 54 78 L 54 54 L 62 54 C 62.953125 54 63.773438 53.324219 63.960938 52.390625 L 65.960938 42.390625 C 66.078125 41.804688 65.925781 41.195312 65.546875 40.730469 C 65.164062 40.269531 64.597656 40 64 40 L 54 40 L 54 35.613281 C 54 34.644531 54.0625 34.652344 54.34375 34.46875 C 54.625 34.285156 55.640625 34 57.421875 34 L 64 34 C 65.105469 34 66 33.105469 66 32 L 66 24 C 66 23.15625 65.46875 22.402344 64.671875 22.117188 C 64.671875 22.117188 58.914062 20 53.160156 20 Z M 53.160156 24 C 56.945312 24 60.453125 25.019531 62 25.503906 L 62 30 L 57.421875 30 C 55.328125 30 53.628906 30.167969 52.167969 31.117188 C 50.707031 32.066406 50 33.882812 50 35.613281 L 50 42 C 50 43.105469 50.894531 44 52 44 L 61.558594 44 L 60.359375 50 L 52 50 C 50.894531 50 50 50.894531 50 52 L 50 76 L 42 76 L 42 52 C 42 50.894531 41.105469 50 40 50 L 36 50 L 36 44 L 40 44 C 41.105469 44 42 43.105469 42 42 L 42 36.453125 C 42 32.496094 42.808594 29.363281 44.464844 27.316406 C 46.121094 25.269531 48.675781 24 53.160156 24 Z M 53.160156 24 "/>
</g>
</svg>
