<svg width="30" height="30" viewBox="0 0 30 30" fill="none" xmlns="http://www.w3.org/2000/svg">
<path d="M15.324 7.29898C11.1582 7.29898 7.79808 10.6599 7.79808 14.8265C7.79808 18.9932 11.1582 22.3541 15.324 22.3541C19.4897 22.3541 22.8498 18.9932 22.8498 14.8265C22.8498 10.6599 19.4897 7.29898 15.324 7.29898ZM15.324 19.7204C12.6319 19.7204 10.4312 17.5257 10.4312 14.8265C10.4312 12.1274 12.6254 9.93265 15.324 9.93265C18.0225 9.93265 20.2168 12.1274 20.2168 14.8265C20.2168 17.5257 18.016 19.7204 15.324 19.7204V19.7204ZM24.9131 6.99107C24.9131 7.96722 24.1271 8.74684 23.1577 8.74684C22.1818 8.74684 21.4023 7.96067 21.4023 6.99107C21.4023 6.02146 22.1883 5.23529 23.1577 5.23529C24.1271 5.23529 24.9131 6.02146 24.9131 6.99107ZM29.8976 8.77305C29.7862 6.42109 29.2491 4.33775 27.5265 2.62128C25.8104 0.904809 23.7275 0.367594 21.3761 0.249669C18.9526 0.112089 11.6887 0.112089 9.26526 0.249669C6.92038 0.361043 4.8375 0.898258 3.11487 2.61473C1.39223 4.33119 0.861686 6.41454 0.743787 8.7665C0.606238 11.1905 0.606238 18.456 0.743787 20.88C0.855136 23.232 1.39223 25.3153 3.11487 27.0318C4.8375 28.7483 6.91383 29.2855 9.26526 29.4034C11.6887 29.541 18.9526 29.541 21.3761 29.4034C23.7275 29.292 25.8104 28.7548 27.5265 27.0318C29.2426 25.3153 29.7797 23.232 29.8976 20.88C30.0351 18.456 30.0351 11.1971 29.8976 8.77305V8.77305ZM26.7667 23.481C26.2558 24.765 25.2668 25.7543 23.9764 26.2719C22.0442 27.0384 17.4592 26.8615 15.324 26.8615C13.1887 26.8615 8.59717 27.0318 6.67149 26.2719C5.3877 25.7608 4.39866 24.7716 3.88121 23.481C3.11487 21.5483 3.29171 16.9623 3.29171 14.8265C3.29171 12.6908 3.12142 8.09825 3.88121 6.17214C4.39211 4.88806 5.38115 3.8988 6.67149 3.38124C8.60372 2.61473 13.1887 2.79161 15.324 2.79161C17.4592 2.79161 22.0508 2.62128 23.9764 3.38124C25.2602 3.89225 26.2493 4.88151 26.7667 6.17214C27.5331 8.1048 27.3562 12.6908 27.3562 14.8265C27.3562 16.9623 27.5331 21.5548 26.7667 23.481Z" fill="white"/>
</svg>
