<svg width="34" height="22" viewBox="0 0 34 22" fill="none" xmlns="http://www.w3.org/2000/svg">
<path d="M13.438 9.94056C15.28 9.06983 16.2415 7.75228 16.2415 5.70148C16.2415 1.65717 13.1947 0.671875 9.67885 0.671875H0V20.9736H9.95109C13.6813 20.9736 17.1856 19.2035 17.1856 15.079C17.1856 12.5298 15.9634 10.6452 13.438 9.94056ZM4.51216 4.13761H8.7463C10.3739 4.13761 11.8394 4.59016 11.8394 6.45764C11.8394 8.18191 10.6983 8.87506 9.08804 8.87506H4.51216V4.13761ZM9.33711 17.5251H4.51216V11.9341H9.42979C11.4165 11.9341 12.6734 12.7532 12.6734 14.8327C12.6734 16.8835 11.1733 17.5251 9.33711 17.5251ZM30.1023 3.73661H21.7789V1.73737H30.1023V3.73661ZM33.3634 13.8359C33.3634 9.48801 30.7916 5.86188 26.1288 5.86188C21.5993 5.86188 18.5236 9.23022 18.5236 13.6412C18.5236 18.2182 21.4371 21.3574 26.1288 21.3574C29.6795 21.3574 31.979 19.7764 33.0853 16.4137H29.4826C29.0945 17.6683 27.4958 18.3328 26.2563 18.3328C23.8641 18.3328 22.6072 16.9465 22.6072 14.5921H33.3286C33.346 14.3515 33.3634 14.0937 33.3634 13.8359ZM22.6129 12.0486C22.7462 10.1181 24.0436 8.90943 26.0014 8.90943C28.0519 8.90943 29.0829 10.101 29.2567 12.0486H22.6129Z" fill="white"/>
</svg>
