<svg width="36" height="36" viewBox="0 0 36 36" fill="none" xmlns="http://www.w3.org/2000/svg">
<path d="M15.6867 8.78557L10.2739 2.53761C9.64993 1.81761 8.50594 1.82081 7.78114 2.54721L3.32996 7.00638C2.00517 8.33278 1.62597 10.3024 2.39237 11.8816C6.97093 21.3615 14.6164 29.0176 24.0899 33.6094C25.6674 34.3758 27.6354 33.9966 28.9602 32.6702L33.453 28.1695C34.181 27.4415 34.1826 26.2911 33.4562 25.6671L27.1842 20.2831C26.5282 19.7199 25.509 19.7935 24.8514 20.4527L22.6691 22.6383C22.5573 22.7554 22.4103 22.8326 22.2504 22.858C22.0906 22.8835 21.9268 22.8557 21.7843 22.7791C18.217 20.7249 15.2579 17.7619 13.2083 14.1919C13.1316 14.0491 13.1038 13.8851 13.1292 13.725C13.1546 13.5649 13.2319 13.4175 13.3491 13.3055L15.5251 11.128C16.1843 10.4656 16.2563 9.44157 15.6867 8.78397V8.78557Z" stroke="white" stroke-width="3.19998" stroke-linecap="round" stroke-linejoin="round"/>
</svg>
