<svg width="45" height="43" viewBox="0 0 45 43" fill="none" xmlns="http://www.w3.org/2000/svg">
<path d="M30.9959 14.2188C34.1785 14.2188 37.2307 15.483 39.4811 17.7334C41.7315 19.9838 42.9958 23.036 42.9958 26.2186V40.2184H34.9959V26.2186C34.9959 25.1577 34.5745 24.1403 33.8243 23.3902C33.0742 22.6401 32.0568 22.2187 30.9959 22.2187C29.9351 22.2187 28.9177 22.6401 28.1676 23.3902C27.4174 24.1403 26.996 25.1577 26.996 26.2186V40.2184H18.9961V26.2186C18.9961 23.036 20.2604 19.9838 22.5108 17.7334C24.7612 15.483 27.8134 14.2188 30.9959 14.2188V14.2188Z" stroke="white" stroke-width="3.99995" stroke-linecap="round" stroke-linejoin="round"/>
<path d="M10.9979 16H2.99805V39.9997H10.9979V16Z" stroke="white" stroke-width="3.99995" stroke-linecap="round" stroke-linejoin="round"/>
<path d="M6.998 10.2187C9.20711 10.2187 10.9979 8.42781 10.9979 6.2187C10.9979 4.00959 9.20711 2.21875 6.998 2.21875C4.78889 2.21875 2.99805 4.00959 2.99805 6.2187C2.99805 8.42781 4.78889 10.2187 6.998 10.2187Z" stroke="white" stroke-width="3.99995" stroke-linecap="round" stroke-linejoin="round"/>
</svg>
