<svg width="49" height="41" viewBox="0 0 49 41" fill="none" xmlns="http://www.w3.org/2000/svg">
<path d="M46.9936 2.21933C45.0784 3.57027 42.9579 4.60352 40.7137 5.27929C39.5092 3.89433 37.9084 2.91271 36.1278 2.46718C34.3472 2.02165 32.4728 2.13372 30.758 2.78823C29.0432 3.44274 27.5707 4.6081 26.5398 6.12672C25.5089 7.64533 24.9693 9.44391 24.9939 11.2792V13.2792C21.4792 13.3703 17.9965 12.5908 14.856 11.0101C11.7155 9.4294 9.0147 7.09654 6.99409 4.21931C6.99409 4.21931 -1.00581 22.2191 16.994 30.219C12.8751 33.0149 7.96839 34.4168 2.99414 34.2189C20.9939 44.2188 42.9937 34.2189 42.9937 11.2192C42.9918 10.6621 42.9382 10.1064 42.8337 9.55924C44.8748 7.54625 46.3153 5.00472 46.9936 2.21933V2.21933Z" stroke="white" stroke-width="3.99995" stroke-linecap="round" stroke-linejoin="round"/>
</svg>
