<svg width="9" height="10" viewBox="0 0 9 10" fill="none" xmlns="http://www.w3.org/2000/svg">
<path d="M8.88709 3.40906C8.85923 3.32701 8.80795 3.25491 8.73959 3.20167C8.67123 3.14843 8.58877 3.11638 8.5024 3.10946L5.97581 2.9087L4.88247 0.48847C4.84765 0.410519 4.79102 0.344312 4.7194 0.297838C4.64778 0.251364 4.56425 0.226609 4.47887 0.226563C4.3935 0.226516 4.30994 0.251178 4.23827 0.297574C4.1666 0.343969 4.10989 0.410115 4.07499 0.488027L2.98165 2.9087L0.455059 3.10946C0.37017 3.11619 0.289015 3.14723 0.221304 3.19887C0.153593 3.25051 0.102193 3.32056 0.0732531 3.40065C0.0443132 3.48074 0.039059 3.56746 0.0581191 3.65046C0.0771792 3.73345 0.119746 3.8092 0.180728 3.86864L2.04786 5.6888L1.38752 8.54822C1.36747 8.63478 1.37389 8.72536 1.40596 8.80821C1.43803 8.89107 1.49427 8.96237 1.56736 9.01287C1.64046 9.06337 1.72705 9.09074 1.81589 9.09141C1.90474 9.09209 1.99173 9.06605 2.06559 9.01667L4.47873 7.40791L6.89187 9.01667C6.96736 9.06679 7.05639 9.09259 7.14698 9.09061C7.23757 9.08862 7.32538 9.05894 7.3986 9.00556C7.47182 8.95217 7.52694 8.87765 7.55654 8.79201C7.58614 8.70636 7.58881 8.61371 7.56418 8.52651L6.7536 5.69013L8.76388 3.88105C8.89551 3.76227 8.94381 3.57702 8.88709 3.40906V3.40906Z" fill="white"/>
</svg>
