<svg width="45" height="45" viewBox="0 0 45 45" fill="none" xmlns="http://www.w3.org/2000/svg">
<path d="M22.9971 10.9377C16.7542 10.9377 11.7186 15.9744 11.7186 22.2188C11.7186 28.4631 16.7542 33.4998 22.9971 33.4998C29.24 33.4998 34.2756 28.4631 34.2756 22.2188C34.2756 15.9744 29.24 10.9377 22.9971 10.9377ZM22.9971 29.5529C18.9627 29.5529 15.6646 26.2638 15.6646 22.2188C15.6646 18.1737 18.9529 14.8846 22.9971 14.8846C27.0413 14.8846 30.3296 18.1737 30.3296 22.2188C30.3296 26.2638 27.0315 29.5529 22.9971 29.5529ZM37.3676 10.4763C37.3676 11.9392 36.1897 13.1075 34.737 13.1075C33.2744 13.1075 32.1063 11.9293 32.1063 10.4763C32.1063 9.02317 33.2842 7.84499 34.737 7.84499C36.1897 7.84499 37.3676 9.02317 37.3676 10.4763ZM44.8376 13.1468C44.6707 9.62208 43.8658 6.49991 41.2842 3.92755C38.7124 1.3552 35.591 0.550112 32.067 0.373386C28.4351 0.167205 17.5492 0.167205 13.9173 0.373386C10.4032 0.540294 7.28176 1.34538 4.70016 3.91773C2.11857 6.49009 1.32348 9.61226 1.14679 13.137C0.940654 16.7697 0.940654 27.658 1.14679 31.2907C1.31366 34.8154 2.11857 37.9376 4.70016 40.5099C7.28176 43.0823 10.3934 43.8874 13.9173 44.0641C17.5492 44.2703 28.4351 44.2703 32.067 44.0641C35.591 43.8972 38.7124 43.0921 41.2842 40.5099C43.856 37.9376 44.6609 34.8154 44.8376 31.2907C45.0437 27.658 45.0437 16.7795 44.8376 13.1468ZM40.1456 35.1885C39.3799 37.1129 37.8977 38.5954 35.964 39.371C33.0683 40.5198 26.1971 40.2547 22.9971 40.2547C19.7971 40.2547 12.9161 40.5099 10.0302 39.371C8.1063 38.6052 6.62409 37.1227 5.84863 35.1885C4.70016 32.2922 4.96519 25.4195 4.96519 22.2188C4.96519 19.018 4.70998 12.1355 5.84863 9.24899C6.61427 7.32463 8.09648 5.84209 10.0302 5.06646C12.9259 3.91773 19.7971 4.18282 22.9971 4.18282C26.1971 4.18282 33.0781 3.92755 35.964 5.06646C37.8879 5.83227 39.3701 7.31481 40.1456 9.24899C41.294 12.1453 41.029 19.018 41.029 22.2188C41.029 25.4195 41.294 32.302 40.1456 35.1885Z" fill="white"/>
</svg>
