<svg width="32" height="32" viewBox="0 0 32 32" fill="none" xmlns="http://www.w3.org/2000/svg">
<path fill-rule="evenodd" clip-rule="evenodd" d="M9.87259 23.1426C14.4359 22.476 17.5779 22.5333 22.1473 23.166C22.4782 23.2139 22.7805 23.38 22.9985 23.6336C23.2165 23.8871 23.3354 24.2109 23.3333 24.5453C23.3333 24.8653 23.2233 25.176 23.0246 25.4186C22.6783 25.8417 22.3236 26.2578 21.9606 26.6666H23.7213C23.8319 26.5346 23.9433 26.4 24.0559 26.2633C24.4514 25.7784 24.6671 25.1717 24.6666 24.546C24.6666 23.196 23.6813 22.0326 22.3299 21.846C17.6526 21.1986 14.3833 21.1366 9.67992 21.824C8.31459 22.0233 7.33325 23.2046 7.33325 24.564C7.33325 25.1673 7.52992 25.764 7.90259 26.2473C8.01259 26.39 8.12125 26.53 8.22925 26.6673H9.94725C9.60953 26.263 9.28013 25.8518 8.95925 25.434C8.76856 25.1838 8.66569 24.8778 8.66659 24.5633C8.66659 23.8453 9.18259 23.2433 9.87259 23.1426Z" fill="white"/>
<path fill-rule="evenodd" clip-rule="evenodd" d="M16.0001 16.6666C16.5254 16.6666 17.0455 16.5631 17.5308 16.3621C18.0161 16.1611 18.4571 15.8664 18.8285 15.495C19.1999 15.1236 19.4946 14.6826 19.6956 14.1973C19.8966 13.712 20.0001 13.1919 20.0001 12.6666C20.0001 12.1413 19.8966 11.6211 19.6956 11.1358C19.4946 10.6505 19.1999 10.2096 18.8285 9.83814C18.4571 9.46671 18.0161 9.17207 17.5308 8.97105C17.0455 8.77003 16.5254 8.66657 16.0001 8.66657C14.9392 8.66657 13.9218 9.088 13.1717 9.83814C12.4215 10.5883 12.0001 11.6057 12.0001 12.6666C12.0001 13.7274 12.4215 14.7449 13.1717 15.495C13.9218 16.2451 14.9392 16.6666 16.0001 16.6666ZM16.0001 17.9999C17.4146 17.9999 18.7711 17.438 19.7713 16.4378C20.7715 15.4376 21.3334 14.0811 21.3334 12.6666C21.3334 11.2521 20.7715 9.89553 19.7713 8.89533C18.7711 7.89514 17.4146 7.33324 16.0001 7.33324C14.5856 7.33324 13.229 7.89514 12.2288 8.89533C11.2287 9.89553 10.6667 11.2521 10.6667 12.6666C10.6667 14.0811 11.2287 15.4376 12.2288 16.4378C13.229 17.438 14.5856 17.9999 16.0001 17.9999Z" fill="white"/>
<path fill-rule="evenodd" clip-rule="evenodd" d="M16.0001 28C22.6274 28 28.0001 22.6273 28.0001 16C28.0001 9.37267 22.6274 4.00001 16.0001 4.00001C9.37275 4.00001 4.00008 9.37267 4.00008 16C4.00008 22.6273 9.37275 28 16.0001 28ZM16.0001 29.3333C23.3641 29.3333 29.3334 23.364 29.3334 16C29.3334 8.636 23.3641 2.66667 16.0001 2.66667C8.63608 2.66667 2.66675 8.636 2.66675 16C2.66675 23.364 8.63608 29.3333 16.0001 29.3333Z" fill="white"/>
</svg>
