<svg width="32" height="32" viewBox="0 0 32 32" fill="none" xmlns="http://www.w3.org/2000/svg">
<path d="M5.39888 17.6352C5.28323 17.5471 5.17002 17.4559 5.05936 17.3616C5.1384 17.4883 5.25424 17.5866 5.39888 17.6352ZM6.25329 4.97921H25.6798V16.3443C26.3608 15.9667 26.7266 15.7094 26.9771 15.5446V4.32865C26.977 4.15647 26.9084 3.99141 26.7866 3.86972C26.6648 3.74804 26.4997 3.67969 26.3275 3.67969H5.60368C5.24432 3.67969 4.95312 3.97089 4.95312 4.32865V15.5734C5.19985 15.729 5.55408 15.9898 6.25329 16.3798V4.97921V4.97921Z" fill="black"/>
<path d="M28.0915 15.3528C27.9242 15.2193 27.6925 15.22 27.3248 15.3528C27.2176 15.3918 27.1091 15.4568 26.9744 15.5448C26.7238 15.7096 26.3584 15.9668 25.6771 16.3444C25.4669 16.4596 25.2378 16.5838 24.96 16.723C24.873 16.7665 24.7891 16.802 24.703 16.8436C23.1373 17.5809 21.729 17.8177 21.729 17.8177H17.065C16.9766 17.8177 16.6938 17.8721 16.5581 18.0766C16.4243 18.2808 16.4467 18.6174 16.4467 18.6174V19.1857C16.615 19.3051 16.793 19.412 16.9891 19.4795C18.3952 19.9588 19.3466 19.5409 19.7616 18.9585C20.247 18.2756 20.4941 17.8932 21.0272 18.0929C21.5603 18.2926 21.0272 19.5905 20.3616 20.2571C19.6944 20.924 18.8947 21.4568 17.7632 21.4568C17.2877 21.4568 16.8269 21.3854 16.4467 21.3045V26.1464C16.4467 27.5128 17.8989 28.243 18.8973 28.243C19.8954 28.243 21.8947 27.6772 22.8611 25.2788C23.8266 22.8811 22.7955 19.7169 22.7955 19.7169C22.7955 19.7169 24.3597 19.0158 25.9926 17.9844C27.624 16.9524 28.0582 15.9857 28.0915 15.8501C28.1235 15.7134 28.2566 15.4865 28.0915 15.3528V15.3528Z" fill="black"/>
<path d="M20.3619 20.257C21.0275 19.5904 21.5606 18.2925 21.0275 18.0928C20.4943 17.8932 20.2473 18.2756 19.7619 18.9584C19.3468 19.5408 18.3955 19.9588 16.9894 19.4794C16.7932 19.4119 16.6153 19.305 16.447 19.1856C15.7526 18.6919 15.2799 17.8932 14.9321 17.8932H10.2681C10.2681 17.8932 8.97434 17.6743 7.48922 17.008C7.3401 16.9408 7.19002 16.8743 7.0377 16.7978C6.77217 16.6647 6.5098 16.5253 6.25082 16.3799C5.55162 15.9898 5.19738 15.7293 4.95066 15.5735C4.84794 15.5085 4.7609 15.4599 4.67194 15.4279C4.30586 15.2948 4.07258 15.2948 3.90586 15.4279C3.7401 15.5616 3.87258 15.7888 3.90586 15.9248C3.93146 16.0288 4.19802 16.6237 5.05658 17.3616C5.35603 17.616 5.67285 17.8492 6.00474 18.0596C7.6361 19.0922 9.20186 19.7914 9.20186 19.7914C9.20186 19.7914 8.16922 22.9549 9.13626 25.3533C10.102 27.7514 12.1004 28.3197 13.0995 28.3197C14.0988 28.3197 15.551 27.5847 15.551 26.2192V21.0573C15.551 21.0573 15.9196 21.1917 16.4467 21.304C16.8268 21.385 17.2876 21.4564 17.7631 21.4564C18.895 21.4567 19.6947 20.9239 20.3619 20.257V20.257ZM19.5241 11.002C18.7554 11.002 18.0183 11.3074 17.4747 11.8509C16.9312 12.3944 16.6257 13.1315 16.6255 13.9002C16.6255 15.4999 17.9231 16.7981 19.5241 16.7981C21.1235 16.7981 22.4207 15.4999 22.4207 13.9002C22.4207 12.3002 21.1235 11.002 19.5241 11.002V11.002Z" fill="black"/>
<path d="M12.6548 11.002C11.0548 11.002 9.75781 12.3002 9.75781 13.9002C9.75781 15.4999 11.0545 16.7981 12.6548 16.7981C14.2557 16.7981 15.5533 15.4999 15.5533 13.9002C15.5533 12.3002 14.2557 11.002 12.6548 11.002Z" fill="black"/>
</svg>
