<svg width="85" height="85" viewBox="0 0 85 85" fill="none" xmlns="http://www.w3.org/2000/svg">
<circle cx="42.5" cy="42.5" r="42.5" fill="white"/>
<path d="M66.9994 37.666C58.3313 38.1688 49.9948 41.1736 42.9994 46.3167C36.0039 41.1736 27.6674 38.1688 18.9994 37.666V45.5593C17.5825 45.5622 16.2248 46.1275 15.2246 47.1312C14.2245 48.1348 13.6639 49.4945 13.666 50.9113V53.5887C13.666 56.546 18.9994 59.4767 18.9994 59.4767V64.8287C26.082 65.2842 32.9126 67.6326 38.778 71.6287C40.259 72.6564 41.6693 73.7825 42.9994 74.9994C44.3294 73.7825 45.7397 72.6564 47.2207 71.6287C53.0861 67.6326 59.9167 65.2842 66.9994 64.8287V58.9407C68.4162 58.9379 69.774 58.3725 70.7741 57.3689C71.7742 56.3652 72.3348 55.0055 72.3327 53.5887V50.9113C72.3348 49.4945 71.7742 48.1348 70.7741 47.1312C69.774 46.1275 68.4162 45.5622 66.9994 45.5593V37.666ZM42.9994 68.1247C37.4686 64.0714 31.0832 61.3385 24.3327 60.1354V43.7353C29.5062 44.7776 34.4182 46.8468 38.778 49.8207C40.259 50.8484 41.6693 51.9745 42.9994 53.1913C44.3294 51.9745 45.7397 50.8484 47.2207 49.8207C51.5803 46.8459 56.4923 44.7757 61.666 43.7327V60.1354C54.9155 61.3385 48.5301 64.0714 42.9994 68.1247V68.1247ZM40.3327 32.3327H45.666V34.9993H40.3327V32.3327ZM40.3327 21.666H45.666V24.3327H40.3327V21.666Z" fill="black"/>
<path d="M40.3327 37.6655H45.6661V40.3321H40.3327V37.6655ZM34.9994 24.3321C35.7067 24.3321 36.3849 24.0512 36.885 23.5511C37.3851 23.051 37.6661 22.3727 37.6661 21.6655C37.6686 21.3181 37.602 20.9737 37.4702 20.6522C37.3384 20.3308 37.144 20.0388 36.8984 19.7932C36.6527 19.5475 36.3607 19.3532 36.0393 19.2214C35.7179 19.0896 35.3735 19.023 35.0261 19.0255C34.6776 19.0237 34.3323 19.0906 34.0097 19.2223C33.6871 19.3541 33.3936 19.548 33.146 19.7932C32.6459 20.2883 32.3629 20.9617 32.3594 21.6655C32.3559 22.3692 32.632 23.0455 33.1271 23.5456C33.6222 24.0457 34.2957 24.3286 34.9994 24.3321V24.3321Z" fill="black"/>
<path d="M51.0007 24.3333C52.4734 24.3333 53.6673 23.1394 53.6673 21.6667C53.6673 20.1939 52.4734 19 51.0007 19C49.5279 19 48.334 20.1939 48.334 21.6667C48.334 23.1394 49.5279 24.3333 51.0007 24.3333Z" fill="black"/>
<path d="M53.6673 32.3333H32.334C30.2129 32.3312 28.1793 31.4877 26.6795 29.9878C25.1796 28.488 24.3361 26.4544 24.334 24.3333V19C24.3361 16.8789 25.1796 14.8453 26.6795 13.3455C28.1793 11.8457 30.2129 11.0021 32.334 11H53.6673C55.7884 11.0021 57.822 11.8457 59.3218 13.3455C60.8217 14.8453 61.6652 16.8789 61.6673 19V24.3333C61.6652 26.4544 60.8217 28.488 59.3218 29.9878C57.822 31.4877 55.7884 32.3312 53.6673 32.3333ZM32.334 16.3333C31.627 16.334 30.9491 16.6152 30.4491 17.1152C29.9492 17.6151 29.668 18.293 29.6673 19V24.3333C29.668 25.0404 29.9492 25.7182 30.4491 26.2182C30.9491 26.7181 31.627 26.9993 32.334 27H53.6673C54.3743 26.9993 55.0522 26.7181 55.5522 26.2182C56.0521 25.7182 56.3333 25.0404 56.334 24.3333V19C56.3333 18.293 56.0521 17.6151 55.5522 17.1152C55.0522 16.6152 54.3743 16.334 53.6673 16.3333H32.334Z" fill="black"/>
</svg>
