<svg width="63" height="61" viewBox="0 0 63 61" fill="none" xmlns="http://www.w3.org/2000/svg">
<ellipse cx="31.5" cy="30.0349" rx="31.5" ry="30.0349" fill="white"/>
<path d="M40.97 25.2707C41.0627 25.1782 41.1362 25.0683 41.1864 24.9473C41.2366 24.8264 41.2624 24.6967 41.2624 24.5657C41.2624 24.4348 41.2366 24.3051 41.1864 24.1841C41.1362 24.0631 41.0627 23.9532 40.97 23.8607L38.14 21.0307C38.0475 20.938 37.9376 20.8645 37.8166 20.8143C37.6957 20.7641 37.566 20.7383 37.435 20.7383C37.304 20.7383 37.1743 20.7641 37.0534 20.8143C36.9324 20.8645 36.8225 20.938 36.73 21.0307L32.24 25.5207L28.35 21.6307C27.57 20.8507 26.3 20.8507 25.52 21.6307L23.62 23.5307C22.84 24.3107 22.84 25.5807 23.62 26.3607L27.51 30.2507L23 34.7607V39.0007H27.24L31.76 34.4807L35.65 38.3707C36.6 39.3207 37.88 38.9707 38.48 38.3707L40.38 36.4707C41.16 35.6907 41.16 34.4207 40.38 33.6407L36.49 29.7507L40.97 25.2707ZM25.04 24.9407L26.93 23.0407L28.2 24.3107L27.02 25.5007L28.43 26.9107L29.62 25.7207L30.82 26.9207L28.92 28.8207L25.04 24.9407ZM36.27 32.3807L35.08 33.5707L36.49 34.9807L37.68 33.7907L38.95 35.0607L37.05 36.9607L33.16 33.0707L35.06 31.1707L36.27 32.3807ZM26.41 37.0007H25V35.5907L34.61 25.9807L35.91 27.2807L36.02 27.3907L26.41 37.0007ZM36.02 24.5607L37.43 23.1507L38.84 24.5607L37.43 25.9707L36.02 24.5607Z" fill="black"/>
</svg>
