<svg width="64" height="64" viewBox="0 0 64 64" fill="none" xmlns="http://www.w3.org/2000/svg">
<path d="M57.2148 27.078C57.5428 28.8353 57.7214 30.6727 57.7214 32.59C57.7214 47.5873 47.6841 58.2513 32.5241 58.2513C29.0765 58.2524 25.6625 57.5741 22.4772 56.2553C19.2918 54.9364 16.3975 53.0028 13.9597 50.565C11.5219 48.1272 9.58836 45.233 8.26951 42.0476C6.95066 38.8623 6.27239 35.4483 6.27344 32.0007C6.27239 28.5531 6.95066 25.1391 8.26951 21.9537C9.58836 18.7684 11.5219 15.8741 13.9597 13.4363C16.3975 10.9985 19.2918 9.06492 22.4772 7.74607C25.6625 6.42723 29.0765 5.74895 32.5241 5.75C39.6121 5.75 45.5348 8.358 50.0788 12.5927L42.6788 19.9927V19.974C39.9241 17.35 36.4281 16.0033 32.5241 16.0033C23.8628 16.0033 16.8228 23.3207 16.8228 31.9847C16.8228 40.646 23.8628 47.9793 32.5241 47.9793C40.3828 47.9793 45.7321 43.486 46.8308 37.3153H32.5241V27.078H57.2174H57.2148Z" fill="white"/>
</svg>
