<svg width="49" height="48" viewBox="0 0 49 48" fill="none" xmlns="http://www.w3.org/2000/svg">
<path d="M24.7793 0C11.5456 0 0.779297 10.7663 0.779297 24C0.779297 37.2337 11.5456 48 24.7793 48C38.013 48 48.7793 37.2337 48.7793 24C48.7793 10.7663 38.013 0 24.7793 0ZM40.6474 11.0677C43.5025 14.556 45.2315 18.999 45.2766 23.8375C44.6007 23.6946 37.8232 22.3199 31.0022 23.1777C30.4455 21.8189 29.9201 20.6235 29.2005 19.1505C36.78 16.056 40.2152 11.6523 40.6474 11.0677ZM38.3684 8.6971C37.9997 9.22229 34.9139 13.3699 27.6245 16.1022C24.2652 9.93029 20.542 4.8601 19.9754 4.10139C26.4763 2.53432 33.327 4.22429 38.3684 8.6971ZM16.0639 5.47935C16.6044 6.22055 20.2676 11.297 23.6643 17.3351C14.0752 19.8815 5.62943 19.8448 4.71259 19.8327C6.04188 13.4715 10.3288 8.18448 16.0639 5.47935ZM4.27962 24.0313C4.27962 23.8216 4.28378 23.613 4.29007 23.4048C5.18697 23.4232 15.121 23.5513 25.3584 20.4875C25.9452 21.636 26.5058 22.8018 27.0204 23.9664C19.6076 26.0543 12.8726 32.0497 9.54965 37.738C6.27549 34.1037 4.27962 29.2965 4.27962 24.0313ZM12.1964 40.2035C14.3377 35.8261 20.1491 30.1755 28.4137 27.3561C31.2918 34.8351 32.482 41.1032 32.7869 42.9017C26.1954 45.7094 18.2693 44.9391 12.1964 40.2035ZM36.2332 41.025C36.0231 39.778 34.932 33.7769 32.2507 26.4089C38.6746 25.3806 44.3185 27.0639 45.0198 27.2852C44.1061 32.9892 40.8321 37.9153 36.2332 41.025Z" fill="white"/>
</svg>
