<svg width="85" height="85" viewBox="0 0 85 85" fill="none" xmlns="http://www.w3.org/2000/svg">
<circle cx="42.5" cy="42.5" r="42.5" fill="white"/>
<path d="M60 51C59.816 50.193 58.838 47.799 56.52 47.629C54.344 47.469 52.754 47.361 51.582 47.292C50.9747 46.6086 50.3325 45.9571 49.658 45.34C53.064 43.429 56.289 40.345 57.045 36.572C58.621 36.29 60.25 35.259 60.25 32.2C60.25 29.357 59.117 28.541 58.182 28.349C58.057 17.663 55.279 13.114 43.131 13.002C30.887 12.889 27.597 17.64 27.434 28.465C26.599 28.798 25.75 29.738 25.75 32.2C25.75 35.259 27.376 36.29 28.953 36.572C29.707 40.345 32.932 43.429 36.34 45.342C35.6665 45.9581 35.0253 46.6086 34.419 47.291C33.247 47.361 31.658 47.467 29.482 47.627C27.279 47.789 26.226 50.002 26 51L21 73H27L30 59L31 73H55L56 59L59 73H65L60 51V51ZM30.344 35.801L30.266 35.194L29.655 35.15C27.991 35.029 27.249 34.12 27.249 32.201C27.249 30.613 27.61 29.805 28.321 29.797C28.433 30.376 28.563 30.794 28.721 31.092C29.146 31.893 29.946 32.327 30.036 32.374L31.33 33.051L31.127 31.605C31.0145 30.6527 30.9777 29.693 31.017 28.735C31.383 23.348 31.752 22.867 32.715 22.867C33.238 22.867 33.979 23.013 34.914 23.197C36.769 23.563 39.31 24.063 42.997 24.063C46.685 24.063 49.226 23.563 51.081 23.198C52.017 23.013 52.757 22.868 53.28 22.868C54.243 22.868 54.612 23.349 54.977 28.726C55.038 30.384 54.868 31.591 54.868 31.604L54.659 33.054L55.958 32.374C56.048 32.327 56.847 31.893 57.274 31.093C57.43 30.799 57.559 30.381 57.672 29.797C58.385 29.804 58.748 30.612 58.748 32.201C58.748 34.12 58.004 35.029 56.34 35.15L55.729 35.194L55.651 35.801C54.844 42.013 46.36 45.953 42.996 45.953C39.632 45.953 31.15 42.013 30.344 35.801V35.801ZM42.998 47.453C44.049 47.453 45.348 47.184 46.727 46.691L46.504 48.476L46.453 48.872C45.687 49.245 45.002 49.611 44.736 49.755C44.6936 49.6634 44.6361 49.5795 44.566 49.507C44.011 48.968 41.987 48.968 41.435 49.507C41.3645 49.5803 41.3061 49.6643 41.262 49.756C40.696 49.4491 40.1235 49.1544 39.545 48.872L39.495 48.476L39.272 46.692C40.65 47.185 41.947 47.453 42.998 47.453V47.453ZM41.993 70.787L32.023 58.303L34.339 54.789L32.612 53.004C33.598 49.609 37.692 46.145 37.692 46.145L37.944 48.162C37.111 47.841 36.485 47.714 36.61 48.132C36.82 48.836 36.908 49.905 36.894 50.908L36.173 52.364L42.205 69.762L42.228 69.829L42.997 72.045L41.993 70.787V70.787ZM38.103 53.346C39.291 53.032 40.802 52.451 41.249 52.277C41.2948 52.3792 41.3581 52.4726 41.436 52.553C41.989 53.09 44.013 53.09 44.567 52.553C44.6442 52.4725 44.7071 52.3795 44.753 52.278C45.2 52.454 46.71 53.032 47.898 53.346L43 67.472L38.103 53.346V53.346ZM43.002 72.049L49.824 52.362L49.105 50.91C49.091 49.906 49.179 48.835 49.39 48.131C49.515 47.712 48.888 47.84 48.054 48.162L48.306 46.144C48.306 46.144 52.4 49.609 53.388 53.003L51.659 54.788L53.977 58.302L43.002 72.049" fill="black"/>
<path d="M41.8496 54.8711L42.9996 55.9981L44.1476 54.8711L42.9996 53.7461L41.8496 54.8711ZM41.8496 58.9471L42.9996 60.0721L44.1476 58.9471L42.9996 57.8201L41.8496 58.9471ZM41.8496 63.0211L42.9996 64.1481L44.1476 63.0211L42.9996 61.8951L41.8496 63.0211Z" fill="black"/>
<path d="M37.1392 34.4092C38.463 34.4092 39.5362 33.3361 39.5362 32.0122C39.5362 30.6884 38.463 29.6152 37.1392 29.6152C35.8154 29.6152 34.7422 30.6884 34.7422 32.0122C34.7422 33.3361 35.8154 34.4092 37.1392 34.4092Z" fill="black"/>
<path d="M48.8599 34.4092C50.1837 34.4092 51.2569 33.3361 51.2569 32.0122C51.2569 30.6884 50.1837 29.6152 48.8599 29.6152C47.5361 29.6152 46.4629 30.6884 46.4629 32.0122C46.4629 33.3361 47.5361 34.4092 48.8599 34.4092Z" fill="black"/>
<path d="M47 39.429C47 39.429 47 39 46.6 39H39.4C39 39 39 39.429 39 39.429C39 41.144 41 42 43 42C45 42 47 41.144 47 39.429Z" fill="black"/>
</svg>
