<svg width="64" height="64" viewBox="0 0 64 64" fill="none" xmlns="http://www.w3.org/2000/svg">
<path d="M13.1694 18.0186C10.4494 18.0186 7.68936 19.0786 7.22936 19.6586C7.10936 19.8986 6.82936 21.8386 7.48936 21.8386C7.70936 21.8386 7.80936 21.8786 8.44936 21.5786C10.8494 20.6386 12.3694 20.6586 12.5894 20.6586C15.2894 20.3986 16.8494 22.2386 16.6094 24.6186V26.0186C14.3294 25.4786 13.0294 25.4586 12.3894 25.4586C9.06936 25.2586 6.00136 27.0106 6.00136 30.8586C6.00136 35.0786 9.76736 35.9786 11.2274 35.9186C13.4074 35.9386 15.4874 34.9586 16.8674 33.2586C17.9674 35.7186 18.6674 35.5586 18.6874 35.5586C18.8874 35.5586 19.0474 35.4786 19.2074 35.3786L20.3474 34.5786C20.5474 34.4586 20.7074 34.2586 20.7274 34.0186C20.7074 33.4386 19.6674 32.5386 19.7474 30.5186V24.2786C19.8098 23.428 19.7005 22.5736 19.426 21.7662C19.1515 20.9587 18.7173 20.2148 18.1494 19.5786C16.7608 18.4209 14.9703 17.86 13.1694 18.0186V18.0186ZM51.9154 18.0186C47.9154 18.0186 45.6154 20.5186 45.6754 23.0586C45.6754 26.5386 49.1954 27.6386 49.5954 27.7586C52.9754 28.8186 53.4354 28.8586 54.3754 29.6586C55.1754 30.4786 55.0754 32.0786 53.8954 32.7786C53.5554 32.9786 52.0954 33.8586 48.7954 33.1786C47.6954 32.9586 47.1154 32.6986 46.2154 32.3186C45.9754 32.2386 45.4154 32.0986 45.4154 32.8386V33.8186C45.4154 34.2786 45.6954 34.6986 46.1154 34.8986C48.2154 35.9586 50.7354 35.9986 51.2754 35.9986C51.3554 35.9986 55.9554 36.0006 57.4954 32.8986C57.8114 32.2586 58.6354 29.9186 57.0954 27.9186C55.8154 26.4186 54.7154 26.2586 51.4354 25.2586C51.1554 25.1786 48.7354 24.5586 48.7554 22.8586C48.6354 20.6786 51.5954 20.5586 52.2154 20.5986C54.7154 20.5586 55.9554 21.4986 56.6354 21.5586C56.9354 21.5586 57.0754 21.3786 57.0754 20.9786V20.0586C57.0876 19.8374 57.0241 19.6188 56.8954 19.4386C56.0954 18.3986 53.0354 18.0186 51.9154 18.0186V18.0186ZM21.5554 18.5186C21.3354 18.5586 21.1754 18.7786 21.2154 18.9986C21.2554 19.2586 21.2954 19.5186 21.3954 19.7786L25.8754 34.5586C25.9754 35.0386 26.2954 35.5586 26.9954 35.4786H28.6354C29.6354 35.5786 29.7754 34.6186 29.7954 34.5186L32.7354 22.1986L35.7154 34.5386C35.7354 34.6386 35.8754 35.5986 36.8554 35.4986H38.5154C39.2354 35.5786 39.5754 35.0586 39.6754 34.5786C44.7154 18.3586 44.3754 19.4586 44.4154 19.2986C44.4954 18.4586 44.0154 18.5186 43.9354 18.5386H42.1554C41.2554 18.4386 41.0754 19.2586 41.0354 19.4586L37.7154 32.2786L34.7154 19.4586C34.5754 18.4786 33.7754 18.5186 33.5754 18.5386H32.0354C31.1554 18.4586 30.9354 19.1586 30.8754 19.4586L27.8954 32.0986L24.6954 19.4586C24.6154 19.0586 24.3554 18.4386 23.5754 18.5186H21.5554V18.5186ZM13.0474 27.7786C14.4874 27.7986 15.7314 28.0186 16.5914 28.2186C16.5914 29.2186 16.6274 29.7786 16.4074 30.6786C16.1274 31.6386 14.8894 33.3786 11.9694 33.4186C10.2894 33.4986 9.18936 32.1786 9.28936 30.6786C9.18936 28.2786 11.6694 27.6786 13.0494 27.7786H13.0474ZM58.0834 40.0026C56.2174 40.0286 54.0134 40.4466 52.3414 41.6206C51.8254 41.9786 51.9154 42.4746 52.4894 42.4086C54.3694 42.1826 58.5534 41.6746 59.3014 42.6306C60.0514 43.5866 58.4734 47.5306 57.7754 49.2946C57.5594 49.8206 58.0154 50.0386 58.4974 49.6386C61.6254 47.0186 62.4374 41.5266 61.7974 40.7386C61.4774 40.3426 59.9494 39.9766 58.0834 40.0026V40.0026ZM2.43536 42.0026C1.99936 42.0626 1.81136 42.6146 2.26736 43.0526C10.1014 50.4006 20.4534 53.9986 31.9474 53.9986C40.1454 53.9986 49.6614 51.3246 56.2314 46.2846C57.3174 45.4446 56.3914 44.1906 55.2794 44.6846C47.9134 47.9366 39.9114 49.5026 32.6294 49.5026C21.8374 49.5026 11.3894 47.2486 2.93936 42.1306C2.79094 42.0315 2.61305 41.9863 2.43536 42.0026V42.0026Z" fill="white"/>
</svg>
