<svg width="32" height="24" viewBox="0 0 32 24" fill="none" xmlns="http://www.w3.org/2000/svg">
<path d="M19 17.5547H4L3.997 6.51426L15.431 12.3044C15.5982 12.389 15.7967 12.4344 16 12.4344C16.2033 12.4344 16.4018 12.389 16.569 12.3044L28 6.51719V13.1661H30V5.85157C29.9992 5.46376 29.7882 5.09201 29.4133 4.81779C29.0384 4.54356 28.5302 4.38925 28 4.38867H4C3.46973 4.38906 2.96133 4.54331 2.58637 4.81757C2.21141 5.09184 2.00053 5.4637 2 5.85157V17.5547C2.00079 17.9426 2.21176 18.3143 2.58666 18.5885C2.96156 18.8628 3.46981 19.0171 4 19.0176H19V17.5547ZM25.799 5.85157L16 10.8137L6.201 5.85157H25.799Z" fill="white"/>
<path d="M26 20.4805C28.2091 20.4805 30 19.1706 30 17.5547C30 15.9388 28.2091 14.6289 26 14.6289C23.7909 14.6289 22 15.9388 22 17.5547C22 19.1706 23.7909 20.4805 26 20.4805Z" fill="white"/>
</svg>
