<svg width="274" height="185" viewBox="0 0 274 185" fill="none" xmlns="http://www.w3.org/2000/svg">
<g clip-path="url(#clip0_1089_400)">
<path opacity="0.4" d="M185.052 114.939C196.318 114.939 205.451 105.806 205.451 94.54C205.451 83.2737 196.318 74.1406 185.052 74.1406C173.785 74.1406 164.652 83.2737 164.652 94.54C164.652 105.806 173.785 114.939 185.052 114.939Z" fill="#71FD25"/>
<path d="M185.516 122.766H71.7617V153.596H185.516V122.766Z" fill="#3F3D56"/>
<path d="M178.232 46.3808L173.689 48.5306L177.709 45.5246C177.056 44.5048 176.322 43.5389 175.514 42.6363L155.816 47.5325L173.609 40.7449C172.796 40.0275 171.933 39.3693 171.025 38.7754L141.009 43.6103C137.822 47.5956 136.084 52.546 136.082 57.6489H181.265C181.263 53.6914 180.217 49.8044 178.232 46.3808Z" fill="#F2F2F2"/>
<path d="M181.828 13.3412C163.772 4.53489 143.943 -0.0283118 123.854 0.000132162C82.9691 0.000132162 46.4156 18.5392 22.1367 47.6678C63.7121 38.5583 136.098 22.7891 181.828 13.3412Z" fill="#F2F2F2"/>
<path d="M271.098 184.428H0V184.959H271.098V184.428Z" fill="#2F2E41"/>
<path d="M158.37 57.6488L142.99 34.8047C142.99 34.8047 166.281 42.9357 163.638 57.6488H158.37Z" fill="#3F3D56"/>
<path d="M158.973 57.6488L174.353 34.8047C174.353 34.8047 151.062 42.9357 153.705 57.6488H158.973Z" fill="#71FD25"/>
<path d="M185.649 184.96H71.6289V14.8594H185.649V184.96ZM72.1605 184.428H185.118V15.3909H72.1605V184.428Z" fill="#2F2E41"/>
<path d="M185.516 18.8945H72.0273V19.4261H185.516V18.8945Z" fill="#2F2E41"/>
<path d="M74.9498 18.0462C75.537 18.0462 76.013 17.5702 76.013 16.9831C76.013 16.3959 75.537 15.9199 74.9498 15.9199C74.3627 15.9199 73.8867 16.3959 73.8867 16.9831C73.8867 17.5702 74.3627 18.0462 74.9498 18.0462Z" fill="#71FD25"/>
<path d="M77.8737 18.0462C78.4608 18.0462 78.9368 17.5702 78.9368 16.9831C78.9368 16.3959 78.4608 15.9199 77.8737 15.9199C77.2865 15.9199 76.8105 16.3959 76.8105 16.9831C76.8105 17.5702 77.2865 18.0462 77.8737 18.0462Z" fill="#71FD25"/>
<path d="M80.7975 18.0462C81.3847 18.0462 81.8606 17.5702 81.8606 16.9831C81.8606 16.3959 81.3847 15.9199 80.7975 15.9199C80.2104 15.9199 79.7344 16.3959 79.7344 16.9831C79.7344 17.5702 80.2104 18.0462 80.7975 18.0462Z" fill="#71FD25"/>
<path d="M80.7978 22.5664H76.0137V25.2242H80.7978V22.5664Z" fill="#71FD25"/>
<path d="M99.4025 43.5625H76.0137V46.2203H99.4025V43.5625Z" fill="#71FD25"/>
<path d="M159.203 25.2227L182.592 25.2227V22.5648L159.203 22.5648V25.2227Z" fill="#F2F2F2"/>
<path d="M115.349 48.0801H76.0137V49.6748H115.349V48.0801Z" fill="#F2F2F2"/>
<path d="M113.223 51.5352H76.0137V53.1298H113.223V51.5352Z" fill="#F2F2F2"/>
<path d="M103.123 54.9922H76.0137V56.5869H103.123V54.9922Z" fill="#F2F2F2"/>
<path d="M100.464 102.301H85.0488V103.895H100.464V102.301Z" fill="#F2F2F2"/>
<path d="M99.6309 105.756H85.0488V107.351H99.6309V105.756Z" fill="#F2F2F2"/>
<path d="M95.6729 109.211H85.0488V110.806H95.6729V109.211Z" fill="#F2F2F2"/>
<path d="M136.347 102.301H120.932V103.895H136.347V102.301Z" fill="#F2F2F2"/>
<path d="M135.514 105.756H120.932V107.351H135.514V105.756Z" fill="#F2F2F2"/>
<path d="M131.556 109.211H120.932V110.806H131.556V109.211Z" fill="#F2F2F2"/>
<path d="M173.556 102.301H158.141V103.895H173.556V102.301Z" fill="#F2F2F2"/>
<path d="M172.723 105.756H158.141V107.351H172.723V105.756Z" fill="#F2F2F2"/>
<path d="M168.765 109.211H158.141V110.806H168.765V109.211Z" fill="#F2F2F2"/>
<path d="M132.36 162.633H108.971V165.291H132.36V162.633Z" fill="#71FD25"/>
<path d="M148.306 167.152H108.971V168.747H148.306V167.152Z" fill="#F2F2F2"/>
<path d="M146.18 170.605H108.971V172.2H146.18V170.605Z" fill="#F2F2F2"/>
<path d="M136.08 174.061H108.971V175.655H136.08V174.061Z" fill="#F2F2F2"/>
<path opacity="0.3" d="M175.551 72.2676H83.0586V72.7991H175.551V72.2676Z" fill="#71FD25"/>
<path opacity="0.3" d="M102.592 81.5684H82.9238V99.11H102.592V81.5684Z" fill="#71FD25"/>
<path d="M138.473 81.5684H118.805V99.11H138.473V81.5684Z" fill="#3F3D56"/>
<path d="M175.684 81.5684H156.016V99.11H175.684V81.5684Z" fill="#3F3D56"/>
<path d="M126.078 99.038L125.818 99.0329C125.824 98.7456 125.986 91.9734 128.652 90.1016L128.801 90.3139C126.243 92.1102 126.079 98.9689 126.078 99.038Z" fill="#71FD25"/>
<path d="M130.022 90.0147C130.739 90.0147 131.319 89.4338 131.319 88.7173C131.319 88.0008 130.739 87.4199 130.022 87.4199C129.305 87.4199 128.725 88.0008 128.725 88.7173C128.725 89.4338 129.305 90.0147 130.022 90.0147Z" fill="#71FD25"/>
<path d="M129.76 93.2978C129.085 93.5098 128.366 93.5408 127.676 93.3878C128.114 92.8295 128.705 92.4099 129.376 92.1796C130.048 91.9493 130.772 91.918 131.46 92.0896C131.009 92.6343 130.423 93.0509 129.76 93.2978Z" fill="#71FD25"/>
<path d="M163.287 99.038L163.027 99.0329C163.033 98.7456 163.195 91.9734 165.861 90.1016L166.01 90.3139C163.452 92.1102 163.288 98.9689 163.287 99.038Z" fill="#71FD25"/>
<path d="M167.231 90.0147C167.947 90.0147 168.528 89.4338 168.528 88.7173C168.528 88.0008 167.947 87.4199 167.231 87.4199C166.514 87.4199 165.934 88.0008 165.934 88.7173C165.934 89.4338 166.514 90.0147 167.231 90.0147Z" fill="#71FD25"/>
<path d="M166.969 93.2978C166.294 93.5098 165.575 93.5408 164.885 93.3878C165.323 92.8295 165.914 92.4099 166.585 92.1796C167.257 91.9493 167.981 91.918 168.669 92.0896C168.218 92.6343 167.632 93.0509 166.969 93.2978V93.2978Z" fill="#71FD25"/>
<path d="M99.4025 132.6H76.0137V135.257H99.4025V132.6Z" fill="#71FD25"/>
<path d="M115.349 137.117H76.0137V138.712H115.349V137.117Z" fill="#F2F2F2"/>
<path d="M113.223 140.572H76.0137V142.167H113.223V140.572Z" fill="#F2F2F2"/>
<path d="M103.123 144.029H76.0137V145.624H103.123V144.029Z" fill="#F2F2F2"/>
<path opacity="0.4" d="M162.592 144.571C167.179 144.571 170.897 140.853 170.897 136.266C170.897 131.679 167.179 127.961 162.592 127.961C158.005 127.961 154.287 131.679 154.287 136.266C154.287 140.853 158.005 144.571 162.592 144.571Z" fill="#71FD25"/>
<path opacity="0.4" d="M147.222 146.058C150.44 146.058 153.048 143.45 153.048 140.232C153.048 137.015 150.44 134.406 147.222 134.406C144.005 134.406 141.396 137.015 141.396 140.232C141.396 143.45 144.005 146.058 147.222 146.058Z" fill="#71FD25"/>
<path d="M44.5183 175.79C56.1145 175.79 65.5151 166.39 65.5151 154.794C65.5151 143.197 56.1145 133.797 44.5183 133.797C32.9221 133.797 23.5215 143.197 23.5215 154.794C23.5215 166.39 32.9221 175.79 44.5183 175.79Z" fill="#2F2E41"/>
<path d="M41.328 171.271H34.9492V182.7H41.328V171.271Z" fill="#2F2E41"/>
<path d="M54.0878 171.271H47.709V182.7H54.0878V171.271Z" fill="#2F2E41"/>
<path d="M40.2649 184.825C43.2006 184.825 45.5805 183.932 45.5805 182.831C45.5805 181.73 43.2006 180.838 40.2649 180.838C37.3291 180.838 34.9492 181.73 34.9492 182.831C34.9492 183.932 37.3291 184.825 40.2649 184.825Z" fill="#2F2E41"/>
<path d="M53.0246 184.559C55.9604 184.559 58.3403 183.667 58.3403 182.566C58.3403 181.465 55.9604 180.572 53.0246 180.572C50.0889 180.572 47.709 181.465 47.709 182.566C47.709 183.667 50.0889 184.559 53.0246 184.559Z" fill="#2F2E41"/>
<path d="M45.0492 156.653C49.0124 156.653 52.2253 153.44 52.2253 149.477C52.2253 145.514 49.0124 142.301 45.0492 142.301C41.0859 142.301 37.873 145.514 37.873 149.477C37.873 153.44 41.0859 156.653 45.0492 156.653Z" fill="white"/>
<path d="M45.0502 148.679C46.3713 148.679 47.4423 147.608 47.4423 146.287C47.4423 144.965 46.3713 143.895 45.0502 143.895C43.7292 143.895 42.6582 144.965 42.6582 146.287C42.6582 147.608 43.7292 148.679 45.0502 148.679Z" fill="#3F3D56"/>
<path d="M24.1503 135.266C22.4549 127.673 27.8744 120.001 36.255 118.13C44.6357 116.258 52.804 120.896 54.4994 128.489C56.1948 136.082 50.6406 138.882 42.2599 140.754C33.8792 142.625 25.8457 142.859 24.1503 135.266Z" fill="#71FD25"/>
<path d="M63.3939 132.948C65.8373 127.69 66.4798 122.806 64.8291 122.039C63.1784 121.272 59.8596 124.913 57.4162 130.171C54.9729 135.429 54.3303 140.313 55.981 141.08C57.6317 141.847 60.9506 138.207 63.3939 132.948Z" fill="#2F2E41"/>
<path d="M26.7806 147.217C28.3894 146.365 27.4946 141.521 24.7821 136.396C22.0696 131.272 18.5665 127.808 16.9578 128.659C15.3491 129.511 16.2438 134.355 18.9563 139.48C21.6689 144.604 25.1719 148.068 26.7806 147.217Z" fill="#2F2E41"/>
<path d="M221.716 148.973C223.415 148.318 223.101 143.402 221.016 137.992C218.931 132.582 215.864 128.726 214.165 129.381C212.467 130.036 212.78 134.952 214.866 140.362C216.951 145.773 220.018 149.628 221.716 148.973Z" fill="#2F2E41"/>
<path d="M237.393 175.974C248.989 175.974 258.39 166.573 258.39 154.977C258.39 143.381 248.989 133.98 237.393 133.98C225.797 133.98 216.396 143.381 216.396 154.977C216.396 166.573 225.797 175.974 237.393 175.974Z" fill="#2F2E41"/>
<path d="M240.66 182.875L247.039 182.857L247.007 171.429L240.628 171.447L240.66 182.875Z" fill="#2F2E41"/>
<path d="M227.904 182.912L234.283 182.895L234.251 171.466L227.872 171.484L227.904 182.912Z" fill="#2F2E41"/>
<path d="M241.731 185.001C244.667 184.993 247.044 184.094 247.041 182.993C247.038 181.892 244.656 181.006 241.72 181.014C238.784 181.023 236.407 181.922 236.41 183.023C236.413 184.124 238.795 185.009 241.731 185.001Z" fill="#2F2E41"/>
<path d="M228.973 184.771C231.909 184.762 234.286 183.863 234.283 182.762C234.28 181.662 231.898 180.776 228.962 180.784C226.026 180.792 223.649 181.691 223.652 182.792C223.655 183.893 226.038 184.779 228.973 184.771Z" fill="#2F2E41"/>
<path d="M236.846 156.841C240.809 156.841 244.022 153.628 244.022 149.664C244.022 145.701 240.809 142.488 236.846 142.488C232.883 142.488 229.67 145.701 229.67 149.664C229.67 153.628 232.883 156.841 236.846 156.841Z" fill="white"/>
<path d="M236.847 152.056C238.168 152.056 239.239 150.985 239.239 149.664C239.239 148.342 238.168 147.271 236.847 147.271C235.526 147.271 234.455 148.342 234.455 149.664C234.455 150.985 235.526 152.056 236.847 152.056Z" fill="#3F3D56"/>
<path d="M257.707 135.395C259.381 127.798 253.94 120.141 245.554 118.293C237.168 116.445 229.013 121.106 227.339 128.704C225.665 136.301 231.227 139.086 239.612 140.934C247.998 142.782 256.033 142.993 257.707 135.395Z" fill="#71FD25"/>
<path d="M262.435 148.143C267.667 145.644 271.272 142.286 270.488 140.644C269.703 139.001 264.826 139.696 259.594 142.195C254.362 144.695 250.757 148.052 251.542 149.695C252.326 151.337 257.204 150.642 262.435 148.143Z" fill="#2F2E41"/>
<path d="M247.728 162.524C247.734 164.579 242.454 168.651 236.582 168.668C230.711 168.684 225.189 162.914 225.184 160.859C225.178 158.804 230.69 161.242 236.561 161.226C242.433 161.21 247.722 160.469 247.728 162.524Z" fill="white"/>
<path opacity="0.4" d="M243.788 153.873C259.971 153.873 273.09 140.754 273.09 124.571C273.09 108.388 259.971 95.2695 243.788 95.2695C227.605 95.2695 214.486 108.388 214.486 124.571C214.486 140.754 227.605 153.873 243.788 153.873Z" fill="#71FD25"/>
<path d="M50.6062 113.646C62.2024 113.646 71.603 104.245 71.603 92.6491C71.603 81.0529 62.2024 71.6523 50.6062 71.6523C39.01 71.6523 29.6094 81.0529 29.6094 92.6491C29.6094 104.245 39.01 113.646 50.6062 113.646Z" fill="#2F2E41"/>
<path d="M44.5326 108.296L38.2559 107.16L36.22 118.406L42.4968 119.542L44.5326 108.296Z" fill="#2F2E41"/>
<path d="M57.0873 110.57L50.8105 109.434L48.7747 120.679L55.0515 121.816L57.0873 110.57Z" fill="#2F2E41"/>
<path d="M57.0632 126.096C57.7747 125.256 56.5353 123.036 54.295 121.139C52.0547 119.242 49.6618 118.385 48.9504 119.225C48.2389 120.065 49.4782 122.284 51.7185 124.181C53.9588 126.079 56.3517 126.936 57.0632 126.096Z" fill="#2F2E41"/>
<path d="M44.7702 123.869C45.4817 123.029 44.2424 120.81 42.0021 118.913C39.7618 117.015 37.3689 116.158 36.6574 116.998C35.9459 117.838 37.1853 120.058 39.4255 121.955C41.6658 123.852 44.0587 124.709 44.7702 123.869Z" fill="#2F2E41"/>
<path d="M52.0765 94.6882C56.0398 94.6882 59.2526 91.4753 59.2526 87.5121C59.2526 83.5488 56.0398 80.3359 52.0765 80.3359C48.1132 80.3359 44.9004 83.5488 44.9004 87.5121C44.9004 91.4753 48.1132 94.6882 52.0765 94.6882Z" fill="white"/>
<path d="M55.0249 87.3329C56.3459 87.3329 57.4169 86.262 57.4169 84.9409C57.4169 83.6198 56.3459 82.5488 55.0249 82.5488C53.7038 82.5488 52.6328 83.6198 52.6328 84.9409C52.6328 86.262 53.7038 87.3329 55.0249 87.3329Z" fill="#3F3D56"/>
<path d="M34.0439 69.8082C33.7282 62.0349 40.4276 55.4508 49.0076 55.1023C57.5876 54.7538 64.7991 60.7728 65.1148 68.5461C65.4306 76.3194 59.4664 78.0856 50.8864 78.4341C42.3064 78.7826 34.3597 77.5815 34.0439 69.8082Z" fill="#71FD25"/>
<path d="M70.7311 92.0364C76.3826 90.741 80.6344 88.2525 80.2278 86.4783C79.8211 84.7042 74.9099 84.316 69.2584 85.6115C63.6069 86.9069 59.3551 89.3953 59.7617 91.1695C60.1684 92.9437 65.0796 93.3318 70.7311 92.0364Z" fill="#2F2E41"/>
<path d="M29.5143 98.8899C35.1658 97.5945 39.4176 95.1061 39.011 93.3319C38.6043 91.5577 33.6931 91.1696 28.0416 92.465C22.3901 93.7604 18.1383 96.2488 18.5449 98.023C18.9516 99.7972 23.8628 100.185 29.5143 98.8899Z" fill="#2F2E41"/>
<path d="M44.8383 100.924C44.6122 102.173 44.8915 103.46 45.6145 104.502C46.3375 105.545 47.4451 106.258 48.6936 106.484C49.9421 106.71 51.2293 106.431 52.272 105.708C53.3146 104.985 54.0274 103.877 54.2534 102.629C54.724 100.029 52.7139 99.1086 50.114 98.6379C47.514 98.1673 45.3089 98.3242 44.8383 100.924Z" fill="white"/>
<path d="M100.045 75.5934L81.2051 69.9453L76.1676 86.7481L95.007 92.3961L100.045 75.5934Z" fill="#3F3D56"/>
<path d="M83.1553 88.766L82.9082 88.6867C82.9961 88.413 85.0962 81.9727 88.1875 80.9453L88.2692 81.1915C85.3026 82.1774 83.1763 88.7003 83.1553 88.766Z" fill="#71FD25"/>
<path d="M89.8989 81.3115C90.6154 81.3115 91.1963 80.7307 91.1963 80.0142C91.1963 79.2977 90.6154 78.7168 89.8989 78.7168C89.1824 78.7168 88.6016 79.2977 88.6016 80.0142C88.6016 80.7307 89.1824 81.3115 89.8989 81.3115Z" fill="#71FD25"/>
<path d="M88.3327 84.3267C87.6254 84.3359 86.9281 84.1592 86.3105 83.8143C86.8909 83.4055 87.5771 83.1732 88.2864 83.1454C88.9958 83.1176 89.6981 83.2955 90.3086 83.6577C89.7199 84.0499 89.0386 84.2805 88.3327 84.3267V84.3267Z" fill="#71FD25"/>
</g>
<defs>
<clipPath id="clip0_1089_400">
<rect width="273.09" height="185" fill="white"/>
</clipPath>
</defs>
</svg>
