<svg width="33" height="28" viewBox="0 0 33 28" fill="none" xmlns="http://www.w3.org/2000/svg">
<path d="M31.2113 1.81811C29.9334 2.71956 28.5184 3.40902 27.0209 3.85995C26.2172 2.93579 25.149 2.28078 23.9608 1.98349C22.7727 1.6862 21.5219 1.76098 20.3777 2.19772C19.2334 2.63446 18.2509 3.41208 17.563 4.42541C16.8751 5.43874 16.515 6.6389 16.5314 7.86355V9.19808C14.1862 9.2589 11.8623 8.73876 9.7667 7.68398C7.67113 6.62921 5.86894 5.07255 4.52063 3.15264C4.52063 3.15264 -0.817507 15.1635 11.1933 20.5016C8.44487 22.3672 5.17076 23.3027 1.85156 23.1707C13.8624 29.8433 28.5423 23.1707 28.5423 7.82351C28.541 7.45178 28.5053 7.08097 28.4355 6.71585C29.7975 5.37263 30.7587 3.67673 31.2113 1.81811V1.81811Z" stroke="white" stroke-width="2.66907" stroke-linecap="round" stroke-linejoin="round"/>
</svg>
