<svg width="193" height="87" viewBox="0 0 193 87" fill="none" xmlns="http://www.w3.org/2000/svg">
<path d="M13.9847 69.4365V61.9727H17.3967C18.0791 61.9727 18.6655 62.0829 19.156 62.3032C19.6536 62.5236 20.0375 62.8435 20.3076 63.2629C20.5777 63.6752 20.7128 64.1656 20.7128 64.7343C20.7128 65.2959 20.5777 65.7828 20.3076 66.1951C20.0375 66.6074 19.6536 66.9273 19.156 67.1547C18.6655 67.3751 18.0791 67.4853 17.3967 67.4853H15.1575L16.0959 66.5683V69.4365H13.9847ZM16.0959 66.7922L15.1575 65.8219H17.2687C17.7095 65.8219 18.0364 65.7259 18.2497 65.534C18.4701 65.3421 18.5802 65.0755 18.5802 64.7343C18.5802 64.386 18.4701 64.1159 18.2497 63.924C18.0364 63.732 17.7095 63.6361 17.2687 63.6361H15.1575L16.0959 62.6658V66.7922ZM21.6878 69.4365V63.6574H23.6177V65.3421L23.3298 64.8623C23.5004 64.4287 23.7777 64.1052 24.1615 63.892C24.5454 63.6716 25.011 63.5614 25.5583 63.5614V65.3847C25.4659 65.3705 25.3842 65.3634 25.3131 65.3634C25.2491 65.3563 25.178 65.3527 25.0998 65.3527C24.6875 65.3527 24.3535 65.4665 24.0975 65.694C23.8416 65.9143 23.7137 66.2768 23.7137 66.7815V69.4365H21.6878ZM29.2425 69.5325C28.6099 69.5325 28.0483 69.4045 27.5578 69.1486C27.0673 68.8927 26.6799 68.5409 26.3956 68.093C26.1184 67.6381 25.9797 67.1192 25.9797 66.5363C25.9797 65.9534 26.1184 65.4381 26.3956 64.9902C26.6799 64.5424 27.0673 64.1941 27.5578 63.9453C28.0483 63.6894 28.6099 63.5614 29.2425 63.5614C29.8751 63.5614 30.4367 63.6894 30.9272 63.9453C31.4248 64.1941 31.8122 64.5424 32.0894 64.9902C32.3666 65.4381 32.5053 65.9534 32.5053 66.5363C32.5053 67.1192 32.3666 67.6381 32.0894 68.093C31.8122 68.5409 31.4248 68.8927 30.9272 69.1486C30.4367 69.4045 29.8751 69.5325 29.2425 69.5325ZM29.2425 67.9224C29.4771 67.9224 29.6832 67.8691 29.8609 67.7625C30.0458 67.6559 30.1915 67.4995 30.2981 67.2933C30.4047 67.0801 30.458 66.8277 30.458 66.5363C30.458 66.2449 30.4047 65.9996 30.2981 65.8006C30.1915 65.5944 30.0458 65.4381 29.8609 65.3314C29.6832 65.2248 29.4771 65.1715 29.2425 65.1715C29.015 65.1715 28.8089 65.2248 28.6241 65.3314C28.4464 65.4381 28.3006 65.5944 28.1869 65.8006C28.0803 65.9996 28.027 66.2449 28.027 66.5363C28.027 66.8277 28.0803 67.0801 28.1869 67.2933C28.3006 67.4995 28.4464 67.6559 28.6241 67.7625C28.8089 67.8691 29.015 67.9224 29.2425 67.9224ZM35.9601 69.5325C35.4341 69.5325 34.9543 69.4116 34.5207 69.17C34.0941 68.9212 33.7529 68.5764 33.497 68.1357C33.2411 67.6879 33.1132 67.1547 33.1132 66.5363C33.1132 65.925 33.2411 65.399 33.497 64.9582C33.7529 64.5104 34.0941 64.1656 34.5207 63.924C34.9543 63.6823 35.4341 63.5614 35.9601 63.5614C36.4577 63.5614 36.8771 63.6681 37.2183 63.8813C37.5666 64.0946 37.8296 64.4215 38.0073 64.8623C38.185 65.303 38.2739 65.861 38.2739 66.5363C38.2739 67.2258 38.1886 67.7909 38.018 68.2317C37.8474 68.6724 37.5915 68.9994 37.2503 69.2126C36.9091 69.4259 36.479 69.5325 35.9601 69.5325ZM36.3866 67.9224C36.6141 67.9224 36.8167 67.8691 36.9944 67.7625C37.1792 67.6559 37.3249 67.4995 37.4315 67.2933C37.5382 67.0801 37.5915 66.8277 37.5915 66.5363C37.5915 66.2449 37.5382 65.9996 37.4315 65.8006C37.3249 65.5944 37.1792 65.4381 36.9944 65.3314C36.8167 65.2248 36.6141 65.1715 36.3866 65.1715C36.152 65.1715 35.9423 65.2248 35.7575 65.3314C35.5798 65.4381 35.4376 65.5944 35.331 65.8006C35.2244 65.9996 35.1711 66.2449 35.1711 66.5363C35.1711 66.8277 35.2244 67.0801 35.331 67.2933C35.4376 67.4995 35.5798 67.6559 35.7575 67.7625C35.9423 67.8691 36.152 67.9224 36.3866 67.9224ZM37.6555 69.4365V68.4449L37.6661 66.5363L37.5595 64.6277V61.5249H39.5854V69.4365H37.6555Z" fill="white"/>
<path d="M41.3246 69.8389L62.1372 41.1438V49.3029L42.2235 21.4375H54.9461L68.7059 40.8672L63.3818 40.9364L76.9342 21.4375H89.1036L69.3282 48.8189V40.7981L90.2791 69.8389H77.349L63.1052 49.3029H68.2219L54.1855 69.8389H41.3246Z" fill="white"/>
<path d="M26.7304 58.2356C21.6359 58.2356 17.6526 56.8166 14.7806 53.9788C11.9085 51.1409 10.4725 47.0893 10.4725 41.8238V21.7195H18.7809V41.5161C18.7809 44.9352 19.4819 47.397 20.8837 48.9014C22.2855 50.4058 24.2515 51.158 26.7816 51.158C29.3118 51.158 31.2778 50.4058 32.6796 48.9014C34.0814 47.397 34.7824 44.9352 34.7824 41.5161V21.7195H42.9882V41.8238C42.9882 47.0893 41.5522 51.1409 38.6801 53.9788C35.8081 56.8166 31.8248 58.2356 26.7304 58.2356Z" fill="white"/>
<path d="M89.6174 9.65274C91.3958 8.66944 93.4798 10.3137 92.9374 12.272L88.5595 28.0761C88.1219 29.656 86.2159 30.2798 84.9288 29.2643L74.9552 21.3956C73.6681 20.3802 73.8313 18.3814 75.266 17.5881L89.6174 9.65274Z" fill="white"/>
<path d="M88.2167 14.6791L86.0944 24.1772L79.3862 18.7706L88.2167 14.6791Z" fill="black"/>
<path d="M10.368 86V77.6H13.512C14.224 77.6 14.836 77.716 15.348 77.948C15.86 78.172 16.252 78.5 16.524 78.932C16.804 79.356 16.944 79.872 16.944 80.48C16.944 81.072 16.804 81.584 16.524 82.016C16.252 82.44 15.86 82.768 15.348 83C14.836 83.232 14.224 83.348 13.512 83.348H10.86L11.256 82.928V86H10.368ZM11.256 83L10.86 82.568H13.488C14.328 82.568 14.964 82.388 15.396 82.028C15.836 81.66 16.056 81.144 16.056 80.48C16.056 79.808 15.836 79.288 15.396 78.92C14.964 78.552 14.328 78.368 13.488 78.368H10.86L11.256 77.948V83ZM18.5318 86V79.7H19.3478V81.416L19.2638 81.116C19.4398 80.636 19.7358 80.272 20.1518 80.024C20.5678 79.768 21.0838 79.64 21.6998 79.64V80.468C21.6678 80.468 21.6358 80.468 21.6038 80.468C21.5718 80.46 21.5398 80.456 21.5078 80.456C20.8438 80.456 20.3238 80.66 19.9478 81.068C19.5718 81.468 19.3838 82.04 19.3838 82.784V86H18.5318ZM25.7638 86.06C25.1558 86.06 24.6078 85.924 24.1198 85.652C23.6398 85.372 23.2598 84.992 22.9798 84.512C22.6998 84.024 22.5598 83.468 22.5598 82.844C22.5598 82.212 22.6998 81.656 22.9798 81.176C23.2598 80.696 23.6398 80.32 24.1198 80.048C24.5998 79.776 25.1478 79.64 25.7638 79.64C26.3878 79.64 26.9398 79.776 27.4198 80.048C27.9078 80.32 28.2878 80.696 28.5598 81.176C28.8398 81.656 28.9798 82.212 28.9798 82.844C28.9798 83.468 28.8398 84.024 28.5598 84.512C28.2878 84.992 27.9078 85.372 27.4198 85.652C26.9318 85.924 26.3798 86.06 25.7638 86.06ZM25.7638 85.304C26.2198 85.304 26.6238 85.204 26.9758 85.004C27.3278 84.796 27.6038 84.508 27.8038 84.14C28.0118 83.764 28.1158 83.332 28.1158 82.844C28.1158 82.348 28.0118 81.916 27.8038 81.548C27.6038 81.18 27.3278 80.896 26.9758 80.696C26.6238 80.488 26.2238 80.384 25.7758 80.384C25.3278 80.384 24.9278 80.488 24.5758 80.696C24.2238 80.896 23.9438 81.18 23.7358 81.548C23.5278 81.916 23.4238 82.348 23.4238 82.844C23.4238 83.332 23.5278 83.764 23.7358 84.14C23.9438 84.508 24.2238 84.796 24.5758 85.004C24.9278 85.204 25.3238 85.304 25.7638 85.304ZM33.2273 86.06C32.6273 86.06 32.0873 85.924 31.6073 85.652C31.1353 85.38 30.7633 85.004 30.4913 84.524C30.2193 84.036 30.0833 83.476 30.0833 82.844C30.0833 82.204 30.2193 81.644 30.4913 81.164C30.7633 80.684 31.1353 80.312 31.6073 80.048C32.0873 79.776 32.6273 79.64 33.2273 79.64C33.7793 79.64 34.2713 79.764 34.7033 80.012C35.1433 80.26 35.4913 80.624 35.7473 81.104C36.0113 81.576 36.1432 82.156 36.1432 82.844C36.1432 83.524 36.0153 84.104 35.7593 84.584C35.5033 85.064 35.1553 85.432 34.7153 85.688C34.2833 85.936 33.7873 86.06 33.2273 86.06ZM33.2873 85.304C33.7353 85.304 34.1353 85.204 34.4873 85.004C34.8473 84.796 35.1273 84.508 35.3273 84.14C35.5353 83.764 35.6393 83.332 35.6393 82.844C35.6393 82.348 35.5353 81.916 35.3273 81.548C35.1273 81.18 34.8473 80.896 34.4873 80.696C34.1353 80.488 33.7353 80.384 33.2873 80.384C32.8473 80.384 32.4513 80.488 32.0993 80.696C31.7473 80.896 31.4673 81.18 31.2593 81.548C31.0513 81.916 30.9473 82.348 30.9473 82.844C30.9473 83.332 31.0513 83.764 31.2593 84.14C31.4673 84.508 31.7473 84.796 32.0993 85.004C32.4513 85.204 32.8473 85.304 33.2873 85.304ZM35.6633 86V84.104L35.7473 82.832L35.6273 81.56V77.096H36.4793V86H35.6633ZM41.4561 86.06C40.9201 86.06 40.4521 85.96 40.0521 85.76C39.6521 85.56 39.3401 85.26 39.1161 84.86C38.9001 84.46 38.7921 83.96 38.7921 83.36V79.7H39.6441V83.264C39.6441 83.936 39.8081 84.444 40.1361 84.788C40.4721 85.124 40.9401 85.292 41.5401 85.292C41.9801 85.292 42.3601 85.204 42.6801 85.028C43.0081 84.844 43.2561 84.58 43.4241 84.236C43.6001 83.892 43.6881 83.48 43.6881 83V79.7H44.5401V86H43.7241V84.272L43.8561 84.584C43.6561 85.048 43.3441 85.412 42.9201 85.676C42.5041 85.932 42.0161 86.06 41.4561 86.06ZM49.5306 86.06C48.9066 86.06 48.3466 85.924 47.8506 85.652C47.3626 85.372 46.9786 84.992 46.6986 84.512C46.4186 84.024 46.2786 83.468 46.2786 82.844C46.2786 82.212 46.4186 81.656 46.6986 81.176C46.9786 80.696 47.3626 80.32 47.8506 80.048C48.3466 79.776 48.9066 79.64 49.5306 79.64C50.0666 79.64 50.5506 79.744 50.9826 79.952C51.4146 80.16 51.7546 80.472 52.0026 80.888L51.3666 81.32C51.1506 81 50.8826 80.764 50.5626 80.612C50.2426 80.46 49.8946 80.384 49.5186 80.384C49.0706 80.384 48.6666 80.488 48.3066 80.696C47.9466 80.896 47.6626 81.18 47.4546 81.548C47.2466 81.916 47.1426 82.348 47.1426 82.844C47.1426 83.34 47.2466 83.772 47.4546 84.14C47.6626 84.508 47.9466 84.796 48.3066 85.004C48.6666 85.204 49.0706 85.304 49.5186 85.304C49.8946 85.304 50.2426 85.228 50.5626 85.076C50.8826 84.924 51.1506 84.692 51.3666 84.38L52.0026 84.812C51.7546 85.22 51.4146 85.532 50.9826 85.748C50.5506 85.956 50.0666 86.06 49.5306 86.06ZM55.7386 86.06C55.1466 86.06 54.6906 85.9 54.3706 85.58C54.0506 85.26 53.8906 84.808 53.8906 84.224V78.308H54.7426V84.176C54.7426 84.544 54.8346 84.828 55.0186 85.028C55.2106 85.228 55.4826 85.328 55.8346 85.328C56.2106 85.328 56.5226 85.22 56.7706 85.004L57.0706 85.616C56.9026 85.768 56.6986 85.88 56.4586 85.952C56.2266 86.024 55.9866 86.06 55.7386 86.06ZM52.7626 80.408V79.7H56.6626V80.408H52.7626ZM60.3136 86.06C59.7936 86.06 59.3016 85.988 58.8376 85.844C58.3736 85.692 58.0096 85.504 57.7456 85.28L58.1296 84.608C58.3856 84.8 58.7136 84.968 59.1136 85.112C59.5136 85.248 59.9336 85.316 60.3736 85.316C60.9736 85.316 61.4056 85.224 61.6696 85.04C61.9336 84.848 62.0656 84.596 62.0656 84.284C62.0656 84.052 61.9896 83.872 61.8376 83.744C61.6936 83.608 61.5016 83.508 61.2616 83.444C61.0216 83.372 60.7536 83.312 60.4576 83.264C60.1616 83.216 59.8656 83.16 59.5696 83.096C59.2816 83.032 59.0176 82.94 58.7776 82.82C58.5376 82.692 58.3416 82.52 58.1896 82.304C58.0456 82.088 57.9736 81.8 57.9736 81.44C57.9736 81.096 58.0696 80.788 58.2616 80.516C58.4536 80.244 58.7336 80.032 59.1016 79.88C59.4776 79.72 59.9336 79.64 60.4696 79.64C60.8776 79.64 61.2856 79.696 61.6936 79.808C62.1016 79.912 62.4376 80.052 62.7016 80.228L62.3296 80.912C62.0496 80.72 61.7496 80.584 61.4296 80.504C61.1096 80.416 60.7896 80.372 60.4696 80.372C59.9016 80.372 59.4816 80.472 59.2096 80.672C58.9456 80.864 58.8136 81.112 58.8136 81.416C58.8136 81.656 58.8856 81.844 59.0296 81.98C59.1816 82.116 59.3776 82.224 59.6176 82.304C59.8656 82.376 60.1336 82.436 60.4216 82.484C60.7176 82.532 61.0096 82.592 61.2976 82.664C61.5936 82.728 61.8616 82.82 62.1016 82.94C62.3496 83.052 62.5456 83.216 62.6896 83.432C62.8416 83.64 62.9176 83.916 62.9176 84.26C62.9176 84.628 62.8136 84.948 62.6056 85.22C62.4056 85.484 62.1096 85.692 61.7176 85.844C61.3336 85.988 60.8656 86.06 60.3136 86.06ZM69.6136 86.06C69.0216 86.06 68.5656 85.9 68.2456 85.58C67.9256 85.26 67.7656 84.808 67.7656 84.224V78.308H68.6176V84.176C68.6176 84.544 68.7096 84.828 68.8936 85.028C69.0856 85.228 69.3576 85.328 69.7096 85.328C70.0856 85.328 70.3976 85.22 70.6456 85.004L70.9456 85.616C70.7776 85.768 70.5736 85.88 70.3336 85.952C70.1016 86.024 69.8616 86.06 69.6136 86.06ZM66.6376 80.408V79.7H70.5376V80.408H66.6376ZM75.7126 79.64C76.2246 79.64 76.6726 79.74 77.0566 79.94C77.4486 80.132 77.7526 80.428 77.9686 80.828C78.1926 81.228 78.3046 81.732 78.3046 82.34V86H77.4526V82.424C77.4526 81.76 77.2846 81.26 76.9486 80.924C76.6206 80.58 76.1566 80.408 75.5566 80.408C75.1086 80.408 74.7166 80.5 74.3806 80.684C74.0526 80.86 73.7966 81.12 73.6126 81.464C73.4366 81.8 73.3486 82.208 73.3486 82.688V86H72.4966V77.096H73.3486V81.428L73.1806 81.104C73.3806 80.648 73.7006 80.292 74.1406 80.036C74.5806 79.772 75.1046 79.64 75.7126 79.64ZM84.554 86V84.608L84.518 84.38V82.052C84.518 81.516 84.366 81.104 84.062 80.816C83.766 80.528 83.322 80.384 82.73 80.384C82.322 80.384 81.934 80.452 81.566 80.588C81.198 80.724 80.886 80.904 80.63 81.128L80.246 80.492C80.566 80.22 80.95 80.012 81.398 79.868C81.846 79.716 82.318 79.64 82.814 79.64C83.63 79.64 84.258 79.844 84.698 80.252C85.146 80.652 85.37 81.264 85.37 82.088V86H84.554ZM82.382 86.06C81.91 86.06 81.498 85.984 81.146 85.832C80.802 85.672 80.538 85.456 80.354 85.184C80.17 84.904 80.078 84.584 80.078 84.224C80.078 83.896 80.154 83.6 80.306 83.336C80.466 83.064 80.722 82.848 81.074 82.688C81.434 82.52 81.914 82.436 82.514 82.436H84.686V83.072H82.538C81.93 83.072 81.506 83.18 81.266 83.396C81.034 83.612 80.918 83.88 80.918 84.2C80.918 84.56 81.058 84.848 81.338 85.064C81.618 85.28 82.01 85.388 82.514 85.388C82.994 85.388 83.406 85.28 83.75 85.064C84.102 84.84 84.358 84.52 84.518 84.104L84.71 84.692C84.55 85.108 84.27 85.44 83.87 85.688C83.478 85.936 82.982 86.06 82.382 86.06ZM89.6761 86.06C89.0841 86.06 88.6281 85.9 88.3081 85.58C87.9881 85.26 87.8281 84.808 87.8281 84.224V78.308H88.6801V84.176C88.6801 84.544 88.7721 84.828 88.9561 85.028C89.1481 85.228 89.4201 85.328 89.7721 85.328C90.1481 85.328 90.4601 85.22 90.7081 85.004L91.0081 85.616C90.8401 85.768 90.6361 85.88 90.3961 85.952C90.1641 86.024 89.9241 86.06 89.6761 86.06ZM86.7001 80.408V79.7H90.6001V80.408H86.7001ZM99.5277 86.072C98.8957 86.072 98.3117 85.968 97.7757 85.76C97.2397 85.544 96.7757 85.244 96.3837 84.86C95.9917 84.476 95.6837 84.024 95.4597 83.504C95.2437 82.984 95.1357 82.416 95.1357 81.8C95.1357 81.184 95.2437 80.616 95.4597 80.096C95.6837 79.576 95.9917 79.124 96.3837 78.74C96.7837 78.356 97.2517 78.06 97.7877 77.852C98.3237 77.636 98.9077 77.528 99.5397 77.528C100.148 77.528 100.72 77.632 101.256 77.84C101.792 78.04 102.244 78.344 102.612 78.752L102.048 79.316C101.704 78.964 101.324 78.712 100.908 78.56C100.492 78.4 100.044 78.32 99.5637 78.32C99.0597 78.32 98.5917 78.408 98.1597 78.584C97.7277 78.752 97.3517 78.996 97.0317 79.316C96.7117 79.628 96.4597 79.996 96.2757 80.42C96.0997 80.836 96.0117 81.296 96.0117 81.8C96.0117 82.304 96.0997 82.768 96.2757 83.192C96.4597 83.608 96.7117 83.976 97.0317 84.296C97.3517 84.608 97.7277 84.852 98.1597 85.028C98.5917 85.196 99.0597 85.28 99.5637 85.28C100.044 85.28 100.492 85.2 100.908 85.04C101.324 84.88 101.704 84.624 102.048 84.272L102.612 84.836C102.244 85.244 101.792 85.552 101.256 85.76C100.72 85.968 100.144 86.072 99.5277 86.072ZM106.718 86.06C106.182 86.06 105.714 85.96 105.314 85.76C104.914 85.56 104.602 85.26 104.378 84.86C104.162 84.46 104.054 83.96 104.054 83.36V79.7H104.906V83.264C104.906 83.936 105.07 84.444 105.398 84.788C105.734 85.124 106.202 85.292 106.802 85.292C107.242 85.292 107.622 85.204 107.942 85.028C108.27 84.844 108.518 84.58 108.686 84.236C108.862 83.892 108.95 83.48 108.95 83V79.7H109.802V86H108.986V84.272L109.118 84.584C108.918 85.048 108.606 85.412 108.182 85.676C107.766 85.932 107.278 86.06 106.718 86.06ZM113.868 86.06C113.348 86.06 112.856 85.988 112.392 85.844C111.928 85.692 111.564 85.504 111.3 85.28L111.684 84.608C111.94 84.8 112.268 84.968 112.668 85.112C113.068 85.248 113.488 85.316 113.928 85.316C114.528 85.316 114.96 85.224 115.224 85.04C115.488 84.848 115.62 84.596 115.62 84.284C115.62 84.052 115.544 83.872 115.392 83.744C115.248 83.608 115.056 83.508 114.816 83.444C114.576 83.372 114.308 83.312 114.012 83.264C113.716 83.216 113.42 83.16 113.124 83.096C112.836 83.032 112.572 82.94 112.332 82.82C112.092 82.692 111.896 82.52 111.744 82.304C111.6 82.088 111.528 81.8 111.528 81.44C111.528 81.096 111.624 80.788 111.816 80.516C112.008 80.244 112.288 80.032 112.656 79.88C113.032 79.72 113.488 79.64 114.024 79.64C114.432 79.64 114.84 79.696 115.248 79.808C115.656 79.912 115.992 80.052 116.256 80.228L115.884 80.912C115.604 80.72 115.304 80.584 114.984 80.504C114.664 80.416 114.344 80.372 114.024 80.372C113.456 80.372 113.036 80.472 112.764 80.672C112.5 80.864 112.368 81.112 112.368 81.416C112.368 81.656 112.44 81.844 112.584 81.98C112.736 82.116 112.932 82.224 113.172 82.304C113.42 82.376 113.688 82.436 113.976 82.484C114.272 82.532 114.564 82.592 114.852 82.664C115.148 82.728 115.416 82.82 115.656 82.94C115.904 83.052 116.1 83.216 116.244 83.432C116.396 83.64 116.472 83.916 116.472 84.26C116.472 84.628 116.368 84.948 116.16 85.22C115.96 85.484 115.664 85.692 115.272 85.844C114.888 85.988 114.42 86.06 113.868 86.06ZM120.028 86.06C119.436 86.06 118.98 85.9 118.66 85.58C118.34 85.26 118.18 84.808 118.18 84.224V78.308H119.032V84.176C119.032 84.544 119.124 84.828 119.308 85.028C119.5 85.228 119.772 85.328 120.124 85.328C120.5 85.328 120.812 85.22 121.06 85.004L121.36 85.616C121.192 85.768 120.988 85.88 120.748 85.952C120.516 86.024 120.276 86.06 120.028 86.06ZM117.052 80.408V79.7H120.952V80.408H117.052ZM125.256 86.06C124.648 86.06 124.1 85.924 123.612 85.652C123.132 85.372 122.752 84.992 122.472 84.512C122.192 84.024 122.052 83.468 122.052 82.844C122.052 82.212 122.192 81.656 122.472 81.176C122.752 80.696 123.132 80.32 123.612 80.048C124.092 79.776 124.64 79.64 125.256 79.64C125.88 79.64 126.432 79.776 126.912 80.048C127.4 80.32 127.78 80.696 128.052 81.176C128.332 81.656 128.472 82.212 128.472 82.844C128.472 83.468 128.332 84.024 128.052 84.512C127.78 84.992 127.4 85.372 126.912 85.652C126.424 85.924 125.872 86.06 125.256 86.06ZM125.256 85.304C125.712 85.304 126.116 85.204 126.468 85.004C126.82 84.796 127.096 84.508 127.296 84.14C127.504 83.764 127.608 83.332 127.608 82.844C127.608 82.348 127.504 81.916 127.296 81.548C127.096 81.18 126.82 80.896 126.468 80.696C126.116 80.488 125.716 80.384 125.268 80.384C124.82 80.384 124.42 80.488 124.068 80.696C123.716 80.896 123.436 81.18 123.228 81.548C123.02 81.916 122.916 82.348 122.916 82.844C122.916 83.332 123.02 83.764 123.228 84.14C123.436 84.508 123.716 84.796 124.068 85.004C124.42 85.204 124.816 85.304 125.256 85.304ZM138.083 79.64C138.595 79.64 139.039 79.74 139.415 79.94C139.799 80.132 140.095 80.428 140.303 80.828C140.519 81.228 140.627 81.732 140.627 82.34V86H139.775V82.424C139.775 81.76 139.615 81.26 139.295 80.924C138.983 80.58 138.539 80.408 137.963 80.408C137.531 80.408 137.155 80.5 136.835 80.684C136.523 80.86 136.279 81.12 136.103 81.464C135.935 81.8 135.851 82.208 135.851 82.688V86H134.999V82.424C134.999 81.76 134.839 81.26 134.519 80.924C134.199 80.58 133.751 80.408 133.175 80.408C132.751 80.408 132.379 80.5 132.059 80.684C131.739 80.86 131.491 81.12 131.315 81.464C131.147 81.8 131.063 82.208 131.063 82.688V86H130.211V79.7H131.027V81.404L130.895 81.104C131.087 80.648 131.395 80.292 131.819 80.036C132.251 79.772 132.759 79.64 133.343 79.64C133.959 79.64 134.483 79.796 134.915 80.108C135.347 80.412 135.627 80.872 135.755 81.488L135.419 81.356C135.603 80.844 135.927 80.432 136.391 80.12C136.863 79.8 137.427 79.64 138.083 79.64ZM145.614 86.06C144.958 86.06 144.382 85.924 143.886 85.652C143.39 85.372 143.002 84.992 142.722 84.512C142.442 84.024 142.302 83.468 142.302 82.844C142.302 82.22 142.434 81.668 142.698 81.188C142.97 80.708 143.338 80.332 143.802 80.06C144.274 79.78 144.802 79.64 145.386 79.64C145.978 79.64 146.502 79.776 146.958 80.048C147.422 80.312 147.786 80.688 148.05 81.176C148.314 81.656 148.446 82.212 148.446 82.844C148.446 82.884 148.442 82.928 148.434 82.976C148.434 83.016 148.434 83.06 148.434 83.108H142.95V82.472H147.978L147.642 82.724C147.642 82.268 147.542 81.864 147.342 81.512C147.15 81.152 146.886 80.872 146.55 80.672C146.214 80.472 145.826 80.372 145.386 80.372C144.954 80.372 144.566 80.472 144.222 80.672C143.878 80.872 143.61 81.152 143.418 81.512C143.226 81.872 143.13 82.284 143.13 82.748V82.88C143.13 83.36 143.234 83.784 143.442 84.152C143.658 84.512 143.954 84.796 144.33 85.004C144.714 85.204 145.15 85.304 145.638 85.304C146.022 85.304 146.378 85.236 146.706 85.1C147.042 84.964 147.33 84.756 147.57 84.476L148.05 85.028C147.77 85.364 147.418 85.62 146.994 85.796C146.578 85.972 146.118 86.06 145.614 86.06ZM150.18 86V79.7H150.996V81.416L150.912 81.116C151.088 80.636 151.384 80.272 151.8 80.024C152.216 79.768 152.732 79.64 153.348 79.64V80.468C153.316 80.468 153.284 80.468 153.252 80.468C153.22 80.46 153.188 80.456 153.156 80.456C152.492 80.456 151.972 80.66 151.596 81.068C151.22 81.468 151.032 82.04 151.032 82.784V86H150.18ZM156.665 86.06C156.145 86.06 155.653 85.988 155.189 85.844C154.725 85.692 154.361 85.504 154.097 85.28L154.481 84.608C154.737 84.8 155.065 84.968 155.465 85.112C155.865 85.248 156.285 85.316 156.725 85.316C157.325 85.316 157.757 85.224 158.021 85.04C158.285 84.848 158.417 84.596 158.417 84.284C158.417 84.052 158.341 83.872 158.189 83.744C158.045 83.608 157.853 83.508 157.613 83.444C157.373 83.372 157.105 83.312 156.809 83.264C156.513 83.216 156.217 83.16 155.921 83.096C155.633 83.032 155.369 82.94 155.129 82.82C154.889 82.692 154.693 82.52 154.541 82.304C154.397 82.088 154.325 81.8 154.325 81.44C154.325 81.096 154.421 80.788 154.613 80.516C154.805 80.244 155.085 80.032 155.453 79.88C155.829 79.72 156.285 79.64 156.821 79.64C157.229 79.64 157.637 79.696 158.045 79.808C158.453 79.912 158.789 80.052 159.053 80.228L158.681 80.912C158.401 80.72 158.101 80.584 157.781 80.504C157.461 80.416 157.141 80.372 156.821 80.372C156.253 80.372 155.833 80.472 155.561 80.672C155.297 80.864 155.165 81.112 155.165 81.416C155.165 81.656 155.237 81.844 155.381 81.98C155.533 82.116 155.729 82.224 155.969 82.304C156.217 82.376 156.485 82.436 156.773 82.484C157.069 82.532 157.361 82.592 157.649 82.664C157.945 82.728 158.213 82.82 158.453 82.94C158.701 83.052 158.897 83.216 159.041 83.432C159.193 83.64 159.269 83.916 159.269 84.26C159.269 84.628 159.165 84.948 158.957 85.22C158.757 85.484 158.461 85.692 158.069 85.844C157.685 85.988 157.217 86.06 156.665 86.06ZM164.153 86V77.6H165.041V85.232H169.745V86H164.153ZM173.514 86.06C172.906 86.06 172.358 85.924 171.87 85.652C171.39 85.372 171.01 84.992 170.73 84.512C170.45 84.024 170.31 83.468 170.31 82.844C170.31 82.212 170.45 81.656 170.73 81.176C171.01 80.696 171.39 80.32 171.87 80.048C172.35 79.776 172.898 79.64 173.514 79.64C174.138 79.64 174.69 79.776 175.17 80.048C175.658 80.32 176.038 80.696 176.31 81.176C176.59 81.656 176.73 82.212 176.73 82.844C176.73 83.468 176.59 84.024 176.31 84.512C176.038 84.992 175.658 85.372 175.17 85.652C174.682 85.924 174.13 86.06 173.514 86.06ZM173.514 85.304C173.97 85.304 174.374 85.204 174.726 85.004C175.078 84.796 175.354 84.508 175.554 84.14C175.762 83.764 175.866 83.332 175.866 82.844C175.866 82.348 175.762 81.916 175.554 81.548C175.354 81.18 175.078 80.896 174.726 80.696C174.374 80.488 173.974 80.384 173.526 80.384C173.078 80.384 172.678 80.488 172.326 80.696C171.974 80.896 171.694 81.18 171.486 81.548C171.278 81.916 171.174 82.348 171.174 82.844C171.174 83.332 171.278 83.764 171.486 84.14C171.694 84.508 171.974 84.796 172.326 85.004C172.678 85.204 173.074 85.304 173.514 85.304ZM179.913 86L177.117 79.7H178.005L180.573 85.544H180.153L182.757 79.7H183.597L180.789 86H179.913ZM187.298 86.06C186.642 86.06 186.066 85.924 185.57 85.652C185.074 85.372 184.686 84.992 184.406 84.512C184.126 84.024 183.986 83.468 183.986 82.844C183.986 82.22 184.118 81.668 184.382 81.188C184.654 80.708 185.022 80.332 185.486 80.06C185.958 79.78 186.486 79.64 187.07 79.64C187.662 79.64 188.186 79.776 188.642 80.048C189.106 80.312 189.47 80.688 189.734 81.176C189.998 81.656 190.13 82.212 190.13 82.844C190.13 82.884 190.126 82.928 190.118 82.976C190.118 83.016 190.118 83.06 190.118 83.108H184.634V82.472H189.662L189.326 82.724C189.326 82.268 189.226 81.864 189.026 81.512C188.834 81.152 188.57 80.872 188.234 80.672C187.898 80.472 187.51 80.372 187.07 80.372C186.638 80.372 186.25 80.472 185.906 80.672C185.562 80.872 185.294 81.152 185.102 81.512C184.91 81.872 184.814 82.284 184.814 82.748V82.88C184.814 83.36 184.918 83.784 185.126 84.152C185.342 84.512 185.638 84.796 186.014 85.004C186.398 85.204 186.834 85.304 187.322 85.304C187.706 85.304 188.062 85.236 188.39 85.1C188.726 84.964 189.014 84.756 189.254 84.476L189.734 85.028C189.454 85.364 189.102 85.62 188.678 85.796C188.262 85.972 187.802 86.06 187.298 86.06ZM191.948 86.06C191.772 86.06 191.62 85.996 191.492 85.868C191.372 85.74 191.312 85.584 191.312 85.4C191.312 85.208 191.372 85.052 191.492 84.932C191.62 84.812 191.772 84.752 191.948 84.752C192.124 84.752 192.272 84.812 192.392 84.932C192.52 85.052 192.584 85.208 192.584 85.4C192.584 85.584 192.52 85.74 192.392 85.868C192.272 85.996 192.124 86.06 191.948 86.06Z" fill="white"/>
</svg>
