<svg width="50" height="31" viewBox="0 0 50 31" fill="none" xmlns="http://www.w3.org/2000/svg">
<path d="M20.1386 13.8903C22.899 12.5854 24.34 10.6109 24.34 7.53752C24.34 1.4766 19.7741 0 14.505 0H0V30.4248H14.913C20.5032 30.4248 25.7549 27.7721 25.7549 21.591C25.7549 17.7707 23.9233 14.9463 20.1386 13.8903ZM6.76207 5.19385H13.1075C15.5467 5.19385 17.7428 5.87206 17.7428 8.67073C17.7428 11.2548 16.0328 12.2935 13.6196 12.2935H6.76207V5.19385ZM13.9929 25.2567H6.76207V16.8779H14.1318C17.1092 16.8779 18.9928 18.1055 18.9928 21.2218C18.9928 24.2952 16.7446 25.2567 13.9929 25.2567ZM45.1123 4.59291H32.6385V1.59679H45.1123V4.59291ZM49.9994 19.7281C49.9994 13.2121 46.1453 7.7779 39.1575 7.7779C32.3694 7.7779 27.7601 12.8258 27.7601 19.4362C27.7601 26.2955 32.1263 31 39.1575 31C44.4786 31 47.9248 28.6306 49.5827 23.5913H44.1835C43.6019 25.4713 41.2061 26.4672 39.3485 26.4672C35.7635 26.4672 33.8798 24.3896 33.8798 20.8613H49.9473C49.9733 20.5007 49.9994 20.1144 49.9994 19.7281ZM33.8885 17.0496C34.0881 14.1565 36.0325 12.3451 38.9665 12.3451C42.0394 12.3451 43.5845 14.1307 43.8449 17.0496H33.8885Z" fill="white"/>
</svg>
