<svg width="209" height="188" viewBox="0 0 209 188" fill="none" xmlns="http://www.w3.org/2000/svg">
<g clip-path="url(#clip0_1087_335)">
<path d="M39.7544 128.345C39.4882 128.471 39.1897 128.512 38.8993 128.462C38.609 128.413 38.3409 128.276 38.1313 128.069C37.9217 127.862 37.7808 127.595 37.7276 127.306C37.6744 127.016 37.7116 126.717 37.834 126.449C37.8119 126.303 37.796 126.197 37.7739 126.05C37.7499 126.026 37.7258 126.003 37.7017 125.979C35.2658 123.579 31.1392 125.327 31.1472 128.747C31.1542 131.781 30.8697 134.943 31.6758 137.818C32.0326 139.088 32.6071 140.287 33.3738 141.361C28.5531 136.914 24.7449 131.483 22.2076 125.435C21.5724 123.916 21.0227 122.364 20.5609 120.784C20.1834 119.488 19.8637 118.179 19.6017 116.856C18.188 109.674 18.4981 102.259 20.5065 95.2203C22.081 93.2551 23.0153 90.8544 23.1834 88.3419C23.2468 87.4375 23.1789 86.5287 22.9818 85.6437C22.7644 85.77 22.5384 85.8866 22.3146 85.9978C22.2445 86.0316 22.1707 86.0669 22.1006 86.1006L22.0741 86.1131C21.8259 86.2301 21.5493 86.2729 21.2774 86.2364C21.0055 86.1998 20.75 86.0855 20.5416 85.907C20.3332 85.7286 20.1808 85.4938 20.1028 85.2308C20.0247 84.9678 20.0244 84.6878 20.1018 84.4246C20.15 84.2609 20.1983 84.0971 20.2467 83.9334C20.3188 83.6818 20.3962 83.4323 20.4683 83.1807C20.4782 83.1555 20.4867 83.1298 20.4937 83.1036C20.5773 82.8161 20.6625 82.5324 20.7462 82.2449C20.2241 81.8857 19.626 81.6519 18.9987 81.5619C16.8343 81.2701 14.7302 82.978 14.1314 85.0757C13.529 87.175 14.2135 89.4809 15.4722 91.2631C16.5487 92.7893 18.0081 93.9915 19.5378 95.0757C19.4939 95.2358 19.4447 95.3937 19.4009 95.5538C18.6034 98.4907 18.0957 101.499 17.8851 104.535C17.0164 101.595 15.4623 98.9039 13.3507 96.6822C11.3005 94.646 8.5202 93.3715 5.94535 91.9467C2.85254 90.2352 -0.83156 93.0858 0.166646 96.4767C0.176312 96.5095 0.186054 96.5423 0.195873 96.575C0.505176 96.6116 0.812818 96.6591 1.11879 96.7175C1.50402 96.7928 1.8575 96.9828 2.13293 97.2625C2.40836 97.5422 2.59287 97.8985 2.66231 98.2849C2.73174 98.6712 2.68285 99.0695 2.52204 99.4276C2.36124 99.7857 2.09602 100.087 1.76113 100.292L1.72684 100.313C2.19298 101.177 2.7242 102.006 3.31589 102.79C4.9915 104.969 7.0993 106.779 9.50715 108.106C11.915 109.433 14.571 110.248 17.3085 110.5C17.4872 110.514 17.662 110.529 17.8391 110.539C18.0723 114.654 18.8396 118.721 20.1216 122.638C20.8852 124.946 21.8341 127.188 22.9591 129.343L22.9147 129.268C21.3934 126.985 19.1308 125.297 16.5089 124.489C12.6293 123.323 8.18384 124.155 4.27112 123.55C2.38766 123.259 0.961469 125.248 1.94992 126.878C1.96569 126.904 1.98154 126.93 1.99746 126.956C2.54098 126.951 3.08428 126.98 3.62421 127.042C3.93352 127.079 4.24116 127.126 4.54712 127.185C4.93236 127.26 5.28585 127.45 5.56128 127.73C5.83671 128.009 6.02122 128.366 6.09066 128.752C6.16009 129.138 6.1112 129.537 5.95039 129.895C5.78959 130.253 5.52436 130.554 5.18947 130.759L5.15514 130.78C5.13033 130.795 5.10926 130.808 5.08448 130.823C6.66997 132.386 8.51272 133.665 10.532 134.603C13.0108 135.724 15.6924 136.327 18.4124 136.375C21.1325 136.423 23.8337 135.915 26.3505 134.882L26.3542 134.88C28.273 137.556 30.4647 140.026 32.894 142.249L43.4173 137.851C43.4062 137.718 43.3897 137.583 43.3748 137.452C42.4263 137.92 41.424 138.271 40.3904 138.496C40.7708 137.211 41.148 135.919 41.5284 134.635C41.5383 134.61 41.5468 134.584 41.5538 134.558C41.7449 133.902 41.9414 133.248 42.1325 132.593L42.1325 132.592C41.5255 131.08 40.7264 129.653 39.7548 128.345L39.7544 128.345ZM17.797 109.675L17.7994 109.665L17.8001 109.683L17.797 109.675ZM24.2474 131.662L24.0718 131.496C24.0141 131.348 23.9526 131.201 23.8858 131.051C23.8684 131.01 23.8436 130.971 23.8262 130.93C23.9689 131.176 24.1079 131.424 24.2543 131.668L24.2474 131.662Z" fill="#F2F2F2"/>
<path d="M136.323 56.0285C135.931 57.6098 135.744 59.2349 135.767 60.8639L135.767 60.8646C136.197 61.396 136.63 61.9233 137.059 62.4548C137.076 62.4762 137.093 62.4967 137.112 62.5161C137.958 63.5544 138.805 64.6009 139.651 65.6393C138.61 65.8305 137.551 65.8937 136.495 65.8273C136.532 65.954 136.569 66.0848 136.609 66.2116H148.015C149.399 63.2237 150.469 60.1001 151.207 56.8911H151.212C153.932 56.8738 156.62 56.3011 159.111 55.208C161.603 54.1149 163.844 52.5245 165.699 50.5343C167.201 48.8902 168.408 46.9998 169.268 44.9461C169.239 44.942 169.215 44.9379 169.186 44.9338L169.146 44.9277C168.758 44.8679 168.398 44.6923 168.111 44.4239C167.825 44.1555 167.626 43.8069 167.541 43.4236C167.456 43.0404 167.489 42.6404 167.635 42.2762C167.782 41.9119 168.035 41.6003 168.361 41.3823C168.621 41.2106 168.886 41.0482 169.158 40.895C169.632 40.629 170.122 40.3928 170.625 40.1878C170.63 40.1577 170.634 40.1276 170.639 40.0975C170.923 38.2129 168.84 36.9272 167.214 37.9221C163.837 39.989 159.415 40.9358 156.285 43.5072C154.177 45.2638 152.74 47.6939 152.217 50.3872L152.205 50.473C152.412 48.051 152.423 45.6162 152.238 43.1924C151.91 39.0841 151.05 35.0358 149.679 31.1494C149.838 31.0717 149.993 30.9899 150.153 30.9082C152.581 29.62 154.718 27.8439 156.428 25.6913C158.138 23.5388 159.385 21.0561 160.091 18.3991C160.334 17.4473 160.505 16.4784 160.602 15.5007L160.562 15.4946C160.174 15.4348 159.813 15.2592 159.527 14.9908C159.24 14.7224 159.041 14.3737 158.956 13.9905C158.872 13.6073 158.904 13.2073 159.051 12.843C159.197 12.4788 159.45 12.1672 159.776 11.9491C160.036 11.7775 160.301 11.615 160.573 11.4618C160.569 11.4278 160.566 11.3938 160.562 11.3598C160.175 7.84626 155.677 6.63662 153.483 9.40832C151.657 11.7159 149.583 13.9639 148.477 16.6331C147.385 19.4972 146.989 22.5795 147.321 25.6266C145.956 22.9067 144.327 20.3272 142.459 17.9249C142.357 17.7941 142.251 17.6673 142.149 17.5365C143.142 15.9463 144.025 14.2744 144.43 12.4511C144.904 10.3213 144.646 7.92985 143.281 6.22521C141.92 4.52054 139.32 3.75611 137.435 4.85985C136.891 5.18483 136.429 5.63111 136.086 6.16386C136.274 6.39688 136.462 6.6258 136.65 6.85881C136.667 6.88026 136.685 6.90075 136.703 6.92016C136.867 7.12454 137.035 7.32485 137.198 7.52926C137.306 7.6616 137.414 7.79403 137.521 7.92657C137.694 8.13957 137.802 8.39801 137.831 8.67077C137.861 8.94352 137.811 9.21896 137.687 9.46393C137.564 9.70889 137.372 9.91295 137.135 10.0515C136.898 10.1901 136.627 10.2573 136.353 10.245L136.323 10.2437C136.246 10.2396 136.164 10.2354 136.086 10.2314C135.837 10.215 135.583 10.1946 135.334 10.1619C135.493 11.0544 135.781 11.9191 136.188 12.7291C137.312 14.9826 139.1 16.8373 141.311 18.0435C145.878 23.7636 149.023 30.4856 150.488 37.6573C150.758 38.9778 150.968 40.3091 151.118 41.6513C151.301 43.2869 151.392 44.9314 151.391 46.5773C151.382 53.1359 149.963 59.6159 147.23 65.5779C147.523 64.2912 147.591 62.9634 147.43 61.6536C147.065 58.6902 145.584 55.8827 144.42 53.0801C143.109 49.9223 138.628 49.9006 137.305 53.0536C137.292 53.0849 137.279 53.1162 137.266 53.1476C137.302 53.2915 137.328 53.3949 137.365 53.5388C137.581 53.7388 137.73 54.0003 137.793 54.2881C137.856 54.5758 137.828 54.8759 137.715 55.1476C137.601 55.4193 137.407 55.6495 137.158 55.8071C136.909 55.9646 136.618 56.0418 136.324 56.0283L136.323 56.0285ZM149.384 30.344L149.378 30.3278L149.384 30.3359V30.344ZM151.906 53.1179C151.947 52.8359 151.98 52.5538 152.017 52.2717C152.017 52.3167 152.009 52.3616 152.009 52.4066C152.005 52.5702 152.005 52.7296 152.009 52.889L151.911 53.1097L151.906 53.1179Z" fill="#F2F2F2"/>
<path d="M124.834 126.311H89.941C89.4473 126.311 88.9742 126.508 88.6256 126.858C88.277 127.207 88.0815 127.681 88.082 128.174V183.295H126.698V128.174C126.698 127.929 126.65 127.687 126.556 127.461C126.463 127.235 126.325 127.029 126.152 126.856C125.979 126.683 125.774 126.546 125.547 126.452C125.321 126.359 125.079 126.31 124.834 126.311ZM107.505 157.63C106.414 157.624 105.369 157.189 104.597 156.417C103.825 155.646 103.39 154.601 103.385 153.509V147.152C103.385 146.059 103.819 145.011 104.591 144.238C105.364 143.465 106.412 143.031 107.505 143.031C108.598 143.031 109.646 143.465 110.418 144.238C111.191 145.011 111.625 146.059 111.625 147.152V153.509C111.62 154.601 111.184 155.646 110.413 156.417C109.641 157.189 108.596 157.624 107.505 157.63V157.63Z" fill="#E6E6E6"/>
<path d="M87.9609 181.533V186.851C87.9615 187.127 88.0712 187.391 88.2661 187.586C88.4609 187.781 88.7251 187.89 89.0006 187.891H125.777C126.052 187.89 126.316 187.78 126.51 187.585C126.705 187.39 126.815 187.127 126.816 186.851V181.533L87.9609 181.533Z" fill="#CCCCCC"/>
<path d="M182.61 40.2891H33.4553C32.1738 40.2911 30.9454 40.8011 30.0393 41.7072C29.1331 42.6133 28.6231 43.8417 28.6211 45.1232V145.773C28.6223 147.055 29.132 148.284 30.0384 149.19C30.9447 150.097 32.1735 150.606 33.4553 150.608H182.61C183.892 150.606 185.12 150.097 186.027 149.19C186.933 148.284 187.443 147.055 187.444 145.773V45.1232C187.442 43.8417 186.932 42.6133 186.026 41.7072C185.12 40.8011 183.891 40.2911 182.61 40.2891Z" fill="#E6E6E6"/>
<path d="M181.365 43.7793H34.703C34.0166 43.7809 33.359 44.0547 32.8742 44.5406C32.3895 45.0265 32.1172 45.6848 32.1172 46.3711V144.526C32.118 145.211 32.3906 145.869 32.8754 146.353C33.3602 146.838 34.0174 147.111 34.703 147.111H181.365C182.051 147.111 182.708 146.838 183.193 146.353C183.678 145.869 183.95 145.211 183.951 144.526V46.3711C183.951 45.6848 183.679 45.0265 183.194 44.5406C182.709 44.0547 182.052 43.7809 181.365 43.7793V43.7793Z" fill="white"/>
<path d="M50.7894 141.484C50.7926 143.405 50.4504 145.311 49.7789 147.111H34.7025C34.0172 147.11 33.3603 146.837 32.8757 146.353C32.3911 145.868 32.1184 145.211 32.1172 144.526V125.564C32.9596 125.427 33.8115 125.359 34.6649 125.359C36.7824 125.359 38.8792 125.776 40.8356 126.586C42.792 127.397 44.5696 128.585 46.0669 130.082C47.5643 131.579 48.752 133.357 49.5623 135.313C50.3726 137.27 50.7895 139.366 50.7894 141.484V141.484Z" fill="white"/>
<path d="M183.953 46.3711V131.805C172.668 135.094 160.619 134.618 149.629 130.447C138.64 126.276 129.309 118.638 123.048 108.689C116.788 98.7406 113.94 87.0233 114.934 75.3111C115.929 63.599 120.712 52.5297 128.56 43.7793H181.367C182.053 43.7809 182.711 44.0547 183.196 44.5406C183.68 45.0265 183.953 45.6848 183.953 46.3711V46.3711Z" fill="#E6E6E6"/>
<path d="M173.993 57.3024H36.7608C36.6181 57.2994 36.4822 57.2405 36.3823 57.1385C36.2825 57.0365 36.2266 56.8994 36.2266 56.7567C36.2266 56.6139 36.2825 56.4768 36.3823 56.3748C36.4822 56.2728 36.6181 56.214 36.7608 56.2109H173.993C174.136 56.214 174.272 56.2728 174.372 56.3748C174.472 56.4768 174.527 56.6139 174.527 56.7567C174.527 56.8994 174.472 57.0365 174.372 57.1385C174.272 57.2405 174.136 57.2994 173.993 57.3024V57.3024Z" fill="#CACACA"/>
<path d="M46.1026 53.4238C47.8689 53.4238 49.3008 51.96 49.3008 50.1543C49.3008 48.3486 47.8689 46.8848 46.1026 46.8848C44.3362 46.8848 42.9043 48.3486 42.9043 50.1543C42.9043 51.96 44.3362 53.4238 46.1026 53.4238Z" fill="#3F3D56"/>
<path d="M57.1514 53.4238C58.9177 53.4238 60.3497 51.96 60.3497 50.1543C60.3497 48.3486 58.9177 46.8848 57.1514 46.8848C55.385 46.8848 53.9531 48.3486 53.9531 50.1543C53.9531 51.96 55.385 53.4238 57.1514 53.4238Z" fill="#3F3D56"/>
<path d="M68.2002 53.4238C69.9666 53.4238 71.3985 51.96 71.3985 50.1543C71.3985 48.3486 69.9666 46.8848 68.2002 46.8848C66.4339 46.8848 65.002 48.3486 65.002 50.1543C65.002 51.96 66.4339 53.4238 68.2002 53.4238Z" fill="#3F3D56"/>
<path d="M167.341 47.6973H159.493C159.337 47.7004 159.189 47.7643 159.08 47.8754C158.971 47.9866 158.91 48.1359 158.91 48.2915C158.91 48.4471 158.971 48.5965 159.08 48.7076C159.189 48.8187 159.337 48.8827 159.493 48.8858H167.341C167.497 48.8827 167.645 48.8187 167.754 48.7076C167.863 48.5965 167.924 48.4471 167.924 48.2915C167.924 48.1359 167.863 47.9866 167.754 47.8754C167.645 47.7643 167.497 47.7004 167.341 47.6973Z" fill="#3F3D56"/>
<path d="M167.341 49.9277H159.493C159.337 49.9308 159.189 49.9948 159.08 50.1059C158.971 50.217 158.91 50.3664 158.91 50.522C158.91 50.6776 158.971 50.827 159.08 50.9381C159.189 51.0492 159.337 51.1132 159.493 51.1162H167.341C167.497 51.1132 167.645 51.0492 167.754 50.9381C167.863 50.827 167.924 50.6776 167.924 50.522C167.924 50.3664 167.863 50.217 167.754 50.1059C167.645 49.9948 167.497 49.9308 167.341 49.9277Z" fill="#3F3D56"/>
<path d="M167.341 52.1582H159.493C159.337 52.1613 159.189 52.2253 159.08 52.3364C158.971 52.4475 158.91 52.5969 158.91 52.7525C158.91 52.908 158.971 53.0574 159.08 53.1685C159.189 53.2797 159.337 53.3436 159.493 53.3467H167.341C167.497 53.3436 167.645 53.2797 167.754 53.1685C167.863 53.0574 167.924 52.908 167.924 52.7525C167.924 52.5969 167.863 52.4475 167.754 52.3364C167.645 52.2253 167.497 52.1613 167.341 52.1582Z" fill="#3F3D56"/>
<path d="M94.2411 19.5698C94.7244 18.5508 92.4848 16.4768 89.2388 14.9372C85.9929 13.3977 82.9697 12.9758 82.4864 13.9948C82.0031 15.0138 84.2427 17.0879 87.4887 18.6274C90.7346 20.1669 93.7578 20.5888 94.2411 19.5698Z" fill="#2F2E41"/>
<path d="M121.029 30.0645C121.894 29.3405 120.725 26.5206 118.419 23.766C116.112 21.0115 113.542 19.3654 112.677 20.0895C111.812 20.8135 112.981 23.6334 115.287 26.3879C117.594 29.1424 120.164 30.7885 121.029 30.0645Z" fill="#2F2E41"/>
<path d="M103.018 35.8281C110.203 35.8281 116.027 30.0034 116.027 22.8183C116.027 15.6333 110.203 9.80859 103.018 9.80859C95.8325 9.80859 90.0078 15.6333 90.0078 22.8183C90.0078 30.0034 95.8325 35.8281 103.018 35.8281Z" fill="#2F2E41"/>
<path d="M108.523 33.0273H104.57V40.1086H108.523V33.0273Z" fill="#2F2E41"/>
<path d="M100.618 33.0273H96.666V40.1086H100.618V33.0273Z" fill="#2F2E41"/>
<path d="M105.231 41.4272C107.05 41.4272 108.525 40.8743 108.525 40.1921C108.525 39.51 107.05 38.957 105.231 38.957C103.412 38.957 101.938 39.51 101.938 40.1921C101.938 40.8743 103.412 41.4272 105.231 41.4272Z" fill="#2F2E41"/>
<path d="M97.3249 41.2632C99.1439 41.2632 100.618 40.7102 100.618 40.0281C100.618 39.3459 99.1439 38.793 97.3249 38.793C95.5058 38.793 94.0312 39.3459 94.0312 40.0281C94.0312 40.7102 95.5058 41.2632 97.3249 41.2632Z" fill="#2F2E41"/>
<path d="M98.932 6.46377C100.094 1.78548 105.221 -0.967603 110.385 0.314601C115.549 1.59681 118.793 6.42878 117.632 11.1071C116.47 15.7854 112.616 15.8005 107.452 14.5183C102.289 13.2361 97.7704 11.1421 98.932 6.46377Z" fill="#E6E6E6"/>
<path d="M101.072 24.4093C103.467 24.4093 105.409 22.4673 105.409 20.0718C105.409 17.6763 103.467 15.7344 101.072 15.7344C98.6763 15.7344 96.7344 17.6763 96.7344 20.0718C96.7344 22.4673 98.6763 24.4093 101.072 24.4093Z" fill="white"/>
<path d="M100.799 23.2842C101.598 23.2842 102.245 22.6369 102.245 21.8384C102.245 21.0399 101.598 20.3926 100.799 20.3926C100.001 20.3926 99.3535 21.0399 99.3535 21.8384C99.3535 22.6369 100.001 23.2842 100.799 23.2842Z" fill="#3F3D56"/>
<path d="M106.583 27.9242C106.869 29.4954 103.037 32.1848 101.466 32.4709C100.711 32.6082 99.9332 32.4402 99.3025 32.0038C98.6719 31.5674 98.2404 30.8984 98.1031 30.1439L98.1021 30.1383C97.8176 28.5668 99.0326 28.0107 100.604 27.7263C102.176 27.4418 106.299 26.3528 106.583 27.9242Z" fill="white"/>
<path d="M152.667 119.058C154.857 116.21 155.906 113.344 155.012 112.656C154.118 111.969 151.618 113.721 149.429 116.569C147.24 119.418 146.19 122.284 147.084 122.971C147.978 123.658 150.478 121.906 152.667 119.058Z" fill="#2F2E41"/>
<path d="M164.584 128.566C171.769 128.566 177.594 122.742 177.594 115.557C177.594 108.372 171.769 102.547 164.584 102.547C157.399 102.547 151.574 108.372 151.574 115.557C151.574 122.742 157.399 128.566 164.584 128.566Z" fill="#2F2E41"/>
<path d="M170.513 125.766H166.561V132.847H170.513V125.766Z" fill="#2F2E41"/>
<path d="M162.607 125.766H158.654V132.847H162.607V125.766Z" fill="#2F2E41"/>
<path d="M167.219 134.164C169.038 134.164 170.513 133.611 170.513 132.928C170.513 132.246 169.038 131.693 167.219 131.693C165.4 131.693 163.926 132.246 163.926 132.928C163.926 133.611 165.4 134.164 167.219 134.164Z" fill="#2F2E41"/>
<path d="M159.315 133.998C161.134 133.998 162.609 133.445 162.609 132.762C162.609 132.08 161.134 131.527 159.315 131.527C157.496 131.527 156.021 132.08 156.021 132.762C156.021 133.445 157.496 133.998 159.315 133.998Z" fill="#2F2E41"/>
<path d="M164.255 116.709C166.711 116.709 168.701 114.718 168.701 112.263C168.701 109.807 166.711 107.816 164.255 107.816C161.799 107.816 159.809 109.807 159.809 112.263C159.809 114.718 161.799 116.709 164.255 116.709Z" fill="white"/>
<path d="M163.953 115.861C164.771 115.861 165.435 115.197 165.435 114.379C165.435 113.56 164.771 112.896 163.953 112.896C163.134 112.896 162.471 113.56 162.471 114.379C162.471 115.197 163.134 115.861 163.953 115.861Z" fill="#3F3D56"/>
<path d="M177.202 103.459C178.253 98.7541 174.895 94.0004 169.702 92.8409C164.509 91.6814 159.448 94.5553 158.398 99.2598C157.347 103.964 160.789 105.699 165.982 106.859C171.174 108.018 176.152 108.163 177.202 103.459Z" fill="white"/>
<path d="M179.96 126.852C180.974 126.36 180.526 123.34 178.959 120.108C177.391 116.875 175.298 114.654 174.283 115.146C173.268 115.638 173.716 118.658 175.284 121.89C176.851 125.123 178.945 127.344 179.96 126.852Z" fill="#2F2E41"/>
<path d="M170.973 120.249C170.973 121.522 167.695 124.036 164.057 124.036C160.419 124.036 157.008 120.451 157.008 119.178C157.008 117.905 160.419 119.425 164.057 119.425C167.695 119.425 170.973 118.975 170.973 120.249Z" fill="white"/>
<path d="M154.83 172.367C162.015 172.367 167.84 166.542 167.84 159.357C167.84 152.172 162.015 146.348 154.83 146.348C147.645 146.348 141.82 152.172 141.82 159.357C141.82 166.542 147.645 172.367 154.83 172.367Z" fill="#2F2E41"/>
<path d="M152.855 169.568H148.902V176.65H152.855V169.568Z" fill="#2F2E41"/>
<path d="M160.759 169.568H156.807V176.65H160.759V169.568Z" fill="#2F2E41"/>
<path d="M154.871 179.043C155.162 178.427 154.065 177.297 152.42 176.52C150.775 175.744 149.205 175.614 148.914 176.231C148.623 176.848 149.72 177.977 151.365 178.754C153.01 179.531 154.579 179.66 154.871 179.043Z" fill="#2F2E41"/>
<path d="M162.85 178.71C163.106 178.078 161.947 177.012 160.261 176.328C158.576 175.645 157.001 175.604 156.745 176.236C156.489 176.868 157.648 177.935 159.334 178.618C161.02 179.301 162.594 179.342 162.85 178.71Z" fill="#2F2E41"/>
<path d="M142.21 147.257C141.159 142.553 144.517 137.799 149.71 136.64C154.903 135.48 159.964 138.354 161.014 143.059C162.065 147.763 158.623 149.498 153.431 150.658C148.238 151.817 143.26 151.962 142.21 147.257Z" fill="white"/>
<path d="M170.296 154.016C171.595 150.248 171.689 146.862 170.505 146.454C169.322 146.047 167.311 148.771 166.012 152.54C164.713 156.308 164.619 159.694 165.802 160.102C166.985 160.509 168.997 157.785 170.296 154.016Z" fill="#2F2E41"/>
<path d="M144.343 158.082C145.228 157.198 143.662 154.195 140.844 151.375C138.027 148.555 135.025 146.987 134.14 147.871C133.255 148.756 134.821 151.758 137.639 154.578C140.456 157.398 143.458 158.967 144.343 158.082Z" fill="#2F2E41"/>
<path d="M56.375 182.402C63.56 182.402 69.3847 176.578 69.3847 169.393C69.3847 162.207 63.56 156.383 56.375 156.383C49.1899 156.383 43.3652 162.207 43.3652 169.393C43.3652 176.578 49.1899 182.402 56.375 182.402Z" fill="#2F2E41"/>
<path d="M54.4015 179.604H50.4492V186.685H54.4015V179.604Z" fill="#2F2E41"/>
<path d="M62.3039 179.604H58.3516V186.685H62.3039V179.604Z" fill="#2F2E41"/>
<path d="M53.7428 187.999C55.5618 187.999 57.0364 187.447 57.0364 186.764C57.0364 186.082 55.5618 185.529 53.7428 185.529C51.9238 185.529 50.4492 186.082 50.4492 186.764C50.4492 187.447 51.9238 187.999 53.7428 187.999Z" fill="#2F2E41"/>
<path d="M61.6452 187.835C63.4642 187.835 64.9388 187.282 64.9388 186.6C64.9388 185.918 63.4642 185.365 61.6452 185.365C59.8262 185.365 58.3516 185.918 58.3516 186.6C58.3516 187.282 59.8262 187.835 61.6452 187.835Z" fill="#2F2E41"/>
<path d="M43.7568 157.293C42.7063 152.588 46.0643 147.834 51.257 146.675C56.4497 145.515 61.5108 148.389 62.5613 153.094C63.6118 157.798 60.1704 159.533 54.9777 160.693C49.7849 161.852 44.8073 161.997 43.7568 157.293Z" fill="#3F3D56"/>
<path d="M73.0592 172.729C73.6444 171.623 71.2624 169.215 67.7389 167.352C64.2155 165.488 60.8848 164.874 60.2997 165.98C59.7146 167.086 62.0965 169.493 65.62 171.357C69.1435 173.221 72.4741 173.835 73.0592 172.729Z" fill="#2F2E41"/>
<path d="M54.5689 104.004C57.8149 102.465 60.0545 100.391 59.5712 99.3716C59.0879 98.3526 56.0647 98.7745 52.8187 100.314C49.5728 101.854 47.3332 103.928 47.8165 104.947C48.2998 105.966 51.323 105.544 54.5689 104.004Z" fill="#2F2E41"/>
<path d="M26.7702 111.767C29.0765 109.013 30.2451 106.193 29.3804 105.469C28.5157 104.745 25.9451 106.391 23.6388 109.145C21.3325 111.9 20.1639 114.72 21.0286 115.444C21.8934 116.168 24.464 114.522 26.7702 111.767Z" fill="#2F2E41"/>
<path d="M39.0429 121.207C46.228 121.207 52.0527 115.382 52.0527 108.197C52.0527 101.012 46.228 95.1875 39.0429 95.1875C31.8579 95.1875 26.0332 101.012 26.0332 108.197C26.0332 115.382 31.8579 121.207 39.0429 121.207Z" fill="#2F2E41"/>
<path d="M37.4875 118.408H33.5352V125.489H37.4875V118.408Z" fill="#2F2E41"/>
<path d="M45.3937 118.408H41.4414V125.489H45.3937V118.408Z" fill="#2F2E41"/>
<path d="M36.8288 126.806C38.6478 126.806 40.1224 126.253 40.1224 125.571C40.1224 124.889 38.6478 124.336 36.8288 124.336C35.0098 124.336 33.5352 124.889 33.5352 125.571C33.5352 126.253 35.0098 126.806 36.8288 126.806Z" fill="#2F2E41"/>
<path d="M44.735 126.642C46.554 126.642 48.0286 126.089 48.0286 125.407C48.0286 124.725 46.554 124.172 44.735 124.172C42.916 124.172 41.4414 124.725 41.4414 125.407C41.4414 126.089 42.916 126.642 44.735 126.642Z" fill="#2F2E41"/>
<path d="M43.1288 91.8446C41.9672 87.1663 36.8394 84.4133 31.6756 85.6955C26.5118 86.9777 23.2674 91.8096 24.4291 96.4879C25.5908 101.166 29.4448 101.181 34.6086 99.8991C39.7724 98.6169 44.2905 96.5229 43.1288 91.8446Z" fill="white"/>
<path d="M40.9878 109.788C43.3833 109.788 45.3253 107.846 45.3253 105.451C45.3253 103.055 43.3833 101.113 40.9878 101.113C38.5923 101.113 36.6504 103.055 36.6504 105.451C36.6504 107.846 38.5923 109.788 40.9878 109.788Z" fill="white"/>
<path d="M41.2603 108.667C42.0588 108.667 42.7061 108.02 42.7061 107.221C42.7061 106.423 42.0588 105.775 41.2603 105.775C40.4618 105.775 39.8145 106.423 39.8145 107.221C39.8145 108.02 40.4618 108.667 41.2603 108.667Z" fill="#3F3D56"/>
<path d="M38.2675 114.488C38.1994 114.862 38.2057 115.245 38.2858 115.616C38.366 115.987 38.5184 116.339 38.7345 116.651C38.9506 116.964 39.2261 117.23 39.5452 117.436C39.8643 117.642 40.2209 117.783 40.5944 117.851C40.968 117.919 41.3514 117.913 41.7226 117.833C42.0937 117.752 42.4455 117.6 42.7578 117.384C43.07 117.168 43.3367 116.892 43.5425 116.573C43.7483 116.254 43.8892 115.898 43.9572 115.524V115.524L43.9582 115.518C44.2427 113.947 43.0277 113.391 41.4563 113.106C39.8848 112.822 38.5519 112.917 38.2675 114.488Z" fill="white"/>
<path d="M208.094 187.887L6.68299 187.98C6.63567 187.98 6.58879 187.971 6.54503 187.953C6.50127 187.935 6.4615 187.909 6.42799 187.875C6.39448 187.842 6.36789 187.802 6.34975 187.758C6.33161 187.715 6.32227 187.668 6.32227 187.62C6.32227 187.573 6.33161 187.526 6.34975 187.483C6.36789 187.439 6.39448 187.399 6.42799 187.366C6.4615 187.332 6.50127 187.306 6.54503 187.288C6.58879 187.27 6.63567 187.261 6.68299 187.261L208.094 187.168C208.189 187.168 208.281 187.206 208.348 187.274C208.415 187.341 208.453 187.432 208.453 187.528C208.453 187.623 208.415 187.714 208.348 187.782C208.281 187.849 208.189 187.887 208.094 187.887V187.887Z" fill="#CACACA"/>
</g>
<defs>
<clipPath id="clip0_1087_335">
<rect width="208.453" height="188" fill="white"/>
</clipPath>
</defs>
</svg>
