<svg width="658" height="323" viewBox="0 0 658 323" fill="none" xmlns="http://www.w3.org/2000/svg">
<path d="M527.544 276.839L552.305 269.87L559.788 276.663L564.591 277.923L568.76 283.24L578.705 284.916L585.481 282.487L588.834 273.122L592.559 264.345L591.522 256.915L580.463 245.513L576.871 235.925L574.307 235.832L571.965 229.394L569.793 240.425L568.155 242.261L559.348 237.51L560.827 234.376L561.814 232.643L560.592 231.356L557.318 231.662L553.101 230.033L548.594 235.03L548.538 237.571L545.502 237.701L543.984 235.025L538.293 238.694L534.581 241.975L533.965 244.297L531.152 246.722L524.123 248.567L520.324 251.798L519.33 251.613L518.688 257.155L519.289 258.737L520.632 264.126L522.658 269.448L522.485 273.694L520.721 274.436L521.65 276.358L523.141 275.858L524.908 277.001L527.544 276.839Z" fill="#CCC9C0"/>
<path d="M576.633 288.777L579.689 289.843L581.797 289.094L582.816 289.483L582.402 292.395V294.365H581.703L581.327 293.664L580.706 294.633L580.036 295.253L578.514 294.68L577.032 293.099L576.85 290.949L575.977 289.809L576.633 288.777Z" fill="#CCC9C0"/>
<path d="M552.621 213.964L555.925 213.572L552.621 212.913L551.465 212.09L549.691 210.575L552.082 210.556L553.265 209.609L556.514 210.575L557.194 212.898L557.856 215.222L559.125 215.256L563.185 211.909L577.942 217.803L579.041 220.113L581.336 221.038L581.525 221.935L580.629 222.066L580.721 223.146L585.816 228.152L587.145 228.395L586.655 229.513L585.166 228.772L581.524 228.092L578.061 224.266L575.365 224.027L573.664 225.208L573.791 225.983L572.126 226.889L569.325 226.714L567.489 224.209L563.309 224.765L563.806 223.099L565.462 222.502L563.287 218.942L556.027 216.217L556.15 215.136L555.315 216.775L554.235 216.68L553.528 215.058L552.621 214.746V213.964Z" fill="#CCC9C0"/>
<path d="M535.781 226.74C536.048 226.93 539.597 224.618 539.597 224.618L542.739 224.134L542.986 224.327L539.384 226.259C539.384 226.259 537.22 227.924 537.198 227.912C537.174 227.902 536.02 228.304 536.02 228.304L535.781 226.74Z" fill="#CCC9C0"/>
<path d="M531.011 206.691L536.836 207.354L538.736 205.621L538.899 207.147L536.546 208.553L531.985 208.208L530.47 208.056L529.44 209.501L530.64 211.358C530.64 211.358 532.359 210.537 532.593 210.576C532.827 210.614 534.521 210.289 534.521 210.289L535.455 209.926L535.57 210.448L534.471 211.358L532.476 212.641L533.821 214.622L533.81 215.484L534.851 216.738L532.76 217.826L531.228 215.273L530.764 215.237L531.35 214.164L530.456 213.993L530.02 216.152L530.085 217.826L529.44 219.518L528.368 219.414L528.079 218.63L528.78 217.223L528.656 215.53L527.359 215.053V213.72L528.037 212.431L529.272 208.238L531.011 206.691Z" fill="#CCC9C0"/>
<path d="M503.785 219.957L505.267 220.164L505.811 219.742L507.546 220.489L508.49 221.306L510.315 221.398L511.667 221.704L512.378 220.86L513.875 221.33L515.358 221.704L516.282 222.777L517.126 223.295C517.126 223.295 517.894 222.868 518.069 222.958C518.244 223.048 519.402 223.38 519.402 223.38L519.205 224.692L517.103 224.448L513.817 224.274L510.481 223.295H507.424L505.8 222.715L504.68 222.805L504.119 221.768L502.84 221.477L503.785 219.957Z" fill="#CCC9C0"/>
<path d="M515.969 221.739L516.208 222.33L518.226 222.132L518.659 221.591L517.505 221.487L516.44 221.532L515.969 221.739Z" fill="#CCC9C0"/>
<path d="M520.089 223.839C520.089 223.839 520.825 223.917 520.889 223.94C520.952 223.962 521.72 224.384 521.72 224.384L521.267 224.784C521.267 224.784 521.027 225.147 520.981 225.212C520.934 225.277 520.726 225.352 520.726 225.352L520.236 224.956L519.831 224.691L519.797 224.448L520.089 223.839Z" fill="#CCC9C0"/>
<path d="M510.393 205.62L513.151 205.37L519.04 201.251L520.896 200.322L523.47 196.201L526.008 198.152L528.049 199.086L526.486 199.813L525.142 201.622L524.551 202.675L527.524 207.198L525.541 207.572L524.831 209.677L522.909 211.999L522.756 214.2L520.091 216.492L519.4 215.062C519.4 215.062 518.154 214.895 517.31 214.92C516.466 214.945 511.695 214.106 511.695 214.106L509.312 208.502L510.393 205.62Z" fill="#CCC9C0"/>
<path d="M484.687 198.66L489.334 200.289C489.334 200.289 493.392 204.501 493.796 204.905C494.198 205.309 501.111 212.462 501.603 212.959C502.094 213.457 503.461 215.75 503.461 215.75L503.787 219.956L501.39 219.183L498.407 217.799L492.56 209.609L488.722 204.937L486.501 202.675L483.977 199.764L484.687 198.66Z" fill="#CCC9C0"/>
<path d="M493.275 198.087C493.275 198.087 494.064 201.446 494.363 202.121C494.661 202.797 498.157 206.086 498.157 206.086L500.15 206.869L500.176 205.251L498.832 202.478L498.881 199.832L494.95 196.237L493.592 195.607L492.379 192.14L491.254 191.158L492.901 184.115L494.026 183.855L501.418 190.292L503.542 192.076L509.391 187.405L509.533 184.228L508.924 180.675L503.901 174.931L488.281 178.742L490.398 188.054L489.607 192.489L491.663 195.967L493.275 198.087Z" fill="#CCC9C0"/>
<path d="M503.899 174.932V171.756C503.899 171.756 506.756 168.433 507.826 168.607C508.896 168.78 510.616 169.533 512.226 169.037C513.838 168.541 525.853 163.768 525.853 163.768L532.825 152.401L532.02 147.508L528.333 141.685L534.126 137.161L530.503 135.983L527.65 136.976L527.31 133.257L532.639 129.512L532.393 132.609L537.421 131.89L539.299 132.761L539.452 136.232L541.392 136.497L541.5 141.47L540.877 143.54L547.448 141.251L545.992 136.11L543.571 132.144C543.571 132.144 546.575 130.483 546.794 129.726C547.013 128.969 551.257 124.027 551.257 124.027L554.044 125.575L565.94 113.062L567.828 105.16L568.199 100.144L564.606 97.9146L562.749 99.6174L557.946 96.8637L569.624 86.1107L576.255 84.6256L590.597 85.3082L597.318 78.8972C597.318 78.8972 611.294 75.3554 610.794 76.4453C610.296 77.5352 598.278 89.0838 597.318 90.231C596.359 91.3783 594.933 96.83 594.933 96.83L596.67 105.72L605.961 97.3253L609.273 92.3986L607.076 86.797L612.434 82.9541L620.087 81.2199L634.055 75.6099L639.042 68.9223L641.332 64.6132C641.332 64.6132 646.167 65.9186 647.098 67.4663C648.029 69.014 653.105 69.8525 653.105 69.8525L658 65.6687L651.618 62.1682L622.317 52.5945L622.378 56.5903L603.666 53.8632L601.714 50.3337C601.714 50.3337 592.389 51.1393 590.472 50.3337C588.553 49.5274 566.031 44.6656 566.031 44.6656L564.856 48.0102L549.057 50.0563L545.06 45.7815L543.356 40.7944L534.467 42.9009L505.1 41.5052L517.434 34.6602L515.911 30.1378L507.177 29.1449L501.911 25.6758L490.946 30.1676L468.132 35.1944L467.837 38.3479L455.183 39.7389L460.125 45.7487C460.125 45.7487 451.205 42.5906 450.955 44.4478C450.705 46.3058 444.574 46.5558 444.574 46.5558C444.574 46.5558 447.515 55.4163 449.459 56.3296C452.401 57.7123 455.183 58.9145 455.183 58.9145L443.364 63.3773C443.364 63.3773 434.813 63.2825 437.138 63.1908C439.463 63.0983 442.466 54.9486 442.466 54.9486L441.725 43.6155L435.808 43.8295L431.161 50.2733L434.721 56.2823L416.913 56.3449L397.609 60.4385L412.304 157.892C412.304 157.892 421.547 162.176 422.93 161.91C424.315 161.645 430.758 161.127 430.758 161.127L434.771 165.286L441.613 167.743L445.598 183.132L450.047 193.412L452.132 193.788L454.644 192.107L455.358 189.657L456.486 183.939L457.064 179.581L470.665 168.87L477.707 167.743C477.707 167.743 479.61 171.463 481.084 174.207C482.559 176.952 482.585 179.318 482.585 179.318L485.072 179.03L487.353 177.558L488.279 178.743L503.899 174.932Z" fill="#CCC9C0"/>
<path d="M550.39 143.052C550.954 142.549 553.743 140.669 554.179 140.766C554.615 140.863 557.821 140.677 557.821 140.677L563.302 137.194C563.302 137.194 566 133.71 566.107 132.886C566.217 132.062 565.975 129.742 566.187 129.618C566.399 129.494 567.918 128.363 567.918 128.363L569.839 131.168L568.975 134.636L568.088 136.213L567.347 139.221C567.347 139.221 567.639 141.315 567.02 141.684C566.399 142.054 563.023 142.471 563.023 142.471L560.42 142.826L558.905 144.485L557.327 144.008L557.478 142.582C557.478 142.582 556.443 142.832 555.064 142.954C553.685 143.076 551.95 144.331 551.609 144.209C551.268 144.087 549.848 144.021 549.848 144.021L550.39 143.052Z" fill="#CCC9C0"/>
<path d="M552.062 145.059L553.579 144.021L555.962 143.431L556.384 144.672L555.986 145.579H554.98L554.34 145.173L553.488 146.283L552.374 146.175L552.062 145.059Z" fill="#CCC9C0"/>
<path d="M547.109 145.441L548.762 144.485L551.533 145.691C551.533 145.691 550.997 147.053 550.913 147.384C550.828 147.715 549.3 149.863 549.3 149.863L548.433 149.695L548.231 148.578L548.889 147.052L548.52 146.144L547.526 146.886L547.109 145.441Z" fill="#CCC9C0"/>
<path d="M566.993 127.873L568.156 127.45L567.115 126.395L567.55 125.931C567.55 125.931 568.633 125.669 568.806 125.683C568.979 125.696 571.872 126.597 571.872 126.597L573.869 124.74C573.869 124.74 575.579 124.869 575.731 124.704C575.883 124.539 576.529 123.681 576.529 123.681L576.063 122.981L576.529 121.803L575.247 122.523L573.345 121.951L571.009 120.287L569.828 119.304L569.132 119.674L569.494 120.628C569.494 120.628 569.236 122.074 569.243 122.203C569.25 122.333 568.638 123.159 568.638 123.159L568.665 124.152L567.07 124.042L566.869 124.879L565.832 125.931L566.375 126.873L566.421 127.957L566.993 127.873Z" fill="#CCC9C0"/>
<path d="M570.092 100.082L570.991 99.2763L570.803 97.9143C570.803 97.9143 571.761 97.818 571.794 98.2537C571.826 98.6901 572.942 105.658 572.942 105.658L574.61 111.261L572.04 110.521L571.3 112.873L571.485 115.107L572.817 116.747L572.509 117.769L570.803 116.689L570.03 117.927L569.41 116.747L569.982 114.57L570.002 112.317L569.626 110.894L570.154 107.983L570.184 105.534L569.594 104.513L569.503 102.404L570.092 100.082Z" fill="#CCC9C0"/>
<path d="M397.609 60.4379L382.74 68.2063L376.24 69.2442L369.656 62.7775L377.329 63.9835L384.063 63.7305L384.037 60.5816L363.534 52.7567L356.92 49.4648L337.11 57.6085L326.947 72.0767L318.605 77.5346L320.653 87.4965L327.756 85.65L332.867 94.6573L339.741 92.3743L341.301 86.3975L345.728 85.1853L343.598 81.1123L341.243 81.055L341.992 75.9693L348.661 70.6047L350.771 66.4171L355.274 66.9941L353.831 70.1087L348.231 74.7908L352.043 83.075L360.501 81.5174L363.131 82.9902L359.088 84.2009L353.052 85.0125L353.831 89.2292L352.878 90.8167L349.531 89.285L347.593 92.7519L347.218 96.1859L329.287 97.833L326.715 95.2343L328.189 92.2589L327.701 89.285L323.887 92.4889L325.096 98.9014L319.585 100.201L311.908 108.268L305.463 109.321L305.955 111.755L301.304 111.463L301.017 113.596L306.04 117.036L306.099 123.619H291.582L292.558 137.448L303.211 138.604L309.448 134.044L309.853 129.97L315.106 127.026L316.581 123.619L320.65 124.632L326.138 122.291L334.455 128.789L338.814 133.667L337.504 136.671L342.54 131.385L339.622 128.588L334.658 124.459L331.913 120.79L332.926 118.796L338.324 123.302L344.271 127.113L345.398 131.993L347.737 133.985L349.642 137.974H351.607L353.079 136.152L351.924 132.887L350.771 130.808L353.108 129.625L357.816 129.97L361.338 129.221L360.996 126.639L361.829 123.273L364.63 118.623L367.632 116.747L370.435 120.961L374.938 120.326L373.67 117.554L379.473 115.39L378.693 118.191L378.81 121.193L383.69 124.544L385.623 127.23L381.407 129.048L374.017 127.403L369.511 127.084L357.323 132.223L362.898 139.038L369.768 139.792L375.053 138.057L373.55 145.246L371.814 149.706L372.654 155.815L377.594 162.86L383.771 172.504L387.381 180.274L388.77 185.357L397.546 183.333L407.25 178.077L414.726 173.685L419.031 167.134L414.034 164.017L412.618 160.492L407.685 163.613L402.109 161.82L397.609 155.088L398.613 151.769L401.1 152.406L406.616 158.009L409.791 158.845L412.304 157.892L397.609 60.4379Z" fill="#CCC9C0"/>
<path d="M372.655 155.816L372.007 156.957H371.333L368.962 153.712L372.305 160.898L374.451 164.482L375.334 166.812L377.296 170.803L377.916 174.245L380.074 176.176L381.494 180.421L385.338 183.108L388.655 186.427L388.021 187.785L390.367 189.843L400.956 188.164L402.5 187.317L403.211 188.97L401.048 194.533L382.448 215.334L381.237 221.715L383.488 228.936L383.721 237.023L381.179 240.717L373.034 246.403L374.391 252.037L373.297 255.674L369.573 257.378L366.941 265.174L359.06 273.695L352.447 274.705L348.374 275.571L342.6 274.877L342.138 269.767L336.102 257.609L334.456 249.898L329.832 242.766L331.774 234.939L334.286 230.148L331.048 218.426L325.679 210.454L327.007 203.381L324.614 200.864L319.527 200.838L317.597 198.039L312.149 197.974L302.404 199.771L293.83 201.04L278.406 186.109L279.391 174.387L279.631 166.003L283.585 159.531L289.467 154.435L292.182 147.475L296.309 144.414L298.592 140.459L305.031 142.278L316.782 138.262L327.094 137.338L329.551 142.333L328.567 145.075L340.895 150.276L345.833 151.172L346.066 148.226L350.481 146.985L360.561 150.187L368.569 150.041L371.814 149.707L372.655 155.816Z" fill="#CCC9C0"/>
<path d="M390.583 240.118L390.541 246.107L388.598 250.235L389.962 256.435L394.465 256.76L397.397 250.196L399.131 244.991L400.66 239.585L399.627 231.981L396.501 235.615L390.583 240.118Z" fill="#CCC9C0"/>
<path d="M177.515 259.878L175.982 276.409L173.257 282.603L173.215 290.532L175.03 292.562L172.513 304.62L171.772 310.77L174.866 315.277L179.864 321.8L188.497 322.13L183.211 317.171L181.722 313.58L186.638 306.602L185.19 302.47L187.958 298.006L190.188 292.643L189.818 289.212L194.487 286.238L201.879 284.131L204.356 280.165L202.623 275.626L208.858 276.531L215.426 269.018L219.845 260.466L219.391 256.831L221.814 254.561L227.649 252.658L231.116 252.413L234.96 247.123L237.275 239.071L237.398 233.042L239.794 230.852L242.354 228.087L244.502 224.865L243.224 219.001L238.718 216.77L232.319 214.784L226.908 213.505L223.354 211.484L220.461 210.696L217.574 209.994L215.922 205.826L210.678 199.42L203.982 198.637L193.618 190.873L187.299 190.087L182.838 189.223L177.962 186.497L171.522 189.179L167.023 194.499L166.524 201.217L163.614 206.278L159.855 211.329L160.348 213.902C160.348 213.902 159.005 218.439 159.253 218.854C159.501 219.268 167.389 232.319 167.389 232.319L169.869 237.296L174.742 240.149L178.872 243.532C178.872 243.532 179.123 253.524 179.119 254.395C179.114 255.267 177.515 259.878 177.515 259.878Z" fill="#CCC9C0"/>
<path d="M166.855 196.725L167.416 194.032L163.891 191.233L161.822 191.094L159.879 192.004L157.966 192.141L155.46 189.609L154.386 187.998L154.593 185.52L155.456 181.674L154.428 180.277L152.811 178.629L149.973 179.167L145.804 179.595L145.536 178.629L146.41 176.675L146.034 175.489L146.332 173.664L147.284 173.293L147.491 171.145L149.086 168.988L148.357 168.256L144.969 168.379L142.696 169.002L141.792 171.061L140.946 174.192L136.709 174.409C136.709 174.409 135.183 175.325 134.769 174.866C134.356 174.409 131.673 172.303 131.673 172.303L129.397 168.529L128.656 165.904L129.122 162.968L129.815 159.922L128.987 157.301L111.391 163.569L114.241 166.914L114.716 169.801L115.089 172.489C115.089 172.489 119.834 174.964 120.331 175.214C120.83 175.464 127.858 178.65 128.356 178.843C128.854 179.034 132.107 179.407 132.107 179.407L134.457 178.558L137.493 180.293L138.909 182.01C138.909 182.01 142.115 182.981 142.883 183.351C143.651 183.721 147.244 184.198 147.244 184.198L150.705 188.258L150.691 190L152.406 190.828L153.559 191.156L154.696 192.728L156.411 193.304L158.31 193.904L159.738 194.997L161.083 194.795L160.706 193.639L162.007 192.272L163.784 192.416L166.855 196.725Z" fill="#CCC9C0"/>
<path d="M128.989 157.301L130.268 155.196L133.67 153.893L136.283 152.088C136.283 152.088 140.086 152.497 140.258 152.587C140.431 152.676 143.068 153.179 143.317 153.292C143.567 153.405 144.625 153.357 144.625 153.357L142.886 151.165C142.886 151.165 144.497 151.006 144.858 151.014C145.22 151.022 148.979 150.943 148.979 150.943L151.256 151.836L151.952 152.469L154.222 151.889C154.222 151.889 156.135 153.722 156.249 153.919C156.363 154.116 156.248 156.518 156.248 156.518L157.809 158.852L158.301 159.922L159.138 160.317L159.589 161.112C159.589 161.112 160.219 161.67 160.33 161.558C160.441 161.448 161.363 159.741 161.363 159.741L159.991 154.753L158.85 149.282L166.727 142.324L169.285 138.892L168.061 136.447L168.555 132.354L169.051 135.123L170.665 134.365L172.753 130.016L178.054 127.273L178.756 123.476L184.867 120.211L190.819 118.814L186.812 122.824L195.321 119.437L199.445 118.436L189.977 115.881L188.092 109.773L189.078 107.664L200.934 105.022L205.602 103.494L194.451 91.3129L189.743 81.9341L185.321 86.7141L180.822 85.8596L180.039 81.685L176.939 78.3243L165.788 75.4911L165.084 84.9081L163.561 87.3049L166.82 88.1311L167.484 93.1663L162.484 95.8972L163.847 103.04L158.7 102.42L156.866 97.0123L153.685 94.8631L138.24 89.0391L134.237 84.1208C134.237 84.1208 136.383 77.022 137.044 76.7728C137.705 76.5229 142.827 72.1885 142.827 72.1885L147.613 69.1718L149.43 63.6811L155.669 63.8041L158.355 60.1684L156.826 57.6515L158.519 55.1285L152.322 53.1475L151.043 56.7397L148.69 61.0779L146.459 56.246L142.329 54.965L138.407 53.0642L135.102 45.96L138.57 43.359L142.204 39.6415L133.945 38.5264L132.954 44.1042L130.681 50.1308L136.011 55.6658L132.828 60.416L123.744 59.5913L112.343 56.3308C112.343 56.3308 105.776 58.5587 104.291 59.2176C102.806 59.8772 87.5623 54.4284 87.5623 54.4284L77.7739 54.2641L72.6538 50.4204L62.1225 54.7586L24.4936 49.8434L12.0905 50.4541L6.6716 54.8817L2.30744 56.4141L5.31038 59.3834L9.5813 62.2343L12.6844 63.3708L7.20738 64.8359L2.02769 65.1891L0 66.9019L2.15228 68.5757L10.0414 69.567L12.6844 69.1122L12.7425 71.8752L5.477 74.5647L3.20014 78.4031L6.44613 82.4699L9.77314 81.685L11.982 85.9651L19.9292 85.8374L5.10784 95.8406L6.15799 97.1277L26.2507 86.4604L27.6945 82.7588C27.6945 82.7588 30.4888 84.6023 30.8159 84.5175C31.143 84.4327 36.0399 81.7072 36.0399 81.7072L36.8233 79.3332C36.8233 79.3332 46.7952 82.2039 48.7992 82.7818C50.8039 83.3596 60.843 89.9081 60.843 89.9081L71.807 100.664L80.4612 116.727L80.2112 130.773C80.2112 130.773 85.1838 139.448 85.7654 140.437C86.3471 141.426 91.9639 144.627 91.9639 144.627L95.3253 150.972C95.3253 150.972 98.8977 157.702 100.304 158.509C101.71 159.314 106.768 165.737 106.768 165.737L102.287 157.067L98.5469 152.222L98.6936 148.743L111.393 163.569L128.989 157.301Z" fill="#CCC9C0"/>
<path d="M184.148 31.224C184.148 31.224 192.868 29.9966 193.713 30.1051C194.559 30.2136 201.93 33.8395 201.93 33.8395C201.93 33.8395 208.671 42.8239 208.671 44.1545C208.671 45.4859 210.875 61.9284 210.875 61.9284L217.8 75.9556L225.055 80.5773L229.206 81.3661L234.594 68.5273L242.744 64.9191L249.978 59.0783L266.209 52.0345L271.585 39.279L269.726 28.6315L270.369 21.321L280.123 11.9652L286.481 8.62974L275.261 8.96068L269.067 9.75555L268.523 4.69434L256.464 0L238.702 0.233112L219.68 1.76248L193.857 10.2241L184.148 14.9054L176.539 21.8522L184.148 31.224Z" fill="#CCC9C0"/>
<path d="M80.5798 37.0801L77.9766 44.5152L83.2449 48.9153L87.768 45.4408L92.7261 50.7099L95.4218 55.0794C95.4218 55.0794 101.103 55.1512 103.76 55.0794C106.418 55.0075 114.725 53.6578 115.72 53.6226C116.714 53.5875 124.139 53.19 124.139 53.19L117.07 48.8916L114.87 44.2683L115.028 39.5274L109.729 41.5123L110.569 46.653L105.799 43.2457L98.5485 41.1041L92.7834 38.0706L85.0395 37.2047L80.5798 37.0801Z" fill="#CCC9C0"/>
<path d="M83.3086 29.9256C84.6721 29.7384 89.7173 32.4065 91.174 32.9935C92.63 33.5805 101.802 34.6039 101.802 34.6039L110.537 35.1924L111.392 29.9164L103.446 28.7807L103.906 23.3916L98.3936 23.5414L90.2454 26.2073L83.3086 29.9256Z" fill="#CCC9C0"/>
<path d="M113.582 25.5586C115.773 25.8062 121.285 32.8355 122.37 33.2406C123.454 33.6449 132.621 33.3965 132.621 33.3965L126.86 29.0881L119.537 27.5106L113.582 25.5586Z" fill="#CCC9C0"/>
<path d="M119.984 42.3496C120.821 42.0378 125.557 47.0868 125.557 47.0868L129.957 46.097L132.952 44.1045L128.286 38.4746L119.984 42.3496Z" fill="#CCC9C0"/>
<path d="M113.555 16.8184L114.007 22.8411L126.055 24.6586L122.243 19.6998L113.555 16.8184Z" fill="#CCC9C0"/>
<path d="M131.074 29.1512L136.216 30.5445L139.652 36.0612L159.075 37.0495L162.172 34.2628L153.189 32.4965L146.251 33.2081L140.333 28.782L132.87 26.1475L131.074 29.1512Z" fill="#CCC9C0"/>
<path d="M131.912 12.8274C131.912 12.8274 156.589 4.79538 157.24 4.44151C157.89 4.08764 170.435 2.2793 170.435 2.2793L183.985 2.78068L193.4 4.74341L196.123 5.61013L174.86 16.9493L168.314 24.0573L163.766 26.4259L164.165 29.8332L150.254 30.1519L145.383 29.6008L143.607 28.157L146.66 25.4843L143.607 24.0741L141.018 23.2647L132.406 17.1939L131.105 14.2521L131.912 12.8274Z" fill="#CCC9C0"/>
<path d="M127.668 20.9727L129.435 24.01L133.091 24.1002L133.769 22.2437L130.27 21.0025L127.668 20.9727Z" fill="#CCC9C0"/>
<path d="M146.625 39.3691L143.215 44.5779L144.52 50.5043C144.52 50.5043 152.458 52.2148 152.931 52.1322C153.405 52.0497 164.274 51.666 164.919 51.9725C165.562 52.279 171.302 57.5129 172.328 58.3552C173.354 59.1967 175.893 61.3291 175.893 61.3291C175.893 61.3291 171.868 64.9664 171.749 65.5503C171.631 66.1335 170.088 68.3263 170.088 68.3263L165.143 67.1997L164.775 69.4001L168.638 70.2875L172.047 69.647L175.517 71.9628L183.651 76.5463L186.606 77.2052L184.663 74.4392L181.896 71.9827L182.993 71.9972L186.13 73.6542L188.816 74.7678L188.341 69.4414L184.952 66.9016L184.037 64.4833L185.077 63.5364L188.98 67.1477L191.438 68.3469L195.898 63.4752L188.874 59.2181L185.28 57.8576L182.704 56.7211L183.962 55.2552L184.771 53.2703L177.477 48.151L173.51 47.9645L171.592 45.2604L168.336 43.0072L164.566 40.2229L159.741 39.6863L153.286 40.683L149.617 39.6863L146.625 39.3691Z" fill="#CCC9C0"/>
<path d="M149.802 65.6592L149.533 69.9813L148.293 71.6635L150.204 71.9975L152.101 71.1048L151.081 73.1998H152.947C152.947 73.1998 154.945 70.4995 155.482 70.9711C156.019 71.4419 159.263 72.8283 159.263 72.8283L161.39 71.9975L157.964 69.979L155.36 68.241L153.499 67.6831L149.802 65.6592Z" fill="#CCC9C0"/>
<path d="M165.965 59.6999L168.833 61.2751L170.427 60.0056L169.254 57.9932L166.178 58.237L165.965 59.6999Z" fill="#CCC9C0"/>
<path d="M154.184 75.6312L156.954 73.709L157.964 75.298L155.652 77.0612L154.184 75.6312Z" fill="#CCC9C0"/>
<path d="M125.469 55.6035L131.258 57.6159L132.998 56.7202L131.632 54.5809L133.027 54.1169L131.922 53.3534L129.99 53.9327L128.132 53.1279L125.469 55.6035Z" fill="#CCC9C0"/>
<path d="M200.068 112.579L203.289 106.386L206.14 104.9L205.531 106.32L204.613 108.367C204.613 108.367 210.315 111.341 210.48 111.672C210.643 112.002 211.305 114.687 211.305 114.687L210.31 115.967L205.934 114.978L202.796 113.821L199.449 113.694L200.068 112.579Z" fill="#CCC9C0"/>
<path d="M154.062 167.1L159.308 167.431L164.26 169.452L169.097 171.517L171.903 171.146L169.549 169.33L164.677 167.264L160.381 165.488L155.918 165.408H153.062L154.062 167.1Z" fill="#CCC9C0"/>
<path d="M165.789 175.771L168.269 175.278L167.388 174.192L164.469 174.577L165.789 175.771Z" fill="#CCC9C0"/>
<path d="M172.81 174.905C173.349 174.866 177.272 175.687 177.272 175.687L177.853 174.493L181.649 174.122L182.232 172.888L179.171 171.807L174.712 171.104L173.723 171.478L174.875 173.541L172.203 173.403L172.81 174.905Z" fill="#CCC9C0"/>
<path d="M265.273 66.5993L271.496 72.4844C271.496 72.4844 273.418 73.3649 274.021 73.4436C274.624 73.5215 278.958 71.85 278.958 71.85L284.24 68.7064L282.061 65.4673L279.1 64.0732L274.155 65.3588L270.768 66.9699L268.788 64.6977L266.804 64.1634L265.273 66.5993Z" fill="#CCC9C0"/>
<path d="M292.728 98.1875L290.602 98.2906L290.852 100.272L292.419 100.872L290.48 103.39L291.904 104.879L294.278 104.07L295.704 103.06L297.171 102.998L297.533 98.7278L299.093 97.7732L297.52 95.6316L295.352 95.4199L293.491 96.0428L292.728 98.1875Z" fill="#CCC9C0"/>
<path d="M300.07 86.667L297.965 91.6892C297.965 91.6892 299.418 94.2764 299.907 94.7487C300.395 95.2218 302.535 97.0638 302.535 97.0638L303.506 99.2023L301.356 100.966L299.902 103.846L303.324 104.88L299.543 107.844L311.7 105.86V104.07L312.725 102.35L309.937 100.704L306.933 96.8628L304.129 93.4723L305.845 89.5209L302.208 88.5311L303.108 86.9192L300.07 86.667Z" fill="#CCC9C0"/>
<path d="M324.02 130.123C324.156 130.46 324.788 133.511 324.788 133.511L327.089 133.618V128.595L324.02 130.123Z" fill="#CCC9C0"/>
<path d="M411.153 44.1136L419.539 36.2428L435.107 30.1673L434.53 28.2275L426.971 30.4196L417.306 32.153L408.303 40.6597L403.348 46.8964L410.163 51.0282L414.814 50.5948L411.008 46.7894L411.153 44.1136Z" fill="#CCC9C0"/>
<path d="M340.388 29.1843C340.791 28.3283 344.537 22.3958 344.537 22.3958L349.572 26.7004L354.652 25.0288L348.549 21.4037L345.051 19.3921L342.322 15.8916L336.316 16.766L329.25 17.314C329.25 17.314 330.089 21.4481 330.476 21.6682C330.863 21.8876 335.138 25.1687 335.138 25.1687L340.388 29.1843Z" fill="#CCC9C0"/>
<path d="M347.003 17.4088L352.671 19.4518L356.822 17.9362L358.958 15.8604L353.786 14.1865L347.003 13.9932H341.828L347.003 17.4088Z" fill="#CCC9C0"/>
<path d="M544.169 205.631L544.448 207.715L544.659 209.405L545.117 210.576L545.923 210.845L545.445 209.152V208.238L546.667 208.967L547.269 208.705L546.735 208.238L546.287 207.552L546.903 206.708V206.131L546.027 206.347L545.117 206.93V205.559V204.667L543.988 204.275L544.169 205.631Z" fill="#CCC9C0"/>
<path d="M545.415 215.23L548.302 215.529L550.316 216.583L550.675 216.01L550.098 215.101L548.302 214.384H545.446L544.793 214.92L545.415 215.23Z" fill="#CCC9C0"/>
<path d="M522.24 224.268L521.992 225.263L522.86 225.45C522.86 225.45 523.232 225.078 523.278 224.992C523.324 224.906 523.504 224.268 523.504 224.268L523.039 224.134L522.24 224.268Z" fill="#CCC9C0"/>
<path d="M523.775 224.512C523.842 224.496 524.505 224.444 524.505 224.444L525.354 224.949L524.869 225.783L524.23 226.017L523.696 225.694L523.281 224.992L523.775 224.512Z" fill="#CCC9C0"/>
<path d="M525.02 224.078L525.866 224.444L526.213 225.114L526.712 225.431L527.455 225.277L527.704 224.791V224.268L526.919 224.197H526.339L525.854 223.935L525.35 223.84L525.02 224.078Z" fill="#CCC9C0"/>
<path d="M527.426 226.391C527.441 226.495 527.704 227.254 527.704 227.254H528.374L529.404 227.618L530.248 227.913L531.039 227.591L530.553 226.974L530.102 226.391L529.48 226.187L528.562 226.155L527.426 226.391Z" fill="#CCC9C0"/>
<path d="M528.738 224.7L529.74 225.262C529.74 225.262 530.677 225.278 530.738 225.351C530.799 225.424 531.657 225.433 531.715 225.351C531.773 225.27 533.126 225.159 533.126 225.159L533.395 224.448L532.713 224.595L532.159 224.7L531.747 224.595L531.552 224.268L530.761 224.134L529.894 224.206L528.738 224.7Z" fill="#CCC9C0"/>
<path d="M534.288 224.198L533.91 224.791L534.099 224.992L534.752 224.594L535.136 224.7L535.277 224.198L534.953 223.84L534.288 224.198Z" fill="#CCC9C0"/>
<path d="M535.781 224.341H537.02L537.596 223.935L538.505 223.84L538.858 224.123L538.427 224.635H537.801L536.908 224.771L535.909 224.7L535.781 224.341Z" fill="#CCC9C0"/>
<path d="M540.56 222.916L540.18 223.554L541.366 223.584L542.197 223.396L542.097 222.799L540.56 222.916Z" fill="#CCC9C0"/>
<path d="M541.496 215.26L542.006 216.051L543.012 216.295L543.992 216.029L543.664 215.056L542.502 214.771L541.496 215.26Z" fill="#CCC9C0"/>
<path d="M535.491 211.057L535.148 211.972L536.11 211.884L536.53 211.515V211.057H535.491Z" fill="#CCC9C0"/>
<path d="M530.443 175.201L531.983 173.718L533.475 176.624L532.05 180.25L532.858 183.038L530.719 183.255L529.639 181.705L529.016 178.855L530.091 178.486L531.068 176.676L530.443 175.201Z" fill="#CCC9C0"/>
<path d="M533.009 197.07L534.466 194.778L536.883 194.747L536.819 197.284L539.02 198.773L539.731 196.105L541.561 195.737L540.477 190.998L536.605 193.939C536.605 193.939 535.37 193.429 534.952 193.411C534.532 193.393 532.59 194.948 532.59 194.948L533.009 197.07Z" fill="#CCC9C0"/>
<path d="M525.005 193.007C525.574 192.7 527.539 190.558 527.539 190.558L528.63 189.729L528.502 188.284L527.226 189.645L525.018 191.525L523.5 193.411L525.005 193.007Z" fill="#CCC9C0"/>
<path d="M532.918 185.608L533.229 187.744L532.855 189.512L534.248 189.018L535.303 187.776L532.918 185.608Z" fill="#CCC9C0"/>
<path d="M537.289 185.794L538.063 187.25L537.442 188.241L537.91 189.047L538.371 190.532L539.672 189.697L538.867 188.49L539.672 187.743L539.642 186.414L539.069 184.928L537.289 185.794Z" fill="#CCC9C0"/>
<path d="M534.43 190.998L535.147 189.512L536.421 188.676L537.008 190.288L535.644 191.276L534.43 190.998Z" fill="#CCC9C0"/>
<path d="M534.039 184.245L535.307 185.766L535.805 186.784H536.7L536.578 184.588H537.404L537.602 183.161H536.051L533.945 182.947L534.039 184.245Z" fill="#CCC9C0"/>
<path d="M530.004 183.996L530.994 186.784L532.05 186.103L531.867 184.4L530.004 183.996Z" fill="#CCC9C0"/>
<path d="M616.191 300.571L623.693 293.775L626.899 288.566L630.618 289.713L627.246 295.668L624.528 298.4L622.306 301.462L618.556 301.823L616.191 300.571Z" fill="#CCC9C0"/>
<path d="M627.605 275.597L631.172 280.707L629.864 285.996L632.099 287.809V290.227L633.509 290.548L635.816 287.219L635.809 285.647L637.212 284.986L638.531 283.085L638.674 281.804L637.502 281.626L636.438 282.425L635.284 283.072L633.598 281.448L632.991 280.04L631.26 276.921L629.07 275.945L627.605 275.597Z" fill="#CCC9C0"/>
<path d="M556.016 219.956L557.36 218.881L557.793 220.646L556.923 222.044L556.016 219.956Z" fill="#CCC9C0"/>
<path d="M529.853 164.485L531.339 162.035L532.578 161.632L532.516 163.862L532.05 165.719L531.06 167.826L529.477 166.053L529.853 164.485Z" fill="#CCC9C0"/>
<path d="M455.442 192.28C455.239 192.339 455.442 197.122 455.442 197.122C455.442 197.122 457.339 198.214 457.439 198.205C457.537 198.195 459.155 196.278 459.155 196.278C459.155 196.278 459.035 194.573 458.991 194.469C458.946 194.366 457.867 192.072 457.867 192.072L456.062 190.734L455.442 192.28Z" fill="#CCC9C0"/>
<path d="M438.044 166.099L435.75 167.425C435.75 167.425 437.194 168.93 437.339 169.159C437.485 169.388 439.361 170.313 439.361 170.313L441.336 169.346L441.861 167.386L438.044 166.099Z" fill="#CCC9C0"/>
<path d="M137.528 115.206C134.608 115.206 132.242 117.549 132.242 120.44C132.242 121.327 132.465 122.163 132.86 122.896L134.982 128.203L137.251 133.873C137.351 134.124 137.705 134.124 137.806 133.873L140.074 128.203L142.196 122.896C142.592 122.163 142.814 121.327 142.814 120.44C142.814 117.549 140.448 115.206 137.528 115.206ZM137.528 122.056C136.477 122.056 135.625 121.204 135.625 120.153C135.625 119.102 136.477 118.251 137.528 118.251C138.579 118.251 139.431 119.102 139.431 120.153C139.431 121.204 138.579 122.056 137.528 122.056Z" fill="#F61C20"/>
<path d="M509.607 202.655C506.688 202.655 504.32 204.999 504.32 207.89C504.32 208.777 504.543 209.612 504.939 210.345L507.061 215.653L509.33 221.323C509.43 221.573 509.784 221.573 509.884 221.323L512.153 215.653L514.275 210.345C514.67 209.612 514.894 208.777 514.894 207.89C514.894 204.999 512.527 202.655 509.607 202.655ZM509.607 209.506C508.556 209.506 507.704 208.654 507.704 207.603C507.704 206.552 508.556 205.7 509.607 205.7C510.658 205.7 511.51 206.552 511.51 207.603C511.51 208.654 510.658 209.506 509.607 209.506Z" fill="#F61C20"/>
<path d="M138.145 138.113C158.415 135.088 179.457 135.763 199.003 141.816C218.551 147.869 236.529 159.506 248.444 175.809C271.823 207.793 266.372 259.105 299.39 281.559C369.052 328.934 504.361 235.047 510.684 225.163" stroke="#F61C20" stroke-width="2.29291" stroke-miterlimit="10" stroke-linecap="round" stroke-dasharray="3.82 7.64"/>
</svg>
