<svg width="49" height="35" viewBox="0 0 49 35" fill="none" xmlns="http://www.w3.org/2000/svg">
<path d="M20.4941 24.1797L31.994 17.6797L20.4941 11.1797V24.1797Z" stroke="white" stroke-width="3.99995" stroke-linecap="round" stroke-linejoin="round"/>
<path d="M46.0748 6.91474C45.8372 5.9938 45.3533 5.15 44.6721 4.46857C43.9908 3.78713 43.1363 3.2922 42.1948 3.03376C38.7548 2.21875 24.995 2.21875 24.995 2.21875C24.995 2.21875 11.2352 2.21875 7.79523 3.11138C6.85373 3.36982 5.9992 3.86475 5.31795 4.54619C4.6367 5.22762 4.15285 6.07142 3.91527 6.99236C3.28571 10.3796 2.97776 13.8157 2.99528 17.2576C2.97284 20.7253 3.28082 24.1876 3.91527 27.6004C4.17719 28.4927 4.67188 29.3044 5.35154 29.9571C6.03121 30.6097 6.87288 31.0813 7.79523 31.3261C11.2352 32.2188 24.995 32.2187 24.995 32.2187C24.995 32.2187 38.7548 32.2188 42.1948 31.3261C43.1363 31.0677 43.9908 30.5727 44.6721 29.8913C45.3533 29.2099 45.8372 28.3661 46.0748 27.4451C46.6995 24.0834 47.0074 20.6735 46.9947 17.2576C47.0172 13.7898 46.7092 10.3275 46.0748 6.91474V6.91474Z" stroke="white" stroke-width="3.99995" stroke-linecap="round" stroke-linejoin="round"/>
</svg>
