<svg width="24" height="24" viewBox="0 0 24 24" fill="none" xmlns="http://www.w3.org/2000/svg">
<g clip-path="url(#clip0_2241_760)">
<path d="M14.6383 8.96411C14.1298 8.96411 13.7533 9.09236 13.4586 9.25436C13.4113 9.08636 13.2561 8.96336 13.0731 9.00011H10.8351C10.6138 8.96336 10.4346 9.14261 10.5028 9.37511V17.6251C10.4346 17.8351 10.6138 18.0151 10.8351 18.0001H13.0731C13.2943 18.0151 13.4736 17.8351 13.4736 17.6139L13.4728 12.6279C13.4721 12.6256 13.4638 12.3871 13.6146 12.2229C13.7353 12.0924 13.9431 12.0256 14.2303 12.0256C14.7088 12.0256 14.9218 12.2214 15.0013 12.6594V17.6139C14.9226 17.8351 15.1018 18.0151 15.3231 18.0001H17.6818C17.9031 18.0151 18.0823 17.8351 18.0028 17.6139V12.4929C18.0816 9.88886 16.2268 8.96411 14.6383 8.96411V8.96411ZM17.2806 17.2501H15.7236V12.6594C15.7236 11.7736 15.1513 11.2246 14.2311 11.2246C13.7106 11.2246 13.3056 11.3776 13.0266 11.6791C12.6388 12.0991 12.6688 12.6316 12.7521 12.7501V17.2501H11.2356V9.76511H12.6726V10.0171C12.672 10.0922 12.6926 10.1659 12.732 10.2298C12.7714 10.2937 12.8281 10.3451 12.8954 10.3783C12.9628 10.4114 13.0382 10.4249 13.1128 10.4171C13.1875 10.4093 13.2585 10.3806 13.3176 10.3344L13.4226 10.2534C13.7263 10.0141 14.0406 9.76586 14.6391 9.76586C15.2586 9.76586 17.2813 9.96311 17.2813 12.4936V17.2501H17.2806ZM8.25206 5.22461C7.41056 5.22461 6.72656 5.90861 6.72656 6.75011C6.72656 7.59161 7.41056 8.27561 8.25206 8.27561C9.09356 8.27561 9.77756 7.59161 9.77756 6.75011C9.77756 5.90861 9.09356 5.22461 8.25206 5.22461ZM8.25206 7.47461C7.85306 7.47461 7.52756 7.14911 7.52756 6.75011C7.52756 6.35111 7.85306 6.02561 8.25206 6.02561C8.65106 6.02561 8.97656 6.35111 8.97656 6.75011C8.97656 7.14911 8.65106 7.47461 8.25206 7.47461ZM9.32306 8.96336H7.09706C6.87581 8.96336 6.69656 9.14261 6.75206 9.37511V17.6251C6.69656 17.8351 6.87581 18.0151 7.09706 18.0001H9.32306C9.54431 18.0151 9.72356 17.8351 9.72356 17.6139V9.36386C9.72356 9.25764 9.68137 9.15577 9.60626 9.08066C9.53115 9.00555 9.42928 8.96336 9.32306 8.96336ZM9.00206 17.2501H7.49756V9.76511H9.00206V17.2501Z" fill="black"/>
<path d="M12.0021 -0.0253906C5.37056 -0.0253906 -0.0234375 5.36861 -0.0234375 12.0001C-0.0234375 18.6316 5.37056 24.0256 12.0021 24.0256C18.6336 24.0256 24.0276 18.6316 24.0276 12.0001C24.0276 5.36861 18.6336 -0.0253906 12.0021 -0.0253906ZM12.0021 23.2246C5.81306 23.2246 0.777563 18.1891 0.777563 12.0001C0.777563 5.81111 5.81306 0.775609 12.0021 0.775609C18.1911 0.775609 23.2266 5.81111 23.2266 12.0001C23.2266 18.1891 18.1911 23.2246 12.0021 23.2246Z" fill="black"/>
</g>
<defs>
<clipPath id="clip0_2241_760">
<rect width="24" height="24" fill="white"/>
</clipPath>
</defs>
</svg>
