<svg width="33" height="23" viewBox="0 0 33 23" fill="none" xmlns="http://www.w3.org/2000/svg">
<path d="M13.918 16.1375L21.5915 11.8002L13.918 7.46289V16.1375Z" stroke="white" stroke-width="2.66907" stroke-linecap="round" stroke-linejoin="round"/>
<path d="M30.9888 4.61789C30.8303 4.00337 30.5074 3.44033 30.0529 2.98562C29.5983 2.53092 29.0281 2.20066 28.3998 2.02821C26.1044 1.48438 16.9228 1.48438 16.9228 1.48438C16.9228 1.48438 7.74123 1.48438 5.44583 2.08C4.8176 2.25246 4.24739 2.58271 3.79281 3.03742C3.33822 3.49212 3.01536 4.05517 2.85684 4.66969C2.43674 6.92991 2.23125 9.22276 2.24295 11.5194C2.22798 13.8333 2.43348 16.1437 2.85684 18.4209C3.03161 19.0163 3.3617 19.558 3.81522 19.9935C4.26875 20.429 4.83037 20.7436 5.44583 20.907C7.74123 21.5026 16.9228 21.5026 16.9228 21.5026C16.9228 21.5026 26.1044 21.5026 28.3998 20.907C29.0281 20.7346 29.5983 20.4043 30.0529 19.9496C30.5074 19.4949 30.8303 18.9318 30.9888 18.3173C31.4057 16.0741 31.6112 13.7988 31.6027 11.5194C31.6177 9.20546 31.4122 6.89513 30.9888 4.61789V4.61789Z" stroke="white" stroke-width="2.66907" stroke-linecap="round" stroke-linejoin="round"/>
</svg>
