<svg width="33" height="33" viewBox="0 0 33 33" fill="none" xmlns="http://www.w3.org/2000/svg">
<path d="M16.9326 0C8.10207 0 0.917969 7.1841 0.917969 16.0146C0.917969 24.8451 8.10207 32.0292 16.9326 32.0292C25.7631 32.0292 32.9472 24.8451 32.9472 16.0146C32.9472 7.1841 25.7631 0 16.9326 0ZM27.521 7.38519C29.4261 9.71286 30.5798 12.6776 30.6099 15.9062C30.1589 15.8108 25.6365 14.8935 21.085 15.4659C20.7135 14.5592 20.3629 13.7616 19.8828 12.7787C24.9403 10.7138 27.2326 7.77529 27.521 7.38519V7.38519ZM26.0003 5.80336C25.7542 6.15381 23.6951 8.92143 18.8311 10.7446C16.5896 6.62624 14.1052 3.24302 13.7271 2.73676C18.065 1.69109 22.6362 2.81877 26.0003 5.80336V5.80336ZM11.117 3.65624C11.4777 4.15082 13.922 7.53823 16.1885 11.5673C9.79 13.2664 4.15434 13.242 3.54256 13.2339C4.42956 8.98917 7.29011 5.46131 11.117 3.65624ZM3.25365 16.0355C3.25365 15.8956 3.25643 15.7564 3.26062 15.6175C3.8591 15.6297 10.4879 15.7152 17.319 13.6708C17.7106 14.4372 18.0847 15.2151 18.428 15.9922C13.4816 17.3854 8.98753 21.386 6.77021 25.1816C4.58544 22.7566 3.25365 19.5488 3.25365 16.0355ZM8.53634 26.8268C9.96519 23.9059 13.843 20.1354 19.3578 18.2541C21.2782 23.2446 22.0724 27.4272 22.2758 28.6273C17.8775 30.5008 12.5886 29.9868 8.53634 26.8268V26.8268ZM24.5755 27.375C24.4353 26.5429 23.7072 22.5385 21.9181 17.622C26.2046 16.9358 29.9706 18.0591 30.4386 18.2067C29.8289 22.0129 27.6442 25.2999 24.5755 27.375Z" fill="white"/>
</svg>
