<svg width="36" height="32" viewBox="0 0 36 32" fill="none" xmlns="http://www.w3.org/2000/svg">
<path d="M28.6481 14H26.519V16H28.6481C29.4948 16.0008 30.3066 16.3171 30.9053 16.8796C31.504 17.442 31.8408 18.2046 31.8416 19V23H33.9706V19C33.969 17.6744 33.4076 16.4036 32.4098 15.4662C31.412 14.5289 30.0592 14.0016 28.6481 14ZM26.519 4C27.1507 4 27.7681 4.17595 28.2933 4.50559C28.8184 4.83524 29.2278 5.30377 29.4695 5.85195C29.7112 6.40013 29.7744 7.00333 29.6512 7.58527C29.528 8.16721 29.2238 8.70176 28.7772 9.12132C28.3306 9.54088 27.7615 9.8266 27.1421 9.94236C26.5226 10.0581 25.8805 9.9987 25.2969 9.77164C24.7134 9.54458 24.2146 9.16006 23.8637 8.66671C23.5128 8.17336 23.3255 7.59334 23.3255 7C23.3255 6.20435 23.6619 5.44129 24.2608 4.87868C24.8598 4.31607 25.672 4 26.519 4V4ZM26.519 2C25.4663 2 24.4373 2.29324 23.562 2.84265C22.6867 3.39206 22.0045 4.17295 21.6016 5.08658C21.1988 6.00021 21.0933 7.00555 21.2987 7.97545C21.5041 8.94536 22.011 9.83627 22.7554 10.5355C23.4998 11.2348 24.4482 11.711 25.4806 11.9039C26.5131 12.0969 27.5833 11.9978 28.5559 11.6194C29.5285 11.241 30.3597 10.6001 30.9446 9.77785C31.5294 8.95561 31.8416 7.98891 31.8416 7C31.8416 5.67392 31.2808 4.40215 30.2827 3.46447C29.2845 2.52678 27.9307 2 26.519 2V2ZM25.4545 30H23.3255V28C23.3246 27.2046 22.9879 26.442 22.3892 25.8796C21.7905 25.3171 20.9787 25.0008 20.1319 25H15.8739C15.0271 25.0008 14.2153 25.3171 13.6166 25.8796C13.0179 26.442 12.6812 27.2046 12.6803 28V30H10.5513V28C10.553 26.6744 11.1143 25.4036 12.1121 24.4662C13.1099 23.5289 14.4627 23.0016 15.8739 23H20.1319C21.543 23.0016 22.8959 23.5289 23.8937 24.4662C24.8915 25.4036 25.4528 26.6744 25.4545 28V30ZM18.0029 13C18.6345 13 19.252 13.1759 19.7771 13.5056C20.3023 13.8352 20.7116 14.3038 20.9534 14.8519C21.1951 15.4001 21.2583 16.0033 21.1351 16.5853C21.0119 17.1672 20.7077 17.7018 20.2611 18.1213C19.8145 18.5409 19.2454 18.8266 18.6259 18.9424C18.0064 19.0581 17.3643 18.9987 16.7808 18.7716C16.1972 18.5446 15.6985 18.1601 15.3476 17.6667C14.9966 17.1734 14.8094 16.5933 14.8094 16C14.8094 15.2044 15.1458 14.4413 15.7447 13.8787C16.3436 13.3161 17.1559 13 18.0029 13V13ZM18.0029 11C16.9502 11 15.9211 11.2932 15.0458 11.8427C14.1705 12.3921 13.4883 13.173 13.0855 14.0866C12.6826 15.0002 12.5772 16.0055 12.7826 16.9755C12.988 17.9454 13.4949 18.8363 14.2393 19.5355C14.9836 20.2348 15.932 20.711 16.9645 20.9039C17.997 21.0969 19.0672 20.9978 20.0398 20.6194C21.0123 20.241 21.8436 19.6001 22.4285 18.7779C23.0133 17.9556 23.3255 16.9889 23.3255 16C23.3255 14.6739 22.7647 13.4021 21.7665 12.4645C20.7684 11.5268 19.4145 11 18.0029 11ZM9.48677 14H7.35774C5.94662 14.0016 4.59378 14.5289 3.59597 15.4662C2.59816 16.4036 2.03685 17.6744 2.03516 19V23H4.16419V19C4.16503 18.2046 4.50177 17.442 5.10049 16.8796C5.69921 16.3171 6.51101 16.0008 7.35774 16H9.48677V14ZM9.48677 4C10.1184 4 10.7358 4.17595 11.261 4.50559C11.7862 4.83524 12.1955 5.30377 12.4372 5.85195C12.6789 6.40013 12.7422 7.00333 12.619 7.58527C12.4957 8.16721 12.1916 8.70176 11.7449 9.12132C11.2983 9.54088 10.7293 9.8266 10.1098 9.94236C9.49031 10.0581 8.8482 9.9987 8.26465 9.77164C7.68111 9.54458 7.18234 9.16006 6.83143 8.66671C6.48052 8.17336 6.29322 7.59334 6.29322 7C6.29322 6.20435 6.62968 5.44129 7.22859 4.87868C7.8275 4.31607 8.63979 4 9.48677 4V4ZM9.48677 2C8.43406 2 7.405 2.29324 6.5297 2.84265C5.65441 3.39206 4.9722 4.17295 4.56935 5.08658C4.16649 6.00021 4.06109 7.00555 4.26646 7.97545C4.47183 8.94536 4.97876 9.83627 5.72314 10.5355C6.46751 11.2348 7.41591 11.711 8.44839 11.9039C9.48087 12.0969 10.5511 11.9978 11.5236 11.6194C12.4962 11.241 13.3275 10.6001 13.9123 9.77785C14.4972 8.95561 14.8094 7.98891 14.8094 7C14.8094 5.67392 14.2486 4.40215 13.2504 3.46447C12.2522 2.52678 10.8984 2 9.48677 2V2Z" fill="black"/>
</svg>
