<svg width="31" height="29" viewBox="0 0 31 29" fill="none" xmlns="http://www.w3.org/2000/svg">
<path d="M20.808 10.0098C22.9316 10.0098 24.9683 10.8534 26.4699 12.355C27.9716 13.8567 28.8152 15.8933 28.8152 18.017V27.3587H23.4771V18.017C23.4771 17.3091 23.1959 16.6302 22.6953 16.1297C22.1948 15.6291 21.5159 15.3479 20.808 15.3479C20.1001 15.3479 19.4212 15.6291 18.9207 16.1297C18.4201 16.6302 18.1389 17.3091 18.1389 18.017V27.3587H12.8008V18.017C12.8008 15.8933 13.6444 13.8567 15.146 12.355C16.6477 10.8534 18.6843 10.0098 20.808 10.0098V10.0098Z" stroke="white" stroke-width="2.66907" stroke-linecap="round" stroke-linejoin="round"/>
<path d="M7.46705 11.1973H2.12891V27.2117H7.46705V11.1973Z" stroke="white" stroke-width="2.66907" stroke-linecap="round" stroke-linejoin="round"/>
<path d="M4.79798 7.34009C6.27206 7.34009 7.46705 6.14511 7.46705 4.67102C7.46705 3.19694 6.27206 2.00195 4.79798 2.00195C3.32389 2.00195 2.12891 3.19694 2.12891 4.67102C2.12891 6.14511 3.32389 7.34009 4.79798 7.34009Z" stroke="white" stroke-width="2.66907" stroke-linecap="round" stroke-linejoin="round"/>
</svg>
