<svg width="85" height="85" viewBox="0 0 85 85" fill="none" xmlns="http://www.w3.org/2000/svg">
<circle cx="42.5" cy="42.5" r="42.5" fill="white"/>
<path d="M43.0013 26.9987C45.9468 26.9987 48.3346 24.6109 48.3346 21.6654C48.3346 18.7198 45.9468 16.332 43.0013 16.332C40.0558 16.332 37.668 18.7198 37.668 21.6654C37.668 24.6109 40.0558 26.9987 43.0013 26.9987Z" fill="black"/>
<path d="M42.9987 59.0013H48.332V45.668H53.6654V35.0013C53.6654 32.06 51.2734 29.668 48.332 29.668H37.6654C34.724 29.668 32.332 32.06 32.332 35.0013V45.668H37.6654V59.0013H42.9987Z" fill="black"/>
<path d="M60.188 41.3652L57.8067 46.1359C61.9534 48.2026 64.332 50.9492 64.332 53.6692C64.332 58.7146 55.572 64.3359 42.9987 64.3359C30.4254 64.3359 21.6654 58.7146 21.6654 53.6692C21.6654 50.9492 24.044 48.2026 28.188 46.1359L25.8067 41.3652C19.7854 44.3679 16.332 48.8506 16.332 53.6692C16.332 62.6399 28.0467 69.6692 42.9987 69.6692C57.9507 69.6692 69.6654 62.6399 69.6654 53.6692C69.6654 48.8506 66.212 44.3679 60.188 41.3652Z" fill="black"/>
</svg>
