<svg width="196" height="196" viewBox="0 0 196 196" fill="none" xmlns="http://www.w3.org/2000/svg">
<circle cx="98" cy="98" r="98" fill="#C90000"/>
<path d="M29.4204 77H27.3172L17.625 91.2863H19.619L29.4204 77Z" fill="url(#paint0_linear_1893_759)"/>
<path d="M21.9461 91.2863L31.747 77H29.9212L20.1914 91.2863H21.9461Z" fill="url(#paint1_linear_1893_759)"/>
<path d="M24.161 91.2863L33.9619 77H32.1365L22.4062 91.2863H24.161Z" fill="url(#paint2_linear_1893_759)"/>
<path d="M26.4071 91.2863L36.208 77H34.3826L24.6523 91.2863H26.4071Z" fill="url(#paint3_linear_1893_759)"/>
<path d="M29.0085 91.2863L38.7007 77H36.8865L27.1562 91.2863H29.0085Z" fill="url(#paint4_linear_1893_759)"/>
<path d="M44.3893 101.727V84.7513H46.327H48.321H48.7482L39.0444 77.3574L38.0105 78.9125L41.4829 81.3505V91.2855H31.7999V93.7906H41.4829V100.846C33.3788 98.7043 22.502 98.4924 12 106.651C12 106.651 28.9498 95.3944 54.3736 106.651C54.3736 106.651 50.4572 103.807 44.3893 101.727Z" fill="url(#paint5_linear_1893_759)"/>
<path d="M37.6141 84.7734H35.8711V86.5165H37.6141V84.7734Z" fill="url(#paint6_linear_1893_759)"/>
<path d="M37.6141 84.7734H35.8711V86.5165H37.6141V84.7734Z" fill="url(#paint7_linear_1893_759)"/>
<path d="M39.7548 84.7734H38.0117V86.5165H39.7548V84.7734Z" fill="url(#paint8_linear_1893_759)"/>
<path d="M39.7548 84.7734H38.0117V86.5165H39.7548V84.7734Z" fill="url(#paint9_linear_1893_759)"/>
<path d="M37.6141 87.0273H35.8711V88.7709H37.6141V87.0273Z" fill="url(#paint10_linear_1893_759)"/>
<path d="M37.6141 87.0273H35.8711V88.7709H37.6141V87.0273Z" fill="url(#paint11_linear_1893_759)"/>
<path d="M39.7548 87.0273H38.0117V88.7709H39.7548V87.0273Z" fill="url(#paint12_linear_1893_759)"/>
<path d="M39.7548 87.0273H38.0117V88.7709H39.7548V87.0273Z" fill="url(#paint13_linear_1893_759)"/>
<path d="M66.6028 89.5166C65.5283 88.9187 64.4361 88.5219 63.3255 88.3263V98.3045H59.7002V88.3263C58.5653 88.5219 57.473 88.9187 56.4229 89.5166L55.2148 86.88C56.1059 86.343 57.0885 85.934 58.1624 85.6536C59.2486 85.3726 60.3657 85.2324 61.5129 85.2324C62.66 85.2324 63.7711 85.3726 64.8455 85.6536C65.9312 85.934 66.9198 86.343 67.8109 86.88L66.6028 89.5166ZM74.4417 94.8992H72.4639V98.3045H68.8396V85.4885H74.6977C75.8576 85.4885 76.8645 85.6841 77.719 86.0747C78.573 86.4527 79.2324 87.0024 79.6957 87.7223C80.16 88.4305 80.3917 89.2662 80.3917 90.2304C80.3917 91.1581 80.1722 91.9699 79.7328 92.6654C79.3055 93.3492 78.6893 93.8862 77.8836 94.2769L80.6482 98.3045H76.7669L74.4417 94.8992ZM76.7303 90.2304C76.7303 89.6325 76.5408 89.1686 76.1624 88.8389C75.7844 88.5097 75.223 88.3446 74.4783 88.3446H72.4639V92.0979H74.4783C75.223 92.0979 75.7844 91.9394 76.1624 91.6219C76.5408 91.2922 76.7303 90.8289 76.7303 90.2304ZM94.3107 85.4885V98.3045H90.7951V96.8399C90.3806 97.4012 89.8558 97.8285 89.2207 98.1216C88.5862 98.4142 87.8719 98.5611 87.0789 98.5611C85.565 98.5611 84.3873 98.0789 83.5455 97.1147C82.7032 96.1383 82.2821 94.7529 82.2821 92.9585V85.4885H85.9069V92.8488C85.9069 93.7521 86.108 94.4293 86.5109 94.8809C86.926 95.3325 87.4873 95.5581 88.1955 95.5581C88.9403 95.5581 89.5382 95.3142 89.9899 94.826C90.4537 94.3378 90.6854 93.6174 90.6854 92.6654V85.4885H94.3107ZM107.896 97.3342C107.237 97.7126 106.437 98.0119 105.497 98.2313C104.558 98.4513 103.581 98.5611 102.568 98.5611C101.201 98.5611 100.035 98.3959 99.0714 98.0667C98.1188 97.737 97.3989 97.2793 96.9107 96.6935C96.4347 96.1078 96.1965 95.4301 96.1965 94.6614C96.1965 93.9898 96.3799 93.398 96.7461 92.8854C97.1119 92.3728 97.6184 91.976 98.2657 91.6951C97.7653 91.439 97.3807 91.0849 97.1119 90.6333C96.8559 90.1694 96.7273 89.6629 96.7273 89.1138C96.7273 88.4056 96.9473 87.7588 97.3868 87.1731C97.8384 86.5873 98.5217 86.1174 99.4372 85.7633C100.353 85.4092 101.482 85.2324 102.824 85.2324C103.666 85.2324 104.497 85.3117 105.314 85.4702C106.132 85.6292 106.852 85.8426 107.475 86.1113L106.486 88.8206C105.351 88.3202 104.179 88.0703 102.971 88.0703C102.104 88.0703 101.457 88.1861 101.03 88.4178C100.603 88.6377 100.389 88.9492 100.389 89.3515C100.389 90.0841 100.921 90.4504 101.982 90.4504H105.607V93.2151H101.744C101.122 93.2151 100.652 93.3187 100.334 93.526C100.017 93.7216 99.8583 94.0142 99.8583 94.4049C99.8583 94.8199 100.09 95.1435 100.554 95.3752C101.018 95.6074 101.738 95.7232 102.714 95.7232C103.41 95.7232 104.124 95.6318 104.856 95.4484C105.601 95.2533 106.248 94.9906 106.797 94.6614L107.896 97.3342ZM120.651 85.2324C121.86 85.2324 122.921 85.4763 123.837 85.9645C124.764 86.4405 125.478 87.1426 125.979 88.0703C126.491 88.9857 126.748 90.0902 126.748 91.3841V98.3045H123.122V95.4666H118.124V98.3045H114.555V91.3841C114.555 90.0902 114.805 88.9857 115.305 88.0703C115.818 87.1426 116.532 86.4405 117.447 85.9645C118.374 85.4763 119.442 85.2324 120.651 85.2324ZM123.122 92.6654V91.0727C123.122 90.1329 122.896 89.4252 122.445 88.9492C121.994 88.4731 121.389 88.2349 120.633 88.2349C119.864 88.2349 119.253 88.4731 118.802 88.9492C118.35 89.4252 118.124 90.1329 118.124 91.0727V92.6654H123.122ZM135.589 98.5611C134.247 98.5611 133.039 98.2801 131.965 97.7187C130.902 97.1452 130.067 96.3516 129.456 95.3386C128.846 94.3256 128.541 93.178 128.541 91.8967C128.541 90.615 128.846 89.4679 129.456 88.4548C130.067 87.4413 130.902 86.6544 131.965 86.093C133.039 85.5189 134.247 85.2324 135.589 85.2324C136.761 85.2324 137.817 85.4397 138.757 85.8548C139.697 86.2698 140.478 86.8678 141.101 87.6491L138.794 89.7361C137.963 88.7353 136.957 88.2349 135.773 88.2349C135.077 88.2349 134.455 88.3873 133.905 88.6926C133.368 88.9979 132.947 89.4313 132.642 89.9926C132.349 90.5418 132.202 91.1763 132.202 91.8967C132.202 92.6166 132.349 93.2577 132.642 93.8191C132.947 94.3683 133.368 94.7955 133.905 95.1004C134.455 95.4057 135.077 95.5581 135.773 95.5581C136.957 95.5581 137.963 95.0577 138.794 94.0569L141.101 96.1444C140.478 96.9252 139.697 97.5237 138.757 97.9382C137.817 98.3533 136.761 98.5611 135.589 98.5611ZM157.712 85.2324C159.225 85.2324 160.403 85.6841 161.245 86.5873C162.099 87.4784 162.527 88.7719 162.527 90.4687V98.3045H158.901V90.5784C158.901 89.8092 158.7 89.2296 158.297 88.8389C157.894 88.4366 157.357 88.2349 156.686 88.2349C155.966 88.2349 155.392 88.4488 154.965 88.876C154.55 89.2906 154.343 89.9195 154.343 90.7613V98.3045H150.718V90.5784C150.718 89.8092 150.529 89.2296 150.15 88.8389C149.784 88.4366 149.277 88.2349 148.631 88.2349C147.935 88.2349 147.379 88.4488 146.964 88.876C146.55 89.2906 146.342 89.9195 146.342 90.7613V98.3045H142.717V85.4885H146.232V86.9165C146.623 86.3674 147.123 85.9523 147.733 85.6719C148.356 85.3787 149.076 85.2324 149.893 85.2324C150.736 85.2324 151.468 85.3848 152.091 85.6902C152.725 85.995 153.238 86.4405 153.629 87.0268C154.068 86.4405 154.642 85.995 155.35 85.6902C156.058 85.3848 156.845 85.2324 157.712 85.2324ZM176.016 97.3342C175.357 97.7126 174.558 98.0119 173.617 98.2313C172.678 98.4513 171.702 98.5611 170.688 98.5611C169.322 98.5611 168.156 98.3959 167.191 98.0667C166.239 97.737 165.519 97.2793 165.031 96.6935C164.555 96.1078 164.317 95.4301 164.317 94.6614C164.317 93.9898 164.5 93.398 164.866 92.8854C165.232 92.3728 165.739 91.976 166.386 91.6951C165.885 91.439 165.501 91.0849 165.232 90.6333C164.976 90.1694 164.848 89.6629 164.848 89.1138C164.848 88.4056 165.068 87.7588 165.507 87.1731C165.958 86.5873 166.642 86.1174 167.558 85.7633C168.473 85.4092 169.602 85.2324 170.945 85.2324C171.787 85.2324 172.617 85.3117 173.435 85.4702C174.252 85.6292 174.973 85.8426 175.595 86.1113L174.607 88.8206C173.471 88.3202 172.3 88.0703 171.091 88.0703C170.225 88.0703 169.578 88.1861 169.15 88.4178C168.723 88.6377 168.51 88.9492 168.51 89.3515C168.51 90.0841 169.041 90.4504 170.102 90.4504H173.728V93.2151H169.865C169.242 93.2151 168.772 93.3187 168.455 93.526C168.137 93.7216 167.979 94.0142 167.979 94.4049C167.979 94.8199 168.21 95.1435 168.675 95.3752C169.138 95.6074 169.858 95.7232 170.835 95.7232C171.53 95.7232 172.245 95.6318 172.977 95.4484C173.722 95.2533 174.369 94.9906 174.917 94.6614L176.016 97.3342Z" fill="white"/>
<path d="M15.6337 109.539C16.6274 109.539 17.4092 109.831 17.9787 110.416C18.5564 110.993 18.8449 111.829 18.8449 112.926V117.277H18.0448V115.019H13.2226V117.277H12.4336V112.926C12.4336 111.829 12.7186 110.993 13.2886 110.416C13.8657 109.831 14.6476 109.539 15.6337 109.539ZM18.0448 114.317V112.849C18.0448 111.994 17.8329 111.351 17.4092 110.92C16.9855 110.482 16.3937 110.263 15.6337 110.263C14.8737 110.263 14.2818 110.482 13.8581 110.92C13.4344 111.351 13.2226 111.994 13.2226 112.849V114.317H18.0448ZM27.4748 117.342C26.7153 117.342 26.0284 117.174 25.4147 116.838C24.8081 116.502 24.3296 116.038 23.979 115.446C23.6356 114.847 23.4639 114.179 23.4639 113.441C23.4639 112.703 23.6356 112.038 23.979 111.446C24.3296 110.847 24.8122 110.38 25.4259 110.043C26.0396 109.707 26.7259 109.539 27.486 109.539C28.056 109.539 28.5818 109.634 29.0639 109.824C29.5465 110.014 29.9555 110.292 30.2918 110.657L29.7767 111.172C29.1772 110.565 28.4212 110.263 27.5078 110.263C26.9017 110.263 26.35 110.401 25.8532 110.679C25.3563 110.957 24.9656 111.337 24.6806 111.819C24.4027 112.301 24.264 112.841 24.264 113.441C24.264 114.04 24.4027 114.58 24.6806 115.063C24.9656 115.545 25.3563 115.925 25.8532 116.203C26.35 116.48 26.9017 116.619 27.5078 116.619C28.4283 116.619 29.1848 116.312 29.7767 115.698L30.2918 116.213C29.9555 116.578 29.5425 116.86 29.0532 117.057C28.5711 117.247 28.0448 117.342 27.4748 117.342ZM33.9552 117.331C33.3999 117.331 32.8995 117.207 32.454 116.959C32.0084 116.703 31.6574 116.352 31.4018 115.906C31.1463 115.461 31.0183 114.957 31.0183 114.394C31.0183 113.832 31.1463 113.328 31.4018 112.882C31.6574 112.436 32.0084 112.089 32.454 111.841C32.8995 111.592 33.3999 111.468 33.9552 111.468C34.5105 111.468 35.0109 111.592 35.4569 111.841C35.9025 112.089 36.2494 112.436 36.4979 112.882C36.7534 113.328 36.8814 113.832 36.8814 114.394C36.8814 114.957 36.7534 115.461 36.4979 115.906C36.2494 116.352 35.9025 116.703 35.4569 116.959C35.0109 117.207 34.5105 117.331 33.9552 117.331ZM33.9552 116.64C34.3647 116.64 34.7299 116.55 35.051 116.367C35.3802 116.177 35.6357 115.91 35.8186 115.567C36.001 115.224 36.0925 114.832 36.0925 114.394C36.0925 113.956 36.001 113.565 35.8186 113.221C35.6357 112.878 35.3802 112.615 35.051 112.432C34.7299 112.242 34.3647 112.147 33.9552 112.147C33.5462 112.147 33.1774 112.242 32.8482 112.432C32.5271 112.615 32.2711 112.878 32.0811 113.221C31.8987 113.565 31.8072 113.956 31.8072 114.394C31.8072 114.832 31.8987 115.224 32.0811 115.567C32.2711 115.91 32.5271 116.177 32.8482 116.367C33.1774 116.55 33.5462 116.64 33.9552 116.64ZM45.6591 111.468C46.3826 111.468 46.9485 111.676 47.358 112.093C47.7741 112.509 47.9824 113.123 47.9824 113.934V117.277H47.2046V114.01C47.2046 113.411 47.0582 112.955 46.7661 112.641C46.4811 112.326 46.0757 112.169 45.5494 112.169C44.9504 112.169 44.4795 112.356 44.1361 112.728C43.7926 113.093 43.6209 113.601 43.6209 114.252V117.277H42.8426V114.01C42.8426 113.411 42.6963 112.955 42.4042 112.641C42.1192 112.326 41.7102 112.169 41.1768 112.169C40.585 112.169 40.114 112.356 39.763 112.728C39.4195 113.093 39.2483 113.601 39.2483 114.252V117.277H38.47V111.512H39.2153V112.564C39.4195 112.213 39.7045 111.943 40.0698 111.753C40.4351 111.563 40.8552 111.468 41.3302 111.468C41.8124 111.468 42.2289 111.57 42.5795 111.775C42.9376 111.979 43.2043 112.283 43.3796 112.684C43.5915 112.304 43.8948 112.009 44.2895 111.797C44.6913 111.577 45.1476 111.468 45.6591 111.468ZM53.0626 111.468C53.6032 111.468 54.0924 111.592 54.5313 111.841C54.9698 112.082 55.3127 112.425 55.5616 112.871C55.8095 113.316 55.9335 113.824 55.9335 114.394C55.9335 114.971 55.8095 115.483 55.5616 115.928C55.3127 116.374 54.9698 116.721 54.5313 116.97C54.1 117.21 53.6108 117.331 53.0626 117.331C52.5952 117.331 52.171 117.236 51.7915 117.046C51.4186 116.849 51.1118 116.564 50.871 116.191V119.402H50.0927V111.512H50.838V112.651C51.0717 112.272 51.3785 111.979 51.7585 111.775C52.1456 111.57 52.5805 111.468 53.0626 111.468ZM53.0078 116.64C53.4096 116.64 53.7749 116.55 54.1036 116.367C54.4328 116.177 54.6883 115.91 54.8712 115.567C55.0607 115.224 55.1557 114.832 55.1557 114.394C55.1557 113.956 55.0607 113.568 54.8712 113.233C54.6883 112.889 54.4328 112.622 54.1036 112.432C53.7749 112.242 53.4096 112.147 53.0078 112.147C52.5988 112.147 52.2295 112.242 51.9008 112.432C51.5797 112.622 51.3237 112.889 51.1337 113.233C50.9513 113.568 50.8598 113.956 50.8598 114.394C50.8598 114.832 50.9513 115.224 51.1337 115.567C51.3237 115.91 51.5797 116.177 51.9008 116.367C52.2295 116.55 52.5988 116.64 53.0078 116.64ZM62.7807 111.512V117.277H62.0349V116.137C61.8017 116.524 61.4908 116.82 61.1037 117.025C60.7237 117.229 60.2929 117.331 59.8108 117.331C59.2697 117.331 58.7805 117.207 58.3421 116.959C57.9036 116.71 57.5602 116.363 57.3123 115.918C57.0633 115.472 56.9394 114.964 56.9394 114.394C56.9394 113.824 57.0633 113.316 57.3123 112.871C57.5602 112.425 57.9036 112.082 58.3421 111.841C58.7805 111.592 59.2697 111.468 59.8108 111.468C60.2781 111.468 60.6983 111.567 61.0707 111.764C61.4507 111.954 61.7616 112.235 62.0024 112.608V111.512H62.7807ZM59.8763 116.64C60.2781 116.64 60.6399 116.55 60.9615 116.367C61.2901 116.177 61.5457 115.91 61.7286 115.567C61.9181 115.224 62.0136 114.832 62.0136 114.394C62.0136 113.956 61.9181 113.565 61.7286 113.221C61.5457 112.878 61.2901 112.615 60.9615 112.432C60.6399 112.242 60.2781 112.147 59.8763 112.147C59.4673 112.147 59.098 112.242 58.7693 112.432C58.4477 112.615 58.1922 112.878 58.0022 113.221C57.8198 113.565 57.7284 113.956 57.7284 114.394C57.7284 114.832 57.8198 115.224 58.0022 115.567C58.1922 115.91 58.4477 116.177 58.7693 116.367C59.098 116.55 59.4673 116.64 59.8763 116.64ZM67.8843 111.468C68.6078 111.468 69.1814 111.68 69.605 112.104C70.0359 112.52 70.2518 113.13 70.2518 113.934V117.277H69.474V114.01C69.474 113.411 69.3241 112.955 69.0244 112.641C68.7251 112.326 68.2974 112.169 67.7421 112.169C67.1213 112.169 66.628 112.356 66.2627 112.728C65.9046 113.093 65.7252 113.601 65.7252 114.252V117.277H64.9474V111.512H65.6927V112.575C65.9046 112.224 66.1967 111.954 66.5696 111.764C66.9491 111.567 67.3875 111.468 67.8843 111.468ZM77.5587 111.512V116.575C77.5587 117.554 77.3357 118.277 76.8902 118.745C76.4446 119.22 75.772 119.457 74.8738 119.457C74.3698 119.457 73.8913 119.377 73.4381 119.216C72.9921 119.063 72.6309 118.847 72.353 118.569L72.7477 117.978C72.9961 118.226 73.303 118.42 73.6682 118.559C74.0335 118.697 74.4242 118.767 74.8413 118.767C75.5058 118.767 75.995 118.595 76.3095 118.252C76.6235 117.916 76.7809 117.39 76.7809 116.674V116.005C76.5762 116.341 76.2948 116.6 75.9366 116.783C75.5861 116.966 75.1878 117.057 74.7422 117.057C73.9898 117.057 73.3944 116.849 72.956 116.433C72.5247 116.009 72.3093 115.391 72.3093 114.58V111.512H73.0876V114.504C73.0876 115.11 73.2374 115.571 73.5367 115.885C73.8364 116.199 74.2637 116.356 74.8189 116.356C75.4255 116.356 75.9036 116.173 76.2546 115.808C76.6052 115.435 76.7809 114.92 76.7809 114.262V111.512H77.5587ZM90.9793 109.539C91.8556 109.539 92.539 109.791 93.0282 110.295C93.5179 110.8 93.7628 111.53 93.7628 112.487V117.277H92.9626V112.509C92.9626 111.764 92.7726 111.205 92.3932 110.832C92.0203 110.453 91.5087 110.263 90.8584 110.263C90.1721 110.263 89.6345 110.463 89.2474 110.865C88.8603 111.26 88.6668 111.866 88.6668 112.684V117.277H87.8666V112.509C87.8666 111.764 87.6837 111.205 87.319 110.832C86.9532 110.453 86.4457 110.263 85.7954 110.263C85.1009 110.263 84.5568 110.463 84.1621 110.865C83.7755 111.26 83.5814 111.866 83.5814 112.684V117.277H82.7706V109.605H83.5489V110.887C83.7602 110.449 84.0747 110.116 84.4913 109.89C84.9079 109.656 85.4006 109.539 85.9706 109.539C86.5701 109.539 87.0812 109.667 87.5049 109.923C87.9362 110.171 88.2466 110.522 88.4366 110.975C88.6556 110.507 88.9843 110.153 89.4227 109.912C89.8688 109.663 90.3874 109.539 90.9793 109.539ZM101.298 111.512V117.277H100.553V116.137C100.319 116.524 100.009 116.82 99.6214 117.025C99.2414 117.229 98.8106 117.331 98.3279 117.331C97.7874 117.331 97.2976 117.207 96.8597 116.959C96.4213 116.71 96.0779 116.363 95.8294 115.918C95.581 115.472 95.4566 114.964 95.4566 114.394C95.4566 113.824 95.581 113.316 95.8294 112.871C96.0779 112.425 96.4213 112.082 96.8597 111.841C97.2976 111.592 97.7874 111.468 98.3279 111.468C98.7953 111.468 99.2155 111.567 99.5884 111.764C99.9684 111.954 100.279 112.235 100.52 112.608V111.512H101.298ZM98.3935 116.64C98.7953 116.64 99.157 116.55 99.4786 116.367C99.8073 116.177 100.063 115.91 100.246 115.567C100.436 115.224 100.531 114.832 100.531 114.394C100.531 113.956 100.436 113.565 100.246 113.221C100.063 112.878 99.8073 112.615 99.4786 112.432C99.157 112.242 98.7953 112.147 98.3935 112.147C97.9845 112.147 97.6157 112.242 97.287 112.432C96.9654 112.615 96.7099 112.878 96.5199 113.221C96.337 113.565 96.2455 113.956 96.2455 114.394C96.2455 114.832 96.337 115.224 96.5199 115.567C96.7099 115.91 96.9654 116.177 97.287 116.367C97.6157 116.55 97.9845 116.64 98.3935 116.64ZM105.602 114.383L104.243 115.633V117.277H103.465V109.145H104.243V114.657L107.684 111.512H108.649L106.183 113.868L108.879 117.277H107.926L105.602 114.383ZM112.277 116.64C112.635 116.64 112.964 116.579 113.264 116.455C113.57 116.323 113.83 116.133 114.042 115.885L114.48 116.388C114.225 116.695 113.906 116.93 113.527 117.09C113.147 117.251 112.726 117.331 112.266 117.331C111.675 117.331 111.149 117.207 110.688 116.959C110.228 116.703 109.87 116.352 109.614 115.906C109.358 115.461 109.231 114.957 109.231 114.394C109.231 113.832 109.351 113.328 109.592 112.882C109.841 112.436 110.18 112.089 110.612 111.841C111.043 111.592 111.532 111.468 112.08 111.468C112.591 111.468 113.052 111.585 113.461 111.819C113.877 112.052 114.206 112.378 114.447 112.794C114.696 113.21 114.827 113.685 114.842 114.219L110.107 115.139C110.254 115.607 110.517 115.976 110.896 116.246C111.284 116.509 111.744 116.64 112.277 116.64ZM112.08 112.136C111.678 112.136 111.316 112.231 110.995 112.421C110.681 112.604 110.433 112.863 110.25 113.2C110.074 113.528 109.987 113.908 109.987 114.339C109.987 114.449 109.991 114.529 109.998 114.58L114.064 113.791C113.976 113.309 113.753 112.915 113.396 112.608C113.037 112.294 112.598 112.136 112.08 112.136ZM117.971 117.331C117.503 117.331 117.054 117.265 116.623 117.134C116.199 116.995 115.867 116.823 115.626 116.619L115.976 116.005C116.217 116.195 116.52 116.352 116.886 116.476C117.251 116.593 117.631 116.652 118.026 116.652C118.552 116.652 118.939 116.571 119.187 116.41C119.443 116.243 119.571 116.009 119.571 115.709C119.571 115.497 119.502 115.333 119.362 115.216C119.224 115.092 119.048 115.001 118.837 114.942C118.625 114.876 118.343 114.814 117.993 114.756C117.525 114.668 117.149 114.58 116.864 114.493C116.579 114.398 116.334 114.241 116.13 114.022C115.933 113.802 115.834 113.499 115.834 113.112C115.834 112.63 116.035 112.235 116.436 111.929C116.838 111.622 117.397 111.468 118.113 111.468C118.486 111.468 118.858 111.519 119.231 111.622C119.604 111.717 119.91 111.844 120.151 112.005L119.812 112.63C119.337 112.301 118.77 112.136 118.113 112.136C117.616 112.136 117.24 112.224 116.985 112.399C116.736 112.575 116.612 112.805 116.612 113.09C116.612 113.309 116.681 113.485 116.82 113.616C116.966 113.748 117.145 113.846 117.357 113.912C117.569 113.97 117.861 114.032 118.234 114.098C118.694 114.186 119.063 114.274 119.34 114.361C119.618 114.449 119.856 114.599 120.053 114.811C120.25 115.022 120.349 115.315 120.349 115.687C120.349 116.191 120.137 116.593 119.713 116.893C119.297 117.185 118.716 117.331 117.971 117.331ZM130.3 116.4C129.985 116.699 129.565 116.933 129.039 117.101C128.521 117.262 127.943 117.342 127.307 117.342C126.635 117.342 126.062 117.251 125.587 117.068C125.119 116.885 124.765 116.633 124.524 116.312C124.29 115.991 124.173 115.621 124.173 115.205C124.173 114.745 124.308 114.354 124.579 114.032C124.856 113.711 125.218 113.488 125.663 113.364C125.299 113.225 125.013 113.006 124.809 112.706C124.604 112.399 124.502 112.042 124.502 111.632C124.502 111.245 124.612 110.895 124.831 110.58C125.057 110.259 125.393 110.007 125.839 109.824C126.292 109.634 126.836 109.539 127.472 109.539C127.94 109.539 128.393 109.594 128.831 109.704C129.276 109.806 129.657 109.956 129.971 110.153L129.718 110.8C129.046 110.42 128.309 110.23 127.504 110.23C126.796 110.23 126.252 110.365 125.872 110.635C125.499 110.905 125.313 111.256 125.313 111.687C125.313 112.119 125.463 112.451 125.762 112.684C126.069 112.918 126.501 113.035 127.055 113.035H128.963V113.737H127.023C126.394 113.737 125.898 113.857 125.532 114.098C125.167 114.332 124.984 114.683 124.984 115.15C124.984 115.611 125.182 115.976 125.576 116.246C125.978 116.517 126.566 116.652 127.34 116.652C127.881 116.652 128.385 116.575 128.853 116.422C129.321 116.268 129.7 116.056 129.993 115.786L130.3 116.4ZM136.295 111.512L133.731 117.277H132.931L130.377 111.512H131.188L133.348 116.422L135.528 111.512H136.295ZM139.697 116.64C140.054 116.64 140.384 116.579 140.683 116.455C140.99 116.323 141.249 116.133 141.461 115.885L141.899 116.388C141.644 116.695 141.326 116.93 140.946 117.09C140.566 117.251 140.146 117.331 139.685 117.331C139.094 117.331 138.568 117.207 138.108 116.959C137.647 116.703 137.289 116.352 137.033 115.906C136.778 115.461 136.65 114.957 136.65 114.394C136.65 113.832 136.77 113.328 137.012 112.882C137.26 112.436 137.6 112.089 138.031 111.841C138.462 111.592 138.951 111.468 139.5 111.468C140.011 111.468 140.471 111.585 140.88 111.819C141.296 112.052 141.625 112.378 141.866 112.794C142.115 113.21 142.246 113.685 142.261 114.219L137.526 115.139C137.673 115.607 137.936 115.976 138.316 116.246C138.703 116.509 139.163 116.64 139.697 116.64ZM139.5 112.136C139.097 112.136 138.735 112.231 138.414 112.421C138.1 112.604 137.852 112.863 137.669 113.2C137.493 113.528 137.406 113.908 137.406 114.339C137.406 114.449 137.41 114.529 137.417 114.58L141.483 113.791C141.395 113.309 141.172 112.915 140.814 112.608C140.456 112.294 140.018 112.136 139.5 112.136ZM144.59 112.641C144.773 112.254 145.043 111.961 145.401 111.764C145.766 111.567 146.215 111.468 146.749 111.468V112.224L146.563 112.213C145.956 112.213 145.482 112.399 145.138 112.772C144.795 113.145 144.623 113.667 144.623 114.339V117.277H143.845V111.512H144.59V112.641ZM153.438 111.512V116.575C153.438 117.554 153.215 118.277 152.769 118.745C152.324 119.22 151.652 119.457 150.753 119.457C150.249 119.457 149.77 119.377 149.317 119.216C148.872 119.063 148.51 118.847 148.233 118.569L148.627 117.978C148.876 118.226 149.182 118.42 149.547 118.559C149.913 118.697 150.304 118.767 150.72 118.767C151.385 118.767 151.875 118.595 152.189 118.252C152.503 117.916 152.66 117.39 152.66 116.674V116.005C152.455 116.341 152.174 116.6 151.816 116.783C151.466 116.966 151.067 117.057 150.621 117.057C149.869 117.057 149.274 116.849 148.836 116.433C148.404 116.009 148.188 115.391 148.188 114.58V111.512H148.967V114.504C148.967 115.11 149.117 115.571 149.416 115.885C149.716 116.199 150.143 116.356 150.698 116.356C151.305 116.356 151.783 116.173 152.134 115.808C152.485 115.435 152.66 114.92 152.66 114.262V111.512H153.438ZM158.456 116.925C158.309 117.057 158.13 117.16 157.919 117.232C157.707 117.298 157.484 117.331 157.25 117.331C156.71 117.331 156.293 117.185 156.001 116.893C155.708 116.6 155.562 116.188 155.562 115.654V110.252H156.341V111.512H158.083V112.169H156.341V115.611C156.341 115.954 156.424 116.217 156.593 116.4C156.76 116.575 157.006 116.663 157.327 116.663C157.678 116.663 157.962 116.564 158.182 116.367L158.456 116.925ZM162.803 111.468C163.527 111.468 164.1 111.68 164.523 112.104C164.955 112.52 165.17 113.13 165.17 113.934V117.277H164.392V114.01C164.392 113.411 164.243 112.955 163.943 112.641C163.643 112.326 163.216 112.169 162.661 112.169C162.039 112.169 161.546 112.356 161.181 112.728C160.823 113.093 160.644 113.601 160.644 114.252V117.277H159.866V109.145H160.644V112.52C160.856 112.184 161.148 111.924 161.521 111.742C161.893 111.559 162.321 111.468 162.803 111.468ZM167.283 111.512H168.061V117.277H167.283V111.512ZM167.677 110.252C167.516 110.252 167.382 110.197 167.272 110.087C167.162 109.978 167.107 109.846 167.107 109.693C167.107 109.546 167.162 109.419 167.272 109.309C167.382 109.199 167.516 109.145 167.677 109.145C167.838 109.145 167.974 109.199 168.083 109.309C168.192 109.411 168.247 109.536 168.247 109.682C168.247 109.843 168.192 109.978 168.083 110.087C167.974 110.197 167.838 110.252 167.677 110.252ZM173.163 111.468C173.886 111.468 174.46 111.68 174.884 112.104C175.315 112.52 175.53 113.13 175.53 113.934V117.277H174.752V114.01C174.752 113.411 174.602 112.955 174.303 112.641C174.003 112.326 173.576 112.169 173.02 112.169C172.399 112.169 171.907 112.356 171.541 112.728C171.183 113.093 171.004 113.601 171.004 114.252V117.277H170.226V111.512H170.971V112.575C171.183 112.224 171.475 111.954 171.848 111.764C172.228 111.567 172.666 111.468 173.163 111.468ZM183.001 111.512V116.575C183.001 117.554 182.76 118.277 182.278 118.745C181.803 119.22 181.083 119.457 180.119 119.457C179.586 119.457 179.078 119.377 178.595 119.216C178.121 119.063 177.733 118.847 177.434 118.569L177.828 117.978C178.106 118.226 178.442 118.42 178.837 118.559C179.239 118.697 179.659 118.767 180.097 118.767C180.828 118.767 181.365 118.595 181.708 118.252C182.051 117.916 182.223 117.39 182.223 116.674V115.939C181.982 116.305 181.664 116.582 181.27 116.772C180.883 116.962 180.451 117.057 179.976 117.057C179.436 117.057 178.942 116.94 178.497 116.707C178.059 116.465 177.711 116.133 177.456 115.709C177.207 115.278 177.083 114.792 177.083 114.252C177.083 113.711 177.207 113.229 177.456 112.805C177.711 112.381 178.059 112.052 178.497 111.819C178.935 111.585 179.429 111.468 179.976 111.468C180.466 111.468 180.908 111.567 181.303 111.764C181.697 111.961 182.015 112.246 182.256 112.619V111.512H183.001ZM180.053 116.367C180.469 116.367 180.846 116.279 181.182 116.103C181.518 115.921 181.777 115.669 181.96 115.348C182.15 115.026 182.245 114.661 182.245 114.252C182.245 113.842 182.15 113.481 181.96 113.167C181.777 112.845 181.518 112.597 181.182 112.421C180.853 112.239 180.477 112.147 180.053 112.147C179.637 112.147 179.26 112.235 178.924 112.411C178.595 112.586 178.336 112.834 178.146 113.156C177.963 113.477 177.872 113.842 177.872 114.252C177.872 114.661 177.963 115.026 178.146 115.348C178.336 115.669 178.595 115.921 178.924 116.103C179.26 116.279 179.637 116.367 180.053 116.367Z" fill="white"/>
<defs>
<linearGradient id="paint0_linear_1893_759" x1="17.625" y1="84.1434" x2="29.4204" y2="84.1434" gradientUnits="userSpaceOnUse">
<stop stop-color="#F4C635"/>
<stop offset="0.46875" stop-color="#F4C635"/>
<stop offset="0.989583" stop-color="#F4C635"/>
</linearGradient>
<linearGradient id="paint1_linear_1893_759" x1="20.1914" y1="84.1434" x2="31.747" y2="84.1434" gradientUnits="userSpaceOnUse">
<stop stop-color="#F5D636"/>
<stop offset="0.661458" stop-color="#F4C635"/>
</linearGradient>
<linearGradient id="paint2_linear_1893_759" x1="22.4062" y1="84.1434" x2="33.9619" y2="84.1434" gradientUnits="userSpaceOnUse">
<stop stop-color="#F5D636"/>
<stop offset="0.661458" stop-color="#F4C635"/>
</linearGradient>
<linearGradient id="paint3_linear_1893_759" x1="24.6523" y1="84.1434" x2="36.208" y2="84.1434" gradientUnits="userSpaceOnUse">
<stop stop-color="#F5D636"/>
<stop offset="0.661458" stop-color="#F4C635"/>
</linearGradient>
<linearGradient id="paint4_linear_1893_759" x1="27.1562" y1="84.1434" x2="38.7007" y2="84.1434" gradientUnits="userSpaceOnUse">
<stop stop-color="#F1792E"/>
<stop offset="0.364583" stop-color="#F3B234"/>
<stop offset="0.59375" stop-color="#F4C635"/>
</linearGradient>
<linearGradient id="paint5_linear_1893_759" x1="12.0005" y1="92.0044" x2="54.3736" y2="92.0044" gradientUnits="userSpaceOnUse">
<stop offset="0.213542" stop-color="#F29731"/>
<stop offset="0.75" stop-color="#F3B234"/>
<stop offset="0.979167" stop-color="#844CFB"/>
</linearGradient>
<linearGradient id="paint6_linear_1893_759" x1="35.8711" y1="85.6452" x2="37.6141" y2="85.6452" gradientUnits="userSpaceOnUse">
<stop stop-color="#F1792E"/>
<stop offset="0.2209" stop-color="#F29731"/>
<stop offset="0.4583" stop-color="#F3B234"/>
<stop offset="0.6756" stop-color="#F4C635"/>
<stop offset="0.8633" stop-color="#F5D235"/>
<stop offset="1" stop-color="#F5D636"/>
</linearGradient>
<linearGradient id="paint7_linear_1893_759" x1="36.1485" y1="84.6205" x2="41.3192" y2="93.5379" gradientUnits="userSpaceOnUse">
<stop stop-color="#F5F5F5"/>
<stop offset="0.2209" stop-color="#FAFAFA"/>
<stop offset="0.4583" stop-color="#F7F7F7"/>
<stop offset="0.6756" stop-color="#F4C635"/>
<stop offset="0.8633" stop-color="#F5D235"/>
<stop offset="1" stop-color="#F5D636"/>
</linearGradient>
<linearGradient id="paint8_linear_1893_759" x1="38.0112" y1="85.6452" x2="39.7548" y2="85.6452" gradientUnits="userSpaceOnUse">
<stop stop-color="#F1792E"/>
<stop offset="0.2209" stop-color="#F29731"/>
<stop offset="0.4583" stop-color="#F3B234"/>
<stop offset="0.6756" stop-color="#F4C635"/>
<stop offset="0.8633" stop-color="#F5D235"/>
<stop offset="1" stop-color="#F5D636"/>
</linearGradient>
<linearGradient id="paint9_linear_1893_759" x1="37.7506" y1="83.6924" x2="42.9223" y2="92.6113" gradientUnits="userSpaceOnUse">
<stop stop-color="white"/>
<stop offset="0.2209" stop-color="white"/>
<stop offset="0.4583" stop-color="white"/>
<stop offset="0.6756" stop-color="white"/>
<stop offset="0.8633" stop-color="white"/>
<stop offset="1" stop-color="white"/>
</linearGradient>
<linearGradient id="paint10_linear_1893_759" x1="35.8711" y1="87.8991" x2="37.6141" y2="87.8991" gradientUnits="userSpaceOnUse">
<stop stop-color="#F1792E"/>
<stop offset="0.2209" stop-color="#F29731"/>
<stop offset="0.4583" stop-color="#F3B234"/>
<stop offset="0.6756" stop-color="#F4C635"/>
<stop offset="0.8633" stop-color="#F5D235"/>
<stop offset="1" stop-color="#F5D636"/>
</linearGradient>
<linearGradient id="paint11_linear_1893_759" x1="35.1715" y1="85.1893" x2="40.3417" y2="94.1067" gradientUnits="userSpaceOnUse">
<stop stop-color="#F9F9F9"/>
<stop offset="0.2209" stop-color="#FCFCFC"/>
<stop offset="0.4583" stop-color="white"/>
<stop offset="0.6756" stop-color="#F4C635"/>
<stop offset="0.8633" stop-color="#F5D235"/>
<stop offset="1" stop-color="#F5D636"/>
</linearGradient>
<linearGradient id="paint12_linear_1893_759" x1="38.0112" y1="87.8991" x2="39.7548" y2="87.8991" gradientUnits="userSpaceOnUse">
<stop stop-color="#F1792E"/>
<stop offset="0.2209" stop-color="#F29731"/>
<stop offset="0.4583" stop-color="#F3B234"/>
<stop offset="0.6756" stop-color="#F4C635"/>
<stop offset="0.8633" stop-color="#F5D235"/>
<stop offset="1" stop-color="#F5D636"/>
</linearGradient>
<linearGradient id="paint13_linear_1893_759" x1="36.7731" y1="84.2611" x2="41.9444" y2="93.1791" gradientUnits="userSpaceOnUse">
<stop offset="0.2209" stop-color="white"/>
<stop offset="0.4583" stop-color="white"/>
<stop offset="0.6756" stop-color="#E7E0CB"/>
<stop offset="0.8633" stop-color="white"/>
<stop offset="1" stop-color="white"/>
</linearGradient>
</defs>
</svg>
