<svg width="63" height="61" viewBox="0 0 63 61" fill="none" xmlns="http://www.w3.org/2000/svg">
<ellipse cx="31.5" cy="30.0349" rx="31.5" ry="30.0349" fill="white"/>
<g clip-path="url(#clip0_1257_748)">
<path d="M41.375 21.1523C41.1171 20.9855 40.8222 20.8845 40.5162 20.8584C40.2102 20.8322 39.9024 20.8816 39.62 21.0023L30.365 24.6473C30.1459 24.7365 29.9116 24.7823 29.675 24.7823H23.75C23.2527 24.7823 22.7758 24.9798 22.4242 25.3315C22.0725 25.6831 21.875 26.16 21.875 26.6573V26.8073H20V31.3073H21.875V31.5023C21.8867 31.9917 22.0895 32.4572 22.4398 32.7991C22.7902 33.1411 23.2604 33.3324 23.75 33.3323L26 38.1023C26.1524 38.4235 26.3922 38.6952 26.692 38.8863C26.9919 39.0773 27.3395 39.1799 27.695 39.1823H28.64C29.1347 39.1783 29.6077 38.979 29.9561 38.6278C30.3045 38.2766 30.5 37.802 30.5 37.3073V33.5123L39.62 37.1573C39.8443 37.2466 40.0836 37.2924 40.325 37.2923C40.6996 37.2862 41.0643 37.1716 41.375 36.9623C41.6217 36.7957 41.8252 36.5728 41.9687 36.3119C42.1121 36.0511 42.1914 35.7598 42.2 35.4623V22.6973C42.1986 22.3921 42.1228 22.0918 41.979 21.8225C41.8352 21.5533 41.6279 21.3232 41.375 21.1523ZM28.625 26.6573V31.5023H23.75V26.6573H28.625ZM28.625 37.3073H27.68L25.835 33.3323H28.625V37.3073ZM31.055 31.7273C30.8769 31.6363 30.6912 31.561 30.5 31.5023V26.5523C30.6894 26.5132 30.875 26.458 31.055 26.3873L40.325 22.6973V35.4173L31.055 31.7273ZM42.245 27.1823V30.9323C42.7423 30.9323 43.2192 30.7347 43.5708 30.3831C43.9225 30.0315 44.12 29.5546 44.12 29.0573C44.12 28.56 43.9225 28.0831 43.5708 27.7315C43.2192 27.3798 42.7423 27.1823 42.245 27.1823Z" fill="black"/>
</g>
<defs>
<clipPath id="clip0_1257_748">
<rect width="24" height="24" fill="white" transform="translate(20 18)"/>
</clipPath>
</defs>
</svg>
