<svg width="197" height="87" viewBox="0 0 197 87" fill="none" xmlns="http://www.w3.org/2000/svg">
<path d="M13.9847 69.4365V61.9727H17.3967C18.0791 61.9727 18.6655 62.0829 19.156 62.3032C19.6536 62.5236 20.0375 62.8435 20.3076 63.2629C20.5777 63.6752 20.7128 64.1656 20.7128 64.7343C20.7128 65.2959 20.5777 65.7828 20.3076 66.1951C20.0375 66.6074 19.6536 66.9273 19.156 67.1547C18.6655 67.3751 18.0791 67.4853 17.3967 67.4853H15.1575L16.0959 66.5683V69.4365H13.9847ZM16.0959 66.7922L15.1575 65.8219H17.2687C17.7095 65.8219 18.0364 65.7259 18.2497 65.534C18.4701 65.3421 18.5802 65.0755 18.5802 64.7343C18.5802 64.386 18.4701 64.1159 18.2497 63.924C18.0364 63.732 17.7095 63.6361 17.2687 63.6361H15.1575L16.0959 62.6658V66.7922ZM21.6878 69.4365V63.6574H23.6177V65.3421L23.3298 64.8623C23.5004 64.4287 23.7777 64.1052 24.1615 63.892C24.5454 63.6716 25.011 63.5614 25.5583 63.5614V65.3847C25.4659 65.3705 25.3842 65.3634 25.3131 65.3634C25.2491 65.3563 25.178 65.3527 25.0998 65.3527C24.6875 65.3527 24.3535 65.4665 24.0975 65.694C23.8416 65.9143 23.7137 66.2768 23.7137 66.7815V69.4365H21.6878ZM29.2425 69.5325C28.6099 69.5325 28.0483 69.4045 27.5578 69.1486C27.0673 68.8927 26.6799 68.5409 26.3956 68.093C26.1184 67.6381 25.9797 67.1192 25.9797 66.5363C25.9797 65.9534 26.1184 65.4381 26.3956 64.9902C26.6799 64.5424 27.0673 64.1941 27.5578 63.9453C28.0483 63.6894 28.6099 63.5614 29.2425 63.5614C29.8751 63.5614 30.4367 63.6894 30.9272 63.9453C31.4248 64.1941 31.8122 64.5424 32.0894 64.9902C32.3666 65.4381 32.5053 65.9534 32.5053 66.5363C32.5053 67.1192 32.3666 67.6381 32.0894 68.093C31.8122 68.5409 31.4248 68.8927 30.9272 69.1486C30.4367 69.4045 29.8751 69.5325 29.2425 69.5325ZM29.2425 67.9224C29.4771 67.9224 29.6832 67.8691 29.8609 67.7625C30.0458 67.6559 30.1915 67.4995 30.2981 67.2933C30.4047 67.0801 30.458 66.8277 30.458 66.5363C30.458 66.2449 30.4047 65.9996 30.2981 65.8006C30.1915 65.5944 30.0458 65.4381 29.8609 65.3314C29.6832 65.2248 29.4771 65.1715 29.2425 65.1715C29.015 65.1715 28.8089 65.2248 28.6241 65.3314C28.4464 65.4381 28.3006 65.5944 28.1869 65.8006C28.0803 65.9996 28.027 66.2449 28.027 66.5363C28.027 66.8277 28.0803 67.0801 28.1869 67.2933C28.3006 67.4995 28.4464 67.6559 28.6241 67.7625C28.8089 67.8691 29.015 67.9224 29.2425 67.9224ZM35.9601 69.5325C35.4341 69.5325 34.9543 69.4116 34.5207 69.17C34.0941 68.9212 33.7529 68.5764 33.497 68.1357C33.2411 67.6879 33.1132 67.1547 33.1132 66.5363C33.1132 65.925 33.2411 65.399 33.497 64.9582C33.7529 64.5104 34.0941 64.1656 34.5207 63.924C34.9543 63.6823 35.4341 63.5614 35.9601 63.5614C36.4577 63.5614 36.8771 63.6681 37.2183 63.8813C37.5666 64.0946 37.8296 64.4215 38.0073 64.8623C38.185 65.303 38.2739 65.861 38.2739 66.5363C38.2739 67.2258 38.1886 67.7909 38.018 68.2317C37.8474 68.6724 37.5915 68.9994 37.2503 69.2126C36.9091 69.4259 36.479 69.5325 35.9601 69.5325ZM36.3866 67.9224C36.6141 67.9224 36.8167 67.8691 36.9944 67.7625C37.1792 67.6559 37.3249 67.4995 37.4315 67.2933C37.5382 67.0801 37.5915 66.8277 37.5915 66.5363C37.5915 66.2449 37.5382 65.9996 37.4315 65.8006C37.3249 65.5944 37.1792 65.4381 36.9944 65.3314C36.8167 65.2248 36.6141 65.1715 36.3866 65.1715C36.152 65.1715 35.9423 65.2248 35.7575 65.3314C35.5798 65.4381 35.4376 65.5944 35.331 65.8006C35.2244 65.9996 35.1711 66.2449 35.1711 66.5363C35.1711 66.8277 35.2244 67.0801 35.331 67.2933C35.4376 67.4995 35.5798 67.6559 35.7575 67.7625C35.9423 67.8691 36.152 67.9224 36.3866 67.9224ZM37.6555 69.4365V68.4449L37.6661 66.5363L37.5595 64.6277V61.5249H39.5854V69.4365H37.6555Z" fill="black"/>
<path d="M41.3246 69.8389L62.1372 41.1438V49.3029L42.2235 21.4375H54.9461L68.7059 40.8672L63.3818 40.9364L76.9342 21.4375H89.1036L69.3282 48.8189V40.7981L90.2791 69.8389H77.349L63.1052 49.3029H68.2219L54.1855 69.8389H41.3246Z" fill="black"/>
<path d="M26.7304 58.2356C21.6359 58.2356 17.6526 56.8166 14.7806 53.9788C11.9085 51.1409 10.4725 47.0893 10.4725 41.8238V21.7195H18.7809V41.5161C18.7809 44.9352 19.4819 47.397 20.8837 48.9014C22.2855 50.4058 24.2515 51.158 26.7816 51.158C29.3118 51.158 31.2778 50.4058 32.6796 48.9014C34.0814 47.397 34.7824 44.9352 34.7824 41.5161V21.7195H42.9882V41.8238C42.9882 47.0893 41.5522 51.1409 38.6801 53.9788C35.8081 56.8166 31.8248 58.2356 26.7304 58.2356Z" fill="black"/>
<path d="M89.6174 9.65274C91.3958 8.66944 93.4798 10.3137 92.9374 12.272L88.5595 28.0761C88.1219 29.656 86.2159 30.2798 84.9288 29.2643L74.9552 21.3956C73.6681 20.3802 73.8313 18.3814 75.266 17.5881L89.6174 9.65274Z" fill="black"/>
<path d="M88.2167 14.6791L86.0944 24.1772L79.3862 18.7706L88.2167 14.6791Z" fill="white"/>
<path d="M14.368 86V77.6H17.512C18.224 77.6 18.836 77.716 19.348 77.948C19.86 78.172 20.252 78.5 20.524 78.932C20.804 79.356 20.944 79.872 20.944 80.48C20.944 81.072 20.804 81.584 20.524 82.016C20.252 82.44 19.86 82.768 19.348 83C18.836 83.232 18.224 83.348 17.512 83.348H14.86L15.256 82.928V86H14.368ZM15.256 83L14.86 82.568H17.488C18.328 82.568 18.964 82.388 19.396 82.028C19.836 81.66 20.056 81.144 20.056 80.48C20.056 79.808 19.836 79.288 19.396 78.92C18.964 78.552 18.328 78.368 17.488 78.368H14.86L15.256 77.948V83ZM22.5318 86V79.7H23.3478V81.416L23.2638 81.116C23.4398 80.636 23.7358 80.272 24.1518 80.024C24.5678 79.768 25.0838 79.64 25.6998 79.64V80.468C25.6678 80.468 25.6358 80.468 25.6038 80.468C25.5718 80.46 25.5398 80.456 25.5078 80.456C24.8438 80.456 24.3238 80.66 23.9478 81.068C23.5718 81.468 23.3838 82.04 23.3838 82.784V86H22.5318ZM29.7638 86.06C29.1558 86.06 28.6078 85.924 28.1198 85.652C27.6398 85.372 27.2598 84.992 26.9798 84.512C26.6998 84.024 26.5598 83.468 26.5598 82.844C26.5598 82.212 26.6998 81.656 26.9798 81.176C27.2598 80.696 27.6398 80.32 28.1198 80.048C28.5998 79.776 29.1478 79.64 29.7638 79.64C30.3878 79.64 30.9398 79.776 31.4198 80.048C31.9078 80.32 32.2878 80.696 32.5598 81.176C32.8398 81.656 32.9798 82.212 32.9798 82.844C32.9798 83.468 32.8398 84.024 32.5598 84.512C32.2878 84.992 31.9078 85.372 31.4198 85.652C30.9318 85.924 30.3798 86.06 29.7638 86.06ZM29.7638 85.304C30.2198 85.304 30.6238 85.204 30.9758 85.004C31.3278 84.796 31.6038 84.508 31.8038 84.14C32.0118 83.764 32.1158 83.332 32.1158 82.844C32.1158 82.348 32.0118 81.916 31.8038 81.548C31.6038 81.18 31.3278 80.896 30.9758 80.696C30.6238 80.488 30.2238 80.384 29.7758 80.384C29.3278 80.384 28.9278 80.488 28.5758 80.696C28.2238 80.896 27.9438 81.18 27.7358 81.548C27.5278 81.916 27.4238 82.348 27.4238 82.844C27.4238 83.332 27.5278 83.764 27.7358 84.14C27.9438 84.508 28.2238 84.796 28.5758 85.004C28.9278 85.204 29.3238 85.304 29.7638 85.304ZM37.2273 86.06C36.6273 86.06 36.0873 85.924 35.6073 85.652C35.1353 85.38 34.7633 85.004 34.4913 84.524C34.2193 84.036 34.0833 83.476 34.0833 82.844C34.0833 82.204 34.2193 81.644 34.4913 81.164C34.7633 80.684 35.1353 80.312 35.6073 80.048C36.0873 79.776 36.6273 79.64 37.2273 79.64C37.7793 79.64 38.2713 79.764 38.7033 80.012C39.1433 80.26 39.4913 80.624 39.7473 81.104C40.0113 81.576 40.1432 82.156 40.1432 82.844C40.1432 83.524 40.0153 84.104 39.7593 84.584C39.5033 85.064 39.1553 85.432 38.7153 85.688C38.2833 85.936 37.7873 86.06 37.2273 86.06ZM37.2873 85.304C37.7353 85.304 38.1353 85.204 38.4873 85.004C38.8473 84.796 39.1273 84.508 39.3273 84.14C39.5353 83.764 39.6393 83.332 39.6393 82.844C39.6393 82.348 39.5353 81.916 39.3273 81.548C39.1273 81.18 38.8473 80.896 38.4873 80.696C38.1353 80.488 37.7353 80.384 37.2873 80.384C36.8473 80.384 36.4513 80.488 36.0993 80.696C35.7473 80.896 35.4673 81.18 35.2593 81.548C35.0513 81.916 34.9473 82.348 34.9473 82.844C34.9473 83.332 35.0513 83.764 35.2593 84.14C35.4673 84.508 35.7473 84.796 36.0993 85.004C36.4513 85.204 36.8473 85.304 37.2873 85.304ZM39.6633 86V84.104L39.7473 82.832L39.6273 81.56V77.096H40.4793V86H39.6633ZM45.4561 86.06C44.9201 86.06 44.4521 85.96 44.0521 85.76C43.6521 85.56 43.3401 85.26 43.1161 84.86C42.9001 84.46 42.7921 83.96 42.7921 83.36V79.7H43.6441V83.264C43.6441 83.936 43.8081 84.444 44.1361 84.788C44.4721 85.124 44.9401 85.292 45.5401 85.292C45.9801 85.292 46.3601 85.204 46.6801 85.028C47.0081 84.844 47.2561 84.58 47.4241 84.236C47.6001 83.892 47.6881 83.48 47.6881 83V79.7H48.5401V86H47.7241V84.272L47.8561 84.584C47.6561 85.048 47.3441 85.412 46.9201 85.676C46.5041 85.932 46.0161 86.06 45.4561 86.06ZM53.5306 86.06C52.9066 86.06 52.3466 85.924 51.8506 85.652C51.3626 85.372 50.9786 84.992 50.6986 84.512C50.4186 84.024 50.2786 83.468 50.2786 82.844C50.2786 82.212 50.4186 81.656 50.6986 81.176C50.9786 80.696 51.3626 80.32 51.8506 80.048C52.3466 79.776 52.9066 79.64 53.5306 79.64C54.0666 79.64 54.5506 79.744 54.9826 79.952C55.4146 80.16 55.7546 80.472 56.0026 80.888L55.3666 81.32C55.1506 81 54.8826 80.764 54.5626 80.612C54.2426 80.46 53.8946 80.384 53.5186 80.384C53.0706 80.384 52.6666 80.488 52.3066 80.696C51.9466 80.896 51.6626 81.18 51.4546 81.548C51.2466 81.916 51.1426 82.348 51.1426 82.844C51.1426 83.34 51.2466 83.772 51.4546 84.14C51.6626 84.508 51.9466 84.796 52.3066 85.004C52.6666 85.204 53.0706 85.304 53.5186 85.304C53.8946 85.304 54.2426 85.228 54.5626 85.076C54.8826 84.924 55.1506 84.692 55.3666 84.38L56.0026 84.812C55.7546 85.22 55.4146 85.532 54.9826 85.748C54.5506 85.956 54.0666 86.06 53.5306 86.06ZM59.7386 86.06C59.1466 86.06 58.6906 85.9 58.3706 85.58C58.0506 85.26 57.8906 84.808 57.8906 84.224V78.308H58.7426V84.176C58.7426 84.544 58.8346 84.828 59.0186 85.028C59.2106 85.228 59.4826 85.328 59.8346 85.328C60.2106 85.328 60.5226 85.22 60.7706 85.004L61.0706 85.616C60.9026 85.768 60.6986 85.88 60.4586 85.952C60.2266 86.024 59.9866 86.06 59.7386 86.06ZM56.7626 80.408V79.7H60.6626V80.408H56.7626ZM64.3136 86.06C63.7936 86.06 63.3016 85.988 62.8376 85.844C62.3736 85.692 62.0096 85.504 61.7456 85.28L62.1296 84.608C62.3856 84.8 62.7136 84.968 63.1136 85.112C63.5136 85.248 63.9336 85.316 64.3736 85.316C64.9736 85.316 65.4056 85.224 65.6696 85.04C65.9336 84.848 66.0656 84.596 66.0656 84.284C66.0656 84.052 65.9896 83.872 65.8376 83.744C65.6936 83.608 65.5016 83.508 65.2616 83.444C65.0216 83.372 64.7536 83.312 64.4576 83.264C64.1616 83.216 63.8656 83.16 63.5696 83.096C63.2816 83.032 63.0176 82.94 62.7776 82.82C62.5376 82.692 62.3416 82.52 62.1896 82.304C62.0456 82.088 61.9736 81.8 61.9736 81.44C61.9736 81.096 62.0696 80.788 62.2616 80.516C62.4536 80.244 62.7336 80.032 63.1016 79.88C63.4776 79.72 63.9336 79.64 64.4696 79.64C64.8776 79.64 65.2856 79.696 65.6936 79.808C66.1016 79.912 66.4376 80.052 66.7016 80.228L66.3296 80.912C66.0496 80.72 65.7496 80.584 65.4296 80.504C65.1096 80.416 64.7896 80.372 64.4696 80.372C63.9016 80.372 63.4816 80.472 63.2096 80.672C62.9456 80.864 62.8136 81.112 62.8136 81.416C62.8136 81.656 62.8856 81.844 63.0296 81.98C63.1816 82.116 63.3776 82.224 63.6176 82.304C63.8656 82.376 64.1336 82.436 64.4216 82.484C64.7176 82.532 65.0096 82.592 65.2976 82.664C65.5936 82.728 65.8616 82.82 66.1016 82.94C66.3496 83.052 66.5456 83.216 66.6896 83.432C66.8416 83.64 66.9176 83.916 66.9176 84.26C66.9176 84.628 66.8136 84.948 66.6056 85.22C66.4056 85.484 66.1096 85.692 65.7176 85.844C65.3336 85.988 64.8656 86.06 64.3136 86.06ZM73.6136 86.06C73.0216 86.06 72.5656 85.9 72.2456 85.58C71.9256 85.26 71.7656 84.808 71.7656 84.224V78.308H72.6176V84.176C72.6176 84.544 72.7096 84.828 72.8936 85.028C73.0856 85.228 73.3576 85.328 73.7096 85.328C74.0856 85.328 74.3976 85.22 74.6456 85.004L74.9456 85.616C74.7776 85.768 74.5736 85.88 74.3336 85.952C74.1016 86.024 73.8616 86.06 73.6136 86.06ZM70.6376 80.408V79.7H74.5376V80.408H70.6376ZM79.7126 79.64C80.2246 79.64 80.6726 79.74 81.0566 79.94C81.4486 80.132 81.7526 80.428 81.9686 80.828C82.1926 81.228 82.3046 81.732 82.3046 82.34V86H81.4526V82.424C81.4526 81.76 81.2846 81.26 80.9486 80.924C80.6206 80.58 80.1566 80.408 79.5566 80.408C79.1086 80.408 78.7166 80.5 78.3806 80.684C78.0526 80.86 77.7966 81.12 77.6126 81.464C77.4366 81.8 77.3486 82.208 77.3486 82.688V86H76.4966V77.096H77.3486V81.428L77.1806 81.104C77.3806 80.648 77.7006 80.292 78.1406 80.036C78.5806 79.772 79.1046 79.64 79.7126 79.64ZM88.554 86V84.608L88.518 84.38V82.052C88.518 81.516 88.366 81.104 88.062 80.816C87.766 80.528 87.322 80.384 86.73 80.384C86.322 80.384 85.934 80.452 85.566 80.588C85.198 80.724 84.886 80.904 84.63 81.128L84.246 80.492C84.566 80.22 84.95 80.012 85.398 79.868C85.846 79.716 86.318 79.64 86.814 79.64C87.63 79.64 88.258 79.844 88.698 80.252C89.146 80.652 89.37 81.264 89.37 82.088V86H88.554ZM86.382 86.06C85.91 86.06 85.498 85.984 85.146 85.832C84.802 85.672 84.538 85.456 84.354 85.184C84.17 84.904 84.078 84.584 84.078 84.224C84.078 83.896 84.154 83.6 84.306 83.336C84.466 83.064 84.722 82.848 85.074 82.688C85.434 82.52 85.914 82.436 86.514 82.436H88.686V83.072H86.538C85.93 83.072 85.506 83.18 85.266 83.396C85.034 83.612 84.918 83.88 84.918 84.2C84.918 84.56 85.058 84.848 85.338 85.064C85.618 85.28 86.01 85.388 86.514 85.388C86.994 85.388 87.406 85.28 87.75 85.064C88.102 84.84 88.358 84.52 88.518 84.104L88.71 84.692C88.55 85.108 88.27 85.44 87.87 85.688C87.478 85.936 86.982 86.06 86.382 86.06ZM93.6761 86.06C93.0841 86.06 92.6281 85.9 92.3081 85.58C91.9881 85.26 91.8281 84.808 91.8281 84.224V78.308H92.6801V84.176C92.6801 84.544 92.7721 84.828 92.9561 85.028C93.1481 85.228 93.4201 85.328 93.7721 85.328C94.1481 85.328 94.4601 85.22 94.7081 85.004L95.0081 85.616C94.8401 85.768 94.6361 85.88 94.3961 85.952C94.1641 86.024 93.9241 86.06 93.6761 86.06ZM90.7001 80.408V79.7H94.6001V80.408H90.7001ZM103.528 86.072C102.896 86.072 102.312 85.968 101.776 85.76C101.24 85.544 100.776 85.244 100.384 84.86C99.9917 84.476 99.6837 84.024 99.4597 83.504C99.2437 82.984 99.1357 82.416 99.1357 81.8C99.1357 81.184 99.2437 80.616 99.4597 80.096C99.6837 79.576 99.9917 79.124 100.384 78.74C100.784 78.356 101.252 78.06 101.788 77.852C102.324 77.636 102.908 77.528 103.54 77.528C104.148 77.528 104.72 77.632 105.256 77.84C105.792 78.04 106.244 78.344 106.612 78.752L106.048 79.316C105.704 78.964 105.324 78.712 104.908 78.56C104.492 78.4 104.044 78.32 103.564 78.32C103.06 78.32 102.592 78.408 102.16 78.584C101.728 78.752 101.352 78.996 101.032 79.316C100.712 79.628 100.46 79.996 100.276 80.42C100.1 80.836 100.012 81.296 100.012 81.8C100.012 82.304 100.1 82.768 100.276 83.192C100.46 83.608 100.712 83.976 101.032 84.296C101.352 84.608 101.728 84.852 102.16 85.028C102.592 85.196 103.06 85.28 103.564 85.28C104.044 85.28 104.492 85.2 104.908 85.04C105.324 84.88 105.704 84.624 106.048 84.272L106.612 84.836C106.244 85.244 105.792 85.552 105.256 85.76C104.72 85.968 104.144 86.072 103.528 86.072ZM110.718 86.06C110.182 86.06 109.714 85.96 109.314 85.76C108.914 85.56 108.602 85.26 108.378 84.86C108.162 84.46 108.054 83.96 108.054 83.36V79.7H108.906V83.264C108.906 83.936 109.07 84.444 109.398 84.788C109.734 85.124 110.202 85.292 110.802 85.292C111.242 85.292 111.622 85.204 111.942 85.028C112.27 84.844 112.518 84.58 112.686 84.236C112.862 83.892 112.95 83.48 112.95 83V79.7H113.802V86H112.986V84.272L113.118 84.584C112.918 85.048 112.606 85.412 112.182 85.676C111.766 85.932 111.278 86.06 110.718 86.06ZM117.868 86.06C117.348 86.06 116.856 85.988 116.392 85.844C115.928 85.692 115.564 85.504 115.3 85.28L115.684 84.608C115.94 84.8 116.268 84.968 116.668 85.112C117.068 85.248 117.488 85.316 117.928 85.316C118.528 85.316 118.96 85.224 119.224 85.04C119.488 84.848 119.62 84.596 119.62 84.284C119.62 84.052 119.544 83.872 119.392 83.744C119.248 83.608 119.056 83.508 118.816 83.444C118.576 83.372 118.308 83.312 118.012 83.264C117.716 83.216 117.42 83.16 117.124 83.096C116.836 83.032 116.572 82.94 116.332 82.82C116.092 82.692 115.896 82.52 115.744 82.304C115.6 82.088 115.528 81.8 115.528 81.44C115.528 81.096 115.624 80.788 115.816 80.516C116.008 80.244 116.288 80.032 116.656 79.88C117.032 79.72 117.488 79.64 118.024 79.64C118.432 79.64 118.84 79.696 119.248 79.808C119.656 79.912 119.992 80.052 120.256 80.228L119.884 80.912C119.604 80.72 119.304 80.584 118.984 80.504C118.664 80.416 118.344 80.372 118.024 80.372C117.456 80.372 117.036 80.472 116.764 80.672C116.5 80.864 116.368 81.112 116.368 81.416C116.368 81.656 116.44 81.844 116.584 81.98C116.736 82.116 116.932 82.224 117.172 82.304C117.42 82.376 117.688 82.436 117.976 82.484C118.272 82.532 118.564 82.592 118.852 82.664C119.148 82.728 119.416 82.82 119.656 82.94C119.904 83.052 120.1 83.216 120.244 83.432C120.396 83.64 120.472 83.916 120.472 84.26C120.472 84.628 120.368 84.948 120.16 85.22C119.96 85.484 119.664 85.692 119.272 85.844C118.888 85.988 118.42 86.06 117.868 86.06ZM124.028 86.06C123.436 86.06 122.98 85.9 122.66 85.58C122.34 85.26 122.18 84.808 122.18 84.224V78.308H123.032V84.176C123.032 84.544 123.124 84.828 123.308 85.028C123.5 85.228 123.772 85.328 124.124 85.328C124.5 85.328 124.812 85.22 125.06 85.004L125.36 85.616C125.192 85.768 124.988 85.88 124.748 85.952C124.516 86.024 124.276 86.06 124.028 86.06ZM121.052 80.408V79.7H124.952V80.408H121.052ZM129.256 86.06C128.648 86.06 128.1 85.924 127.612 85.652C127.132 85.372 126.752 84.992 126.472 84.512C126.192 84.024 126.052 83.468 126.052 82.844C126.052 82.212 126.192 81.656 126.472 81.176C126.752 80.696 127.132 80.32 127.612 80.048C128.092 79.776 128.64 79.64 129.256 79.64C129.88 79.64 130.432 79.776 130.912 80.048C131.4 80.32 131.78 80.696 132.052 81.176C132.332 81.656 132.472 82.212 132.472 82.844C132.472 83.468 132.332 84.024 132.052 84.512C131.78 84.992 131.4 85.372 130.912 85.652C130.424 85.924 129.872 86.06 129.256 86.06ZM129.256 85.304C129.712 85.304 130.116 85.204 130.468 85.004C130.82 84.796 131.096 84.508 131.296 84.14C131.504 83.764 131.608 83.332 131.608 82.844C131.608 82.348 131.504 81.916 131.296 81.548C131.096 81.18 130.82 80.896 130.468 80.696C130.116 80.488 129.716 80.384 129.268 80.384C128.82 80.384 128.42 80.488 128.068 80.696C127.716 80.896 127.436 81.18 127.228 81.548C127.02 81.916 126.916 82.348 126.916 82.844C126.916 83.332 127.02 83.764 127.228 84.14C127.436 84.508 127.716 84.796 128.068 85.004C128.42 85.204 128.816 85.304 129.256 85.304ZM142.083 79.64C142.595 79.64 143.039 79.74 143.415 79.94C143.799 80.132 144.095 80.428 144.303 80.828C144.519 81.228 144.627 81.732 144.627 82.34V86H143.775V82.424C143.775 81.76 143.615 81.26 143.295 80.924C142.983 80.58 142.539 80.408 141.963 80.408C141.531 80.408 141.155 80.5 140.835 80.684C140.523 80.86 140.279 81.12 140.103 81.464C139.935 81.8 139.851 82.208 139.851 82.688V86H138.999V82.424C138.999 81.76 138.839 81.26 138.519 80.924C138.199 80.58 137.751 80.408 137.175 80.408C136.751 80.408 136.379 80.5 136.059 80.684C135.739 80.86 135.491 81.12 135.315 81.464C135.147 81.8 135.063 82.208 135.063 82.688V86H134.211V79.7H135.027V81.404L134.895 81.104C135.087 80.648 135.395 80.292 135.819 80.036C136.251 79.772 136.759 79.64 137.343 79.64C137.959 79.64 138.483 79.796 138.915 80.108C139.347 80.412 139.627 80.872 139.755 81.488L139.419 81.356C139.603 80.844 139.927 80.432 140.391 80.12C140.863 79.8 141.427 79.64 142.083 79.64ZM149.614 86.06C148.958 86.06 148.382 85.924 147.886 85.652C147.39 85.372 147.002 84.992 146.722 84.512C146.442 84.024 146.302 83.468 146.302 82.844C146.302 82.22 146.434 81.668 146.698 81.188C146.97 80.708 147.338 80.332 147.802 80.06C148.274 79.78 148.802 79.64 149.386 79.64C149.978 79.64 150.502 79.776 150.958 80.048C151.422 80.312 151.786 80.688 152.05 81.176C152.314 81.656 152.446 82.212 152.446 82.844C152.446 82.884 152.442 82.928 152.434 82.976C152.434 83.016 152.434 83.06 152.434 83.108H146.95V82.472H151.978L151.642 82.724C151.642 82.268 151.542 81.864 151.342 81.512C151.15 81.152 150.886 80.872 150.55 80.672C150.214 80.472 149.826 80.372 149.386 80.372C148.954 80.372 148.566 80.472 148.222 80.672C147.878 80.872 147.61 81.152 147.418 81.512C147.226 81.872 147.13 82.284 147.13 82.748V82.88C147.13 83.36 147.234 83.784 147.442 84.152C147.658 84.512 147.954 84.796 148.33 85.004C148.714 85.204 149.15 85.304 149.638 85.304C150.022 85.304 150.378 85.236 150.706 85.1C151.042 84.964 151.33 84.756 151.57 84.476L152.05 85.028C151.77 85.364 151.418 85.62 150.994 85.796C150.578 85.972 150.118 86.06 149.614 86.06ZM154.18 86V79.7H154.996V81.416L154.912 81.116C155.088 80.636 155.384 80.272 155.8 80.024C156.216 79.768 156.732 79.64 157.348 79.64V80.468C157.316 80.468 157.284 80.468 157.252 80.468C157.22 80.46 157.188 80.456 157.156 80.456C156.492 80.456 155.972 80.66 155.596 81.068C155.22 81.468 155.032 82.04 155.032 82.784V86H154.18ZM160.665 86.06C160.145 86.06 159.653 85.988 159.189 85.844C158.725 85.692 158.361 85.504 158.097 85.28L158.481 84.608C158.737 84.8 159.065 84.968 159.465 85.112C159.865 85.248 160.285 85.316 160.725 85.316C161.325 85.316 161.757 85.224 162.021 85.04C162.285 84.848 162.417 84.596 162.417 84.284C162.417 84.052 162.341 83.872 162.189 83.744C162.045 83.608 161.853 83.508 161.613 83.444C161.373 83.372 161.105 83.312 160.809 83.264C160.513 83.216 160.217 83.16 159.921 83.096C159.633 83.032 159.369 82.94 159.129 82.82C158.889 82.692 158.693 82.52 158.541 82.304C158.397 82.088 158.325 81.8 158.325 81.44C158.325 81.096 158.421 80.788 158.613 80.516C158.805 80.244 159.085 80.032 159.453 79.88C159.829 79.72 160.285 79.64 160.821 79.64C161.229 79.64 161.637 79.696 162.045 79.808C162.453 79.912 162.789 80.052 163.053 80.228L162.681 80.912C162.401 80.72 162.101 80.584 161.781 80.504C161.461 80.416 161.141 80.372 160.821 80.372C160.253 80.372 159.833 80.472 159.561 80.672C159.297 80.864 159.165 81.112 159.165 81.416C159.165 81.656 159.237 81.844 159.381 81.98C159.533 82.116 159.729 82.224 159.969 82.304C160.217 82.376 160.485 82.436 160.773 82.484C161.069 82.532 161.361 82.592 161.649 82.664C161.945 82.728 162.213 82.82 162.453 82.94C162.701 83.052 162.897 83.216 163.041 83.432C163.193 83.64 163.269 83.916 163.269 84.26C163.269 84.628 163.165 84.948 162.957 85.22C162.757 85.484 162.461 85.692 162.069 85.844C161.685 85.988 161.217 86.06 160.665 86.06ZM168.153 86V77.6H169.041V85.232H173.745V86H168.153ZM177.514 86.06C176.906 86.06 176.358 85.924 175.87 85.652C175.39 85.372 175.01 84.992 174.73 84.512C174.45 84.024 174.31 83.468 174.31 82.844C174.31 82.212 174.45 81.656 174.73 81.176C175.01 80.696 175.39 80.32 175.87 80.048C176.35 79.776 176.898 79.64 177.514 79.64C178.138 79.64 178.69 79.776 179.17 80.048C179.658 80.32 180.038 80.696 180.31 81.176C180.59 81.656 180.73 82.212 180.73 82.844C180.73 83.468 180.59 84.024 180.31 84.512C180.038 84.992 179.658 85.372 179.17 85.652C178.682 85.924 178.13 86.06 177.514 86.06ZM177.514 85.304C177.97 85.304 178.374 85.204 178.726 85.004C179.078 84.796 179.354 84.508 179.554 84.14C179.762 83.764 179.866 83.332 179.866 82.844C179.866 82.348 179.762 81.916 179.554 81.548C179.354 81.18 179.078 80.896 178.726 80.696C178.374 80.488 177.974 80.384 177.526 80.384C177.078 80.384 176.678 80.488 176.326 80.696C175.974 80.896 175.694 81.18 175.486 81.548C175.278 81.916 175.174 82.348 175.174 82.844C175.174 83.332 175.278 83.764 175.486 84.14C175.694 84.508 175.974 84.796 176.326 85.004C176.678 85.204 177.074 85.304 177.514 85.304ZM183.913 86L181.117 79.7H182.005L184.573 85.544H184.153L186.757 79.7H187.597L184.789 86H183.913ZM191.298 86.06C190.642 86.06 190.066 85.924 189.57 85.652C189.074 85.372 188.686 84.992 188.406 84.512C188.126 84.024 187.986 83.468 187.986 82.844C187.986 82.22 188.118 81.668 188.382 81.188C188.654 80.708 189.022 80.332 189.486 80.06C189.958 79.78 190.486 79.64 191.07 79.64C191.662 79.64 192.186 79.776 192.642 80.048C193.106 80.312 193.47 80.688 193.734 81.176C193.998 81.656 194.13 82.212 194.13 82.844C194.13 82.884 194.126 82.928 194.118 82.976C194.118 83.016 194.118 83.06 194.118 83.108H188.634V82.472H193.662L193.326 82.724C193.326 82.268 193.226 81.864 193.026 81.512C192.834 81.152 192.57 80.872 192.234 80.672C191.898 80.472 191.51 80.372 191.07 80.372C190.638 80.372 190.25 80.472 189.906 80.672C189.562 80.872 189.294 81.152 189.102 81.512C188.91 81.872 188.814 82.284 188.814 82.748V82.88C188.814 83.36 188.918 83.784 189.126 84.152C189.342 84.512 189.638 84.796 190.014 85.004C190.398 85.204 190.834 85.304 191.322 85.304C191.706 85.304 192.062 85.236 192.39 85.1C192.726 84.964 193.014 84.756 193.254 84.476L193.734 85.028C193.454 85.364 193.102 85.62 192.678 85.796C192.262 85.972 191.802 86.06 191.298 86.06ZM195.948 86.06C195.772 86.06 195.62 85.996 195.492 85.868C195.372 85.74 195.312 85.584 195.312 85.4C195.312 85.208 195.372 85.052 195.492 84.932C195.62 84.812 195.772 84.752 195.948 84.752C196.124 84.752 196.272 84.812 196.392 84.932C196.52 85.052 196.584 85.208 196.584 85.4C196.584 85.584 196.52 85.74 196.392 85.868C196.272 85.996 196.124 86.06 195.948 86.06Z" fill="black"/>
</svg>
