<svg width="63" height="61" viewBox="0 0 63 61" fill="none" xmlns="http://www.w3.org/2000/svg">
<ellipse cx="31.5" cy="30.0349" rx="31.5" ry="30.0349" fill="white"/>
<path d="M32 19C25.379 19 20 24.379 20 31C20 37.621 25.379 43 32 43C38.621 43 44 37.621 44 31C44 24.379 38.621 19 32 19ZM32 19.75C34.871 19.75 37.4802 20.8323 39.4685 22.6015H24.5307C26.584 20.7635 29.2435 19.7481 31.9992 19.75H32ZM24.8127 23.3515H39.188L32.0007 37.7222L24.8127 23.3515ZM23.6015 23.5315V38.4692C21.7635 36.416 20.7481 33.7565 20.75 31.0007C20.75 28.1297 21.8323 25.5205 23.6015 23.5323V23.5315ZM40.3985 23.5315C42.2365 25.5848 43.2519 28.2442 43.25 31C43.25 33.871 42.1677 36.4802 40.3985 38.4685V23.5315ZM24.3515 24.1015L31.625 38.6485H24.3515V24.1015ZM39.6485 24.1015V38.6485H32.375L39.6522 24.1015H39.6485ZM24.5315 39.3985H39.4692C37.4142 41.2383 34.7547 42.25 32.0007 42.25C29.2467 42.25 26.5865 41.2383 24.5323 39.3985H24.5315Z" fill="black"/>
</svg>
