<svg width="63" height="61" viewBox="0 0 63 61" fill="none" xmlns="http://www.w3.org/2000/svg">
<ellipse cx="31.5" cy="30.0349" rx="31.5" ry="30.0349" fill="white"/>
<path d="M38.75 30C38.75 28.875 37.85 27.9 36.725 27.75C35.9 25.95 34.1 24.75 32 24.75C31.85 24.75 31.625 24.75 31.475 24.825C31.025 24.3 30.425 24 29.75 24C28.475 24 27.5 24.975 27.5 26.25C27.5 26.55 27.575 26.775 27.65 27.075C27.05 27.9 26.75 28.875 26.75 30C26.75 31.125 27.05 32.1 27.65 32.925C27.575 33.225 27.5 33.45 27.5 33.75C27.5 35.025 28.475 36 29.75 36C30.425 36 31.025 35.7 31.475 35.175C31.625 35.175 31.85 35.25 32 35.25C34.1 35.25 35.9 33.975 36.725 32.25C37.85 32.1 38.75 31.125 38.75 30ZM29.75 25.5C30.2 25.5 30.5 25.8 30.5 26.25C30.5 26.7 30.2 27 29.75 27C29.3 27 29 26.7 29 26.25C29 25.8 29.3 25.5 29.75 25.5ZM29.75 34.5C29.3 34.5 29 34.2 29 33.75C29 33.3 29.3 33 29.75 33C30.2 33 30.5 33.3 30.5 33.75C30.5 34.2 30.2 34.5 29.75 34.5ZM32 33.75C32 32.475 31.025 31.5 29.75 31.5C29.375 31.5 29 31.575 28.7 31.8C28.4 31.275 28.25 30.675 28.25 30C28.25 29.325 28.4 28.725 28.7 28.2C29 28.425 29.375 28.5 29.75 28.5C31.025 28.5 32 27.525 32 26.25C33.425 26.25 34.55 27 35.225 28.125C34.625 28.575 34.25 29.25 34.25 30C34.25 30.75 34.625 31.425 35.225 31.875C34.55 33 33.425 33.75 32 33.75ZM36.5 30.75C36.05 30.75 35.75 30.45 35.75 30C35.75 29.55 36.05 29.25 36.5 29.25C36.95 29.25 37.25 29.55 37.25 30C37.25 30.45 36.95 30.75 36.5 30.75Z" fill="black"/>
<path d="M32 41.2484C31.85 41.2484 31.775 41.2484 31.625 41.1734L22.625 35.9234C22.4 35.7734 22.25 35.5484 22.25 35.2484V24.7484C22.25 24.4484 22.4 24.2234 22.625 24.0734L31.625 18.8234C31.85 18.6734 32.15 18.6734 32.375 18.8234L41.375 24.0734L40.625 25.3484L32 20.3984L23.75 25.1984V34.8734L32 39.6734L40.25 34.8734V29.2484H41.75V35.2484C41.75 35.5484 41.6 35.7734 41.375 35.9234L32.375 41.1734C32.225 41.2484 32.15 41.2484 32 41.2484Z" fill="black"/>
</svg>
