<svg width="63" height="61" viewBox="0 0 63 61" fill="none" xmlns="http://www.w3.org/2000/svg">
<ellipse cx="31.5" cy="30.0349" rx="31.5" ry="30.0349" fill="white"/>
<path d="M27 25H25V21C25 20.45 25.196 19.979 25.588 19.587C25.9793 19.1957 26.45 19 27 19H37C37.55 19 38.021 19.1957 38.413 19.587C38.8043 19.979 39 20.45 39 21V25H37V24H27V25ZM25 35H27V36H37V35H39V39C39 39.55 38.8043 40.021 38.413 40.413C38.021 40.8043 37.55 41 37 41H27C26.45 41 25.9793 40.8043 25.588 40.413C25.196 40.021 25 39.55 25 39V35ZM35.4 34.6L34 33.15L37.15 30L34 26.85L35.4 25.4L40 30L35.4 34.6ZM28.6 34.6L24 30L28.6 25.4L30 26.85L26.85 30L30 33.15L28.6 34.6ZM27 38V39H37V38H27ZM27 39V38V39ZM27 22H37V21H27V22ZM27 21V22V21Z" fill="black"/>
</svg>
