<svg width="31" height="25" viewBox="0 0 31 25" fill="none" xmlns="http://www.w3.org/2000/svg">
<path d="M24.3775 21.8673H24.2181C5.79618 21.0407 3.18054 8.91332 2.81491 5.21219C2.75777 4.63197 2.99837 4.05779 3.48379 3.61597C3.96921 3.17414 4.65969 2.90084 5.40336 2.85619C5.47774 2.8518 5.55242 2.84961 5.62743 2.84961H10.5681C10.9436 2.84933 11.3106 2.93703 11.6215 3.10135C11.9324 3.26567 12.1729 3.49904 12.3118 3.77124L13.7368 6.50685C13.874 6.77277 13.9081 7.06427 13.8348 7.34516C13.7614 7.62605 13.5839 7.88393 13.3243 8.08678L11.3274 9.6594C11.6381 11.0428 12.4866 12.3182 13.7578 13.3126C15.029 14.3071 16.6614 14.9724 18.4337 15.2184L20.4681 13.6458C20.732 13.4455 21.0657 13.3102 21.4274 13.2569C21.7892 13.2036 22.1631 13.2345 22.5025 13.3459L26.0369 14.4504C26.3805 14.5622 26.6737 14.7513 26.879 14.9936C27.0844 15.2359 27.1926 15.5204 27.19 15.8109V19.6729C27.19 20.2549 26.8937 20.813 26.3662 21.2246C25.8388 21.6361 25.1234 21.8673 24.3775 21.8673ZM5.62743 4.31251C5.50431 4.31222 5.38233 4.33085 5.26844 4.36735C5.15456 4.40384 5.051 4.45747 4.96368 4.52519C4.87637 4.59291 4.807 4.67338 4.75955 4.76202C4.71209 4.85065 4.68748 4.94571 4.68711 5.04176C4.68711 5.06224 4.68805 5.08248 4.68992 5.10247C5.12117 9.43265 7.88681 19.6729 24.3213 20.4044C24.5694 20.416 24.8133 20.3502 24.9993 20.2216C25.1853 20.0929 25.2982 19.9119 25.3131 19.7183L25.315 19.6729V15.8109L21.7806 14.7064L19.09 16.791L18.64 16.7471C10.4837 15.9499 9.37744 9.58625 9.37744 9.52042L9.32119 9.16933L11.9837 7.07007L10.5774 4.31251H5.62743Z" fill="white"/>
<path d="M25.3145 10.1641V8.7012H21.0151L27.1895 3.88388L25.8639 2.84961L19.6895 7.66693V4.31251H17.8145V10.1641H25.3145Z" fill="white"/>
</svg>
