<svg width="60" height="60" viewBox="0 0 60 60" fill="none" xmlns="http://www.w3.org/2000/svg">
<path d="M7.56979 1.24608L30 23.6755L52.3379 1.33838C52.7294 0.921717 53.201 0.5884 53.7244 0.358419C54.2478 0.128437 54.8123 0.00652735 55.384 0C56.608 0 57.7819 0.486233 58.6475 1.35173C59.513 2.21723 59.9993 3.3911 59.9993 4.6151C60.01 5.18092 59.905 5.74298 59.6907 6.26676C59.4765 6.79055 59.1574 7.26503 58.7531 7.66107L36.1845 29.9982L58.7531 52.566C59.5138 53.3102 59.9598 54.3179 59.9993 55.3812C59.9993 56.6052 59.513 57.7791 58.6475 58.6446C57.7819 59.5101 56.608 59.9963 55.384 59.9963C54.7958 60.0208 54.2089 59.9226 53.6607 59.7081C53.1125 59.4935 52.6149 59.1674 52.1994 58.7503L30 36.3209L7.61595 58.7041C7.22598 59.1069 6.76011 59.4284 6.24522 59.6502C5.73033 59.872 5.17661 59.9897 4.61602 59.9963C3.39197 59.9963 2.21806 59.5101 1.35253 58.6446C0.487001 57.7791 0.000750932 56.6052 0.000750932 55.3812C-0.0100095 54.8154 0.0949741 54.2534 0.309259 53.7296C0.523544 53.2058 0.842609 52.7313 1.24687 52.3353L23.8155 29.9982L1.24687 7.43032C0.486208 6.68617 0.0401636 5.67848 0.000750932 4.6151C0.000750932 3.3911 0.487001 2.21723 1.35253 1.35173C2.21806 0.486233 3.39197 0 4.61602 0C5.72368 0.0138453 6.7852 0.46151 7.56979 1.24608Z" fill="white"/>
</svg>
