<svg width="24" height="24" viewBox="0 0 24 24" fill="none" xmlns="http://www.w3.org/2000/svg">
<g clip-path="url(#clip0_2241_748)">
<path d="M12.0028 -0.0253906C5.37206 -0.0253906 -0.0234375 5.36861 -0.0234375 12.0001C-0.0234375 18.6316 5.37206 24.0256 12.0028 24.0256C18.6336 24.0256 24.0291 18.6316 24.0291 12.0001C24.0291 5.36861 18.6336 -0.0253906 12.0028 -0.0253906ZM12.0028 23.2246C5.81381 23.2246 0.779062 18.1891 0.779062 12.0001C0.779062 5.81111 5.81381 0.775609 12.0028 0.775609C18.1918 0.775609 23.2266 5.81111 23.2266 12.0001C23.2266 18.1891 18.1918 23.2246 12.0028 23.2246Z" fill="black"/>
<path d="M14.6279 5.25003H12.6269C10.0784 5.22453 9.75294 6.80178 9.75294 8.50878V9.75003H8.62794C8.57709 9.74324 8.52536 9.74826 8.47677 9.7647C8.42818 9.78115 8.38403 9.80857 8.34775 9.84485C8.31148 9.88112 8.28405 9.92527 8.26761 9.97386C8.25117 10.0225 8.24615 10.0742 8.25294 10.125V12.375C8.24615 12.4259 8.25117 12.4776 8.26761 12.5262C8.28405 12.5748 8.31148 12.6189 8.34775 12.6552C8.38403 12.6915 8.42818 12.7189 8.47677 12.7354C8.52536 12.7518 8.57709 12.7568 8.62794 12.75H9.75294V18.375C9.74669 18.426 9.75216 18.4777 9.76895 18.5262C9.78573 18.5747 9.81338 18.6187 9.84978 18.6549C9.88618 18.691 9.93036 18.7184 9.97896 18.7349C10.0276 18.7514 10.0793 18.7566 10.1302 18.75H12.4214C12.6427 18.7755 12.8219 18.5963 12.7514 18.375L12.7529 12.75H14.6279C14.6788 12.7568 14.7305 12.7518 14.7791 12.7354C14.8277 12.7189 14.8718 12.6915 14.9081 12.6552C14.9444 12.6189 14.9718 12.5748 14.9883 12.5262C15.0047 12.4776 15.0097 12.4259 15.0029 12.375V10.125C15.0097 10.0742 15.0047 10.0225 14.9883 9.97386C14.9718 9.92527 14.9444 9.88112 14.9081 9.84485C14.8718 9.80857 14.8277 9.78115 14.7791 9.7647C14.7305 9.74826 14.6788 9.74324 14.6279 9.75003H12.7507L12.7529 8.62503C12.8257 8.14578 12.8257 8.22378 13.2704 8.25003H14.6122C14.7164 8.22678 14.8274 8.23953 14.9054 8.16378C14.9834 8.08803 15.0284 7.98453 15.0022 7.87503V5.62503C15.0091 5.57422 15.0042 5.5225 14.9879 5.4739C14.9715 5.4253 14.9442 5.38113 14.9079 5.34484C14.8717 5.30855 14.8276 5.28111 14.779 5.26466C14.7305 5.24822 14.6788 5.24321 14.6279 5.25003V5.25003ZM14.2267 7.45803L13.2862 7.42203C12.1214 7.42203 12.0239 8.05428 12.0239 8.70153L12.0209 10.1235C12.0208 10.1762 12.0311 10.2283 12.0512 10.277C12.0713 10.3257 12.1008 10.3699 12.138 10.4072C12.1752 10.4445 12.2194 10.474 12.268 10.4942C12.3166 10.5144 12.3688 10.5248 12.4214 10.5248H14.2529V11.9738H12.4229C12.3166 11.9738 12.2147 12.016 12.1395 12.091C12.0642 12.1661 12.0219 12.268 12.0217 12.3743L12.0209 18H10.5029V12.375C10.5029 12.1538 10.3522 11.9745 10.1302 11.9745H9.00294V10.5255H10.1302C10.1828 10.5256 10.2349 10.5153 10.2836 10.4952C10.3322 10.4752 10.3764 10.4457 10.4137 10.4085C10.4887 10.3328 10.5022 10.2308 10.5022 10.1243V8.50803C10.5022 6.82653 10.8419 6.02553 12.6262 6.02553H14.2259V7.45803H14.2267Z" fill="black"/>
</g>
<defs>
<clipPath id="clip0_2241_748">
<rect width="24" height="24" fill="white"/>
</clipPath>
</defs>
</svg>
