<svg width="186" height="91" viewBox="0 0 186 91" fill="none" xmlns="http://www.w3.org/2000/svg">
<path d="M13.9575 76.1035V68.6187H17.3791C18.0634 68.6187 18.6515 68.7292 19.1433 68.9502C19.6423 69.1712 20.0273 69.492 20.2981 69.9125C20.569 70.326 20.7044 70.8178 20.7044 71.3881C20.7044 71.9513 20.569 72.4395 20.2981 72.853C20.0273 73.2664 19.6423 73.5872 19.1433 73.8153C18.6515 74.0363 18.0634 74.1468 17.3791 74.1468H15.1336L16.0746 73.2272V76.1035H13.9575ZM16.0746 73.4518L15.1336 72.4788H17.2508C17.6927 72.4788 18.0206 72.3825 18.2345 72.1901C18.4554 71.9976 18.5659 71.7303 18.5659 71.3881C18.5659 71.0388 18.4554 70.7679 18.2345 70.5755C18.0206 70.383 17.6927 70.2868 17.2508 70.2868H15.1336L16.0746 69.3138V73.4518ZM21.6822 76.1035V70.3082H23.6176V71.9976L23.3289 71.5164C23.5 71.0816 23.778 70.7573 24.1629 70.5434C24.5478 70.3224 25.0147 70.2119 25.5636 70.2119V72.0404C25.4709 72.0261 25.389 72.019 25.3177 72.019C25.2535 72.0118 25.1822 72.0083 25.1038 72.0083C24.6904 72.0083 24.3554 72.1223 24.0987 72.3504C23.8421 72.5714 23.7138 72.935 23.7138 73.4411V76.1035H21.6822ZM29.2581 76.1997C28.6237 76.1997 28.0606 76.0714 27.5687 75.8148C27.0769 75.5582 26.6884 75.2053 26.4032 74.7563C26.1252 74.3 25.9862 73.7797 25.9862 73.1951C25.9862 72.6106 26.1252 72.0938 26.4032 71.6447C26.6884 71.1956 27.0769 70.8464 27.5687 70.5969C28.0606 70.3402 28.6237 70.2119 29.2581 70.2119C29.8926 70.2119 30.4557 70.3402 30.9475 70.5969C31.4465 70.8464 31.835 71.1956 32.113 71.6447C32.391 72.0938 32.53 72.6106 32.53 73.1951C32.53 73.7797 32.391 74.3 32.113 74.7563C31.835 75.2053 31.4465 75.5582 30.9475 75.8148C30.4557 76.0714 29.8926 76.1997 29.2581 76.1997ZM29.2581 74.5852C29.4934 74.5852 29.7001 74.5317 29.8783 74.4248C30.0636 74.3179 30.2098 74.161 30.3167 73.9543C30.4236 73.7405 30.4771 73.4874 30.4771 73.1951C30.4771 72.9029 30.4236 72.657 30.3167 72.4574C30.2098 72.2506 30.0636 72.0938 29.8783 71.9869C29.7001 71.88 29.4934 71.8265 29.2581 71.8265C29.03 71.8265 28.8233 71.88 28.638 71.9869C28.4598 72.0938 28.3136 72.2506 28.1996 72.4574C28.0926 72.657 28.0392 72.9029 28.0392 73.1951C28.0392 73.4874 28.0926 73.7405 28.1996 73.9543C28.3136 74.161 28.4598 74.3179 28.638 74.4248C28.8233 74.5317 29.03 74.5852 29.2581 74.5852ZM35.9946 76.1997C35.4671 76.1997 34.9859 76.0786 34.5511 75.8362C34.1234 75.5867 33.7812 75.241 33.5246 74.799C33.268 74.3499 33.1397 73.8153 33.1397 73.1951C33.1397 72.5821 33.268 72.0546 33.5246 71.6127C33.7812 71.1636 34.1234 70.8178 34.5511 70.5755C34.9859 70.3331 35.4671 70.2119 35.9946 70.2119C36.4936 70.2119 36.9141 70.3189 37.2563 70.5327C37.6056 70.7466 37.8693 71.0745 38.0475 71.5164C38.2258 71.9584 38.3149 72.518 38.3149 73.1951C38.3149 73.8866 38.2293 74.4533 38.0582 74.8953C37.8872 75.3372 37.6305 75.6651 37.2884 75.879C36.9462 76.0928 36.515 76.1997 35.9946 76.1997ZM36.4223 74.5852C36.6504 74.5852 36.8536 74.5317 37.0318 74.4248C37.2171 74.3179 37.3632 74.161 37.4702 73.9543C37.5771 73.7405 37.6305 73.4874 37.6305 73.1951C37.6305 72.9029 37.5771 72.657 37.4702 72.4574C37.3632 72.2506 37.2171 72.0938 37.0318 71.9869C36.8536 71.88 36.6504 71.8265 36.4223 71.8265C36.187 71.8265 35.9768 71.88 35.7914 71.9869C35.6132 72.0938 35.4707 72.2506 35.3637 72.4574C35.2568 72.657 35.2033 72.9029 35.2033 73.1951C35.2033 73.4874 35.2568 73.7405 35.3637 73.9543C35.4707 74.161 35.6132 74.3179 35.7914 74.4248C35.9768 74.5317 36.187 74.5852 36.4223 74.5852ZM37.6947 76.1035V75.1091L37.7054 73.1951L37.5985 71.2812V68.1697H39.63V76.1035H37.6947Z" fill="black"/>
<path d="M41.2354 76.0977L62.1063 47.322V55.504L42.1368 27.5605H54.8951L68.6935 47.0447L63.3544 47.114L76.9449 27.5605H89.1485L69.3176 55.0187V46.9754L90.3272 76.0977H77.3609L63.0771 55.504H68.2082L54.1324 76.0977H41.2354Z" fill="black"/>
<path d="M26.7734 64.5312C21.6646 64.5312 17.6702 63.1083 14.7901 60.2625C11.91 57.4167 10.4699 53.3537 10.4699 48.0734V27.9127H18.8017V47.7649C18.8017 51.1936 19.5046 53.6622 20.9103 55.1709C22.3161 56.6795 24.2876 57.4338 26.8248 57.4338C29.3621 57.4338 31.3336 56.6795 32.7394 55.1709C34.1451 53.6622 34.848 51.1936 34.848 47.7649V27.9127H43.0769V48.0734C43.0769 53.3537 41.6368 57.4167 38.7567 60.2625C35.8766 63.1083 31.8822 64.5312 26.7734 64.5312Z" fill="black"/>
<path d="M89.4168 15.9651C91.1919 14.9744 93.2766 16.6346 92.7351 18.6078L88.368 34.5211C87.9318 36.1109 86.0305 36.7361 84.745 35.7124L74.7961 27.7892C73.5106 26.7655 73.6705 24.7536 75.1008 23.9553L89.4168 15.9651Z" fill="black"/>
<path d="M88.0247 21.0229L85.9069 30.5895L79.2134 25.1439L88.0247 21.0229Z" fill="white"/>
<path d="M0.841395 89.459V84.2925H2.77513C3.21305 84.2925 3.58946 84.3639 3.90437 84.5066C4.21928 84.6443 4.46038 84.8461 4.62767 85.1118C4.79989 85.3726 4.886 85.6899 4.886 86.0639C4.886 86.428 4.79989 86.7429 4.62767 87.0086C4.46038 87.2694 4.21928 87.4711 3.90437 87.6138C3.58946 87.7565 3.21305 87.8279 2.77513 87.8279H1.144L1.38756 87.5695V89.459H0.841395ZM1.38756 87.6138L1.144 87.3481H2.76037C3.27701 87.3481 3.66819 87.2374 3.93389 87.016C4.20452 86.7896 4.33983 86.4723 4.33983 86.0639C4.33983 85.6506 4.20452 85.3307 3.93389 85.1044C3.66819 84.8781 3.27701 84.7649 2.76037 84.7649H1.144L1.38756 84.5066V87.6138ZM5.86255 89.459V85.5841H6.36443V86.6396L6.31277 86.4551C6.42102 86.1598 6.60308 85.9359 6.85894 85.7834C7.1148 85.626 7.43217 85.5472 7.81104 85.5472V86.0565C7.79136 86.0565 7.77168 86.0565 7.752 86.0565C7.73232 86.0516 7.71264 86.0491 7.69295 86.0491C7.28456 86.0491 6.96473 86.1746 6.73347 86.4255C6.50221 86.6716 6.38658 87.0234 6.38658 87.481V89.459H5.86255ZM10.3107 89.4959C9.93671 89.4959 9.59966 89.4122 9.29951 89.2449C9.00429 89.0727 8.77057 88.839 8.59835 88.5438C8.42614 88.2436 8.34003 87.9017 8.34003 87.5179C8.34003 87.1292 8.42614 86.7872 8.59835 86.492C8.77057 86.1967 9.00429 85.9655 9.29951 85.7982C9.59474 85.6309 9.93179 85.5472 10.3107 85.5472C10.6945 85.5472 11.034 85.6309 11.3292 85.7982C11.6293 85.9655 11.8631 86.1967 12.0304 86.492C12.2026 86.7872 12.2887 87.1292 12.2887 87.5179C12.2887 87.9017 12.2026 88.2436 12.0304 88.5438C11.8631 88.839 11.6293 89.0727 11.3292 89.2449C11.029 89.4122 10.6895 89.4959 10.3107 89.4959ZM10.3107 89.0309C10.5911 89.0309 10.8396 88.9694 11.0561 88.8464C11.2726 88.7185 11.4424 88.5413 11.5654 88.315C11.6933 88.0837 11.7573 87.818 11.7573 87.5179C11.7573 87.2128 11.6933 86.9471 11.5654 86.7208C11.4424 86.4944 11.2726 86.3197 11.0561 86.1967C10.8396 86.0688 10.5936 86.0048 10.318 86.0048C10.0425 86.0048 9.79648 86.0688 9.57998 86.1967C9.36348 86.3197 9.19127 86.4944 9.06333 86.7208C8.9354 86.9471 8.87144 87.2128 8.87144 87.5179C8.87144 87.818 8.9354 88.0837 9.06333 88.315C9.19127 88.5413 9.36348 88.7185 9.57998 88.8464C9.79648 88.9694 10.04 89.0309 10.3107 89.0309ZM14.9011 89.4959C14.5321 89.4959 14.1999 89.4122 13.9047 89.2449C13.6144 89.0777 13.3856 88.8464 13.2183 88.5512C13.051 88.251 12.9674 87.9066 12.9674 87.5179C12.9674 87.1242 13.051 86.7798 13.2183 86.4846C13.3856 86.1894 13.6144 85.9606 13.9047 85.7982C14.1999 85.6309 14.5321 85.5472 14.9011 85.5472C15.2406 85.5472 15.5432 85.6235 15.8089 85.776C16.0795 85.9286 16.2936 86.1524 16.451 86.4477C16.6134 86.738 16.6946 87.0947 16.6946 87.5179C16.6946 87.9361 16.6159 88.2928 16.4584 88.5881C16.301 88.8833 16.0869 89.1096 15.8163 89.2671C15.5506 89.4196 15.2455 89.4959 14.9011 89.4959ZM14.938 89.0309C15.2135 89.0309 15.4596 88.9694 15.6761 88.8464C15.8975 88.7185 16.0697 88.5413 16.1927 88.315C16.3206 88.0837 16.3846 87.818 16.3846 87.5179C16.3846 87.2128 16.3206 86.9471 16.1927 86.7208C16.0697 86.4944 15.8975 86.3197 15.6761 86.1967C15.4596 86.0688 15.2135 86.0048 14.938 86.0048C14.6674 86.0048 14.4238 86.0688 14.2073 86.1967C13.9908 86.3197 13.8186 86.4944 13.6907 86.7208C13.5627 86.9471 13.4988 87.2128 13.4988 87.5179C13.4988 87.818 13.5627 88.0837 13.6907 88.315C13.8186 88.5413 13.9908 88.7185 14.2073 88.8464C14.4238 88.9694 14.6674 89.0309 14.938 89.0309ZM16.3994 89.459V88.2928L16.451 87.5105L16.3772 86.7281V83.9825H16.9012V89.459H16.3994ZM19.9623 89.4959C19.6326 89.4959 19.3447 89.4344 19.0987 89.3114C18.8527 89.1884 18.6608 89.0038 18.523 88.7578C18.3902 88.5118 18.3238 88.2043 18.3238 87.8352V85.5841H18.8478V87.7762C18.8478 88.1895 18.9487 88.502 19.1504 88.7135C19.357 88.9202 19.6449 89.0235 20.0139 89.0235C20.2845 89.0235 20.5183 88.9694 20.7151 88.8612C20.9168 88.748 21.0694 88.5856 21.1727 88.374C21.2809 88.1624 21.3351 87.909 21.3351 87.6138V85.5841H21.8591V89.459H21.3572V88.3962L21.4384 88.5881C21.3154 88.8735 21.1235 89.0973 20.8627 89.2597C20.6068 89.4172 20.3067 89.4959 19.9623 89.4959ZM24.9285 89.4959C24.5447 89.4959 24.2003 89.4122 23.8952 89.2449C23.5951 89.0727 23.3589 88.839 23.1867 88.5438C23.0145 88.2436 22.9284 87.9017 22.9284 87.5179C22.9284 87.1292 23.0145 86.7872 23.1867 86.492C23.3589 86.1967 23.5951 85.9655 23.8952 85.7982C24.2003 85.6309 24.5447 85.5472 24.9285 85.5472C25.2582 85.5472 25.5559 85.6112 25.8216 85.7391C26.0873 85.8671 26.2964 86.059 26.4489 86.3148L26.0578 86.5805C25.9249 86.3837 25.7601 86.2386 25.5633 86.1451C25.3664 86.0516 25.1524 86.0048 24.9211 86.0048C24.6456 86.0048 24.3971 86.0688 24.1757 86.1967C23.9543 86.3197 23.7796 86.4944 23.6517 86.7208C23.5237 86.9471 23.4598 87.2128 23.4598 87.5179C23.4598 87.8229 23.5237 88.0886 23.6517 88.315C23.7796 88.5413 23.9543 88.7185 24.1757 88.8464C24.3971 88.9694 24.6456 89.0309 24.9211 89.0309C25.1524 89.0309 25.3664 88.9842 25.5633 88.8907C25.7601 88.7972 25.9249 88.6545 26.0578 88.4626L26.4489 88.7283C26.2964 88.9792 26.0873 89.1711 25.8216 89.304C25.5559 89.4319 25.2582 89.4959 24.9285 89.4959ZM28.7468 89.4959C28.3827 89.4959 28.1022 89.3975 27.9054 89.2007C27.7086 89.0038 27.6102 88.7258 27.6102 88.3666V84.728H28.1342V88.3371C28.1342 88.5635 28.1908 88.7381 28.304 88.8612C28.4221 88.9842 28.5893 89.0457 28.8058 89.0457C29.0371 89.0457 29.229 88.9792 29.3815 88.8464L29.5661 89.2228C29.4627 89.3163 29.3373 89.3852 29.1896 89.4295C29.0469 89.4737 28.8993 89.4959 28.7468 89.4959ZM26.9164 86.0196V85.5841H29.3151V86.0196H26.9164ZM31.5607 89.4959C31.2408 89.4959 30.9382 89.4516 30.6529 89.363C30.3675 89.2695 30.1436 89.1539 29.9812 89.0161L30.2174 88.6028C30.3749 88.7209 30.5766 88.8242 30.8226 88.9128C31.0686 88.9965 31.327 89.0383 31.5976 89.0383C31.9666 89.0383 32.2323 88.9817 32.3947 88.8685C32.5571 88.7504 32.6383 88.5954 32.6383 88.4036C32.6383 88.2609 32.5915 88.1501 32.498 88.0714C32.4095 87.9878 32.2914 87.9263 32.1438 87.8869C31.9961 87.8426 31.8313 87.8057 31.6492 87.7762C31.4672 87.7467 31.2851 87.7122 31.1031 87.6729C30.9259 87.6335 30.7636 87.5769 30.616 87.5031C30.4683 87.4244 30.3478 87.3186 30.2543 87.1857C30.1657 87.0529 30.1214 86.8758 30.1214 86.6543C30.1214 86.4428 30.1805 86.2533 30.2986 86.086C30.4167 85.9187 30.5889 85.7883 30.8152 85.6948C31.0465 85.5964 31.327 85.5472 31.6566 85.5472C31.9076 85.5472 32.1585 85.5817 32.4095 85.6506C32.6604 85.7145 32.8671 85.8006 33.0294 85.9089L32.8006 86.3296C32.6284 86.2115 32.4439 86.1278 32.2471 86.0786C32.0503 86.0245 31.8534 85.9975 31.6566 85.9975C31.3073 85.9975 31.049 86.059 30.8817 86.182C30.7193 86.3001 30.6381 86.4526 30.6381 86.6396C30.6381 86.7872 30.6824 86.9028 30.7709 86.9865C30.8644 87.0701 30.985 87.1365 31.1326 87.1857C31.2851 87.23 31.45 87.2669 31.6271 87.2965C31.8092 87.326 31.9888 87.3629 32.1659 87.4072C32.3479 87.4465 32.5128 87.5031 32.6604 87.5769C32.8129 87.6458 32.9335 87.7467 33.022 87.8795C33.1155 88.0075 33.1623 88.1772 33.1623 88.3888C33.1623 88.6151 33.0983 88.8119 32.9704 88.9792C32.8474 89.1416 32.6653 89.2695 32.4242 89.363C32.188 89.4516 31.9002 89.4959 31.5607 89.4959ZM37.2807 89.4959C36.9166 89.4959 36.6361 89.3975 36.4393 89.2007C36.2425 89.0038 36.1441 88.7258 36.1441 88.3666V84.728H36.6681V88.3371C36.6681 88.5635 36.7247 88.7381 36.8378 88.8612C36.9559 88.9842 37.1232 89.0457 37.3397 89.0457C37.571 89.0457 37.7629 88.9792 37.9154 88.8464L38.0999 89.2228C37.9966 89.3163 37.8711 89.3852 37.7235 89.4295C37.5808 89.4737 37.4332 89.4959 37.2807 89.4959ZM35.4503 86.0196V85.5841H37.849V86.0196H35.4503ZM41.0319 85.5472C41.3468 85.5472 41.6224 85.6087 41.8585 85.7318C42.0996 85.8498 42.2866 86.0319 42.4195 86.2779C42.5572 86.5239 42.6261 86.8339 42.6261 87.2079V89.459H42.1021V87.2595C42.1021 86.8512 41.9988 86.5436 41.7921 86.337C41.5904 86.1254 41.305 86.0196 40.936 86.0196C40.6604 86.0196 40.4193 86.0762 40.2127 86.1894C40.0109 86.2976 39.8535 86.4575 39.7403 86.6691C39.632 86.8758 39.5779 87.1267 39.5779 87.4219V89.459H39.0539V83.9825H39.5779V86.647L39.4746 86.4477C39.5976 86.1672 39.7944 85.9483 40.065 85.7908C40.3357 85.6284 40.658 85.5472 41.0319 85.5472ZM46.4698 89.459V88.6028L46.4477 88.4626V87.0307C46.4477 86.7011 46.3542 86.4477 46.1672 86.2705C45.9852 86.0934 45.7121 86.0048 45.348 86.0048C45.097 86.0048 44.8584 86.0467 44.6321 86.1303C44.4057 86.214 44.2138 86.3247 44.0564 86.4624L43.8202 86.0713C44.017 85.904 44.2532 85.776 44.5287 85.6875C44.8043 85.594 45.0946 85.5472 45.3996 85.5472C45.9015 85.5472 46.2878 85.6727 46.5584 85.9236C46.834 86.1697 46.9717 86.5461 46.9717 87.0529V89.459H46.4698ZM45.1339 89.4959C44.8436 89.4959 44.5902 89.4491 44.3737 89.3557C44.1622 89.2572 43.9998 89.1244 43.8866 88.9571C43.7734 88.7849 43.7169 88.5881 43.7169 88.3666C43.7169 88.1649 43.7636 87.9829 43.8571 87.8205C43.9555 87.6532 44.113 87.5203 44.3295 87.4219C44.5509 87.3186 44.8461 87.2669 45.2151 87.2669H46.551V87.6581H45.2299C44.8559 87.6581 44.5952 87.7245 44.4475 87.8574C44.3048 87.9902 44.2335 88.1551 44.2335 88.3519C44.2335 88.5733 44.3196 88.7504 44.4918 88.8833C44.664 89.0161 44.9051 89.0826 45.2151 89.0826C45.5104 89.0826 45.7638 89.0161 45.9753 88.8833C46.1918 88.7455 46.3493 88.5487 46.4477 88.2928L46.5658 88.6545C46.4674 88.9104 46.2952 89.1146 46.0491 89.2671C45.808 89.4196 45.503 89.4959 45.1339 89.4959ZM49.6202 89.4959C49.2561 89.4959 48.9756 89.3975 48.7788 89.2007C48.582 89.0038 48.4836 88.7258 48.4836 88.3666V84.728H49.0076V88.3371C49.0076 88.5635 49.0642 88.7381 49.1774 88.8612C49.2955 88.9842 49.4628 89.0457 49.6793 89.0457C49.9105 89.0457 50.1024 88.9792 50.255 88.8464L50.4395 89.2228C50.3362 89.3163 50.2107 89.3852 50.0631 89.4295C49.9204 89.4737 49.7728 89.4959 49.6202 89.4959ZM47.7898 86.0196V85.5841H50.1885V86.0196H47.7898ZM54.9341 89.4959C54.5503 89.4959 54.2058 89.4122 53.9008 89.2449C53.6006 89.0727 53.3645 88.839 53.1922 88.5438C53.02 88.2436 52.9339 87.9017 52.9339 87.5179C52.9339 87.1292 53.02 86.7872 53.1922 86.492C53.3645 86.1967 53.6006 85.9655 53.9008 85.7982C54.2058 85.6309 54.5503 85.5472 54.9341 85.5472C55.2637 85.5472 55.5614 85.6112 55.8271 85.7391C56.0928 85.8671 56.302 86.059 56.4545 86.3148L56.0633 86.5805C55.9305 86.3837 55.7656 86.2386 55.5688 86.1451C55.372 86.0516 55.158 86.0048 54.9267 86.0048C54.6511 86.0048 54.4027 86.0688 54.1812 86.1967C53.9598 86.3197 53.7851 86.4944 53.6572 86.7208C53.5293 86.9471 53.4653 87.2128 53.4653 87.5179C53.4653 87.8229 53.5293 88.0886 53.6572 88.315C53.7851 88.5413 53.9598 88.7185 54.1812 88.8464C54.4027 88.9694 54.6511 89.0309 54.9267 89.0309C55.158 89.0309 55.372 88.9842 55.5688 88.8907C55.7656 88.7972 55.9305 88.6545 56.0633 88.4626L56.4545 88.7283C56.302 88.9792 56.0928 89.1711 55.8271 89.304C55.5614 89.4319 55.2637 89.4959 54.9341 89.4959ZM59.0855 89.4959C58.7558 89.4959 58.468 89.4344 58.222 89.3114C57.976 89.1884 57.7841 89.0038 57.6463 88.7578C57.5134 88.5118 57.447 88.2043 57.447 87.8352V85.5841H57.971V87.7762C57.971 88.1895 58.0719 88.502 58.2736 88.7135C58.4803 88.9202 58.7682 89.0235 59.1372 89.0235C59.4078 89.0235 59.6415 88.9694 59.8383 88.8612C60.0401 88.748 60.1926 88.5856 60.2959 88.374C60.4042 88.1624 60.4583 87.909 60.4583 87.6138V85.5841H60.9823V89.459H60.4805V88.3962L60.5617 88.5881C60.4386 88.8735 60.2467 89.0973 59.986 89.2597C59.7301 89.4172 59.43 89.4959 59.0855 89.4959ZM63.4835 89.4959C63.1636 89.4959 62.861 89.4516 62.5756 89.363C62.2903 89.2695 62.0664 89.1539 61.904 89.0161L62.1402 88.6028C62.2976 88.7209 62.4994 88.8242 62.7454 88.9128C62.9914 88.9965 63.2497 89.0383 63.5204 89.0383C63.8894 89.0383 64.1551 88.9817 64.3175 88.8685C64.4799 88.7504 64.561 88.5954 64.561 88.4036C64.561 88.2609 64.5143 88.1501 64.4208 88.0714C64.3322 87.9878 64.2142 87.9263 64.0665 87.8869C63.9189 87.8426 63.7541 87.8057 63.572 87.7762C63.39 87.7467 63.2079 87.7122 63.0259 87.6729C62.8487 87.6335 62.6864 87.5769 62.5387 87.5031C62.3911 87.4244 62.2706 87.3186 62.1771 87.1857C62.0885 87.0529 62.0442 86.8758 62.0442 86.6543C62.0442 86.4428 62.1033 86.2533 62.2214 86.086C62.3395 85.9187 62.5117 85.7883 62.738 85.6948C62.9693 85.5964 63.2497 85.5472 63.5794 85.5472C63.8304 85.5472 64.0813 85.5817 64.3322 85.6506C64.5832 85.7145 64.7898 85.8006 64.9522 85.9089L64.7234 86.3296C64.5512 86.2115 64.3667 86.1278 64.1699 86.0786C63.9731 86.0245 63.7762 85.9975 63.5794 85.9975C63.2301 85.9975 62.9717 86.059 62.8044 86.182C62.6421 86.3001 62.5609 86.4526 62.5609 86.6396C62.5609 86.7872 62.6052 86.9028 62.6937 86.9865C62.7872 87.0701 62.9078 87.1365 63.0554 87.1857C63.2079 87.23 63.3728 87.2669 63.5499 87.2965C63.732 87.326 63.9115 87.3629 64.0887 87.4072C64.2707 87.4465 64.4356 87.5031 64.5832 87.5769C64.7357 87.6458 64.8563 87.7467 64.9448 87.8795C65.0383 88.0075 65.0851 88.1772 65.0851 88.3888C65.0851 88.6151 65.0211 88.8119 64.8932 88.9792C64.7702 89.1416 64.5881 89.2695 64.347 89.363C64.1108 89.4516 63.823 89.4959 63.4835 89.4959ZM67.2718 89.4959C66.9077 89.4959 66.6272 89.3975 66.4304 89.2007C66.2336 89.0038 66.1352 88.7258 66.1352 88.3666V84.728H66.6592V88.3371C66.6592 88.5635 66.7158 88.7381 66.829 88.8612C66.9471 88.9842 67.1144 89.0457 67.3309 89.0457C67.5621 89.0457 67.754 88.9792 67.9066 88.8464L68.0911 89.2228C67.9877 89.3163 67.8623 89.3852 67.7147 89.4295C67.572 89.4737 67.4244 89.4959 67.2718 89.4959ZM65.4414 86.0196V85.5841H67.8401V86.0196H65.4414ZM70.4875 89.4959C70.1136 89.4959 69.7765 89.4122 69.4764 89.2449C69.1812 89.0727 68.9474 88.839 68.7752 88.5438C68.603 88.2436 68.5169 87.9017 68.5169 87.5179C68.5169 87.1292 68.603 86.7872 68.7752 86.492C68.9474 86.1967 69.1812 85.9655 69.4764 85.7982C69.7716 85.6309 70.1087 85.5472 70.4875 85.5472C70.8713 85.5472 71.2108 85.6309 71.5061 85.7982C71.8062 85.9655 72.0399 86.1967 72.2072 86.492C72.3795 86.7872 72.4656 87.1292 72.4656 87.5179C72.4656 87.9017 72.3795 88.2436 72.2072 88.5438C72.0399 88.839 71.8062 89.0727 71.5061 89.2449C71.2059 89.4122 70.8664 89.4959 70.4875 89.4959ZM70.4875 89.0309C70.768 89.0309 71.0165 88.9694 71.233 88.8464C71.4495 88.7185 71.6192 88.5413 71.7423 88.315C71.8702 88.0837 71.9342 87.818 71.9342 87.5179C71.9342 87.2128 71.8702 86.9471 71.7423 86.7208C71.6192 86.4944 71.4495 86.3197 71.233 86.1967C71.0165 86.0688 70.7705 86.0048 70.4949 86.0048C70.2194 86.0048 69.9734 86.0688 69.7569 86.1967C69.5404 86.3197 69.3681 86.4944 69.2402 86.7208C69.1123 86.9471 69.0483 87.2128 69.0483 87.5179C69.0483 87.818 69.1123 88.0837 69.2402 88.315C69.3681 88.5413 69.5404 88.7185 69.7569 88.8464C69.9734 88.9694 70.2169 89.0309 70.4875 89.0309ZM78.3771 85.5472C78.692 85.5472 78.9651 85.6087 79.1964 85.7318C79.4326 85.8498 79.6146 86.0319 79.7425 86.2779C79.8754 86.5239 79.9418 86.8339 79.9418 87.2079V89.459H79.4178V87.2595C79.4178 86.8512 79.3194 86.5436 79.1226 86.337C78.9307 86.1254 78.6576 86.0196 78.3033 86.0196C78.0376 86.0196 77.8064 86.0762 77.6095 86.1894C77.4176 86.2976 77.2676 86.4575 77.1593 86.6691C77.056 86.8758 77.0043 87.1267 77.0043 87.4219V89.459H76.4803V87.2595C76.4803 86.8512 76.3819 86.5436 76.1851 86.337C75.9883 86.1254 75.7127 86.0196 75.3584 86.0196C75.0977 86.0196 74.8689 86.0762 74.672 86.1894C74.4752 86.2976 74.3227 86.4575 74.2144 86.6691C74.1111 86.8758 74.0594 87.1267 74.0594 87.4219V89.459H73.5354V85.5841H74.0373V86.6322L73.9561 86.4477C74.0742 86.1672 74.2636 85.9483 74.5244 85.7908C74.7901 85.6284 75.1026 85.5472 75.4618 85.5472C75.8406 85.5472 76.1629 85.6432 76.4286 85.8351C76.6943 86.0221 76.8665 86.305 76.9453 86.6839L76.7386 86.6027C76.8518 86.2878 77.0511 86.0344 77.3365 85.8425C77.6268 85.6456 77.9736 85.5472 78.3771 85.5472ZM83.0088 89.4959C82.6054 89.4959 82.2511 89.4122 81.946 89.2449C81.641 89.0727 81.4023 88.839 81.2301 88.5438C81.0579 88.2436 80.9718 87.9017 80.9718 87.5179C80.9718 87.1341 81.053 86.7946 81.2153 86.4993C81.3826 86.2041 81.609 85.9729 81.8944 85.8056C82.1847 85.6333 82.5094 85.5472 82.8686 85.5472C83.2327 85.5472 83.555 85.6309 83.8355 85.7982C84.1209 85.9606 84.3447 86.1918 84.5071 86.492C84.6695 86.7872 84.7507 87.1292 84.7507 87.5179C84.7507 87.5425 84.7482 87.5695 84.7433 87.5991C84.7433 87.6237 84.7433 87.6507 84.7433 87.6802H81.3703V87.2891H84.4628L84.2562 87.4441C84.2562 87.1636 84.1947 86.9151 84.0717 86.6986C83.9536 86.4772 83.7912 86.305 83.5845 86.182C83.3779 86.059 83.1392 85.9975 82.8686 85.9975C82.6029 85.9975 82.3643 86.059 82.1527 86.182C81.9411 86.305 81.7763 86.4772 81.6582 86.6986C81.5401 86.92 81.481 87.1734 81.481 87.4588V87.54C81.481 87.8352 81.545 88.096 81.6729 88.3224C81.8058 88.5438 81.9878 88.7185 82.2191 88.8464C82.4553 88.9694 82.7234 89.0309 83.0236 89.0309C83.2598 89.0309 83.4787 88.9891 83.6805 88.9054C83.8871 88.8218 84.0643 88.6939 84.2119 88.5216L84.5071 88.8612C84.3349 89.0678 84.1184 89.2253 83.8576 89.3335C83.6017 89.4418 83.3188 89.4959 83.0088 89.4959ZM85.8173 89.459V85.5841H86.3192V86.6396L86.2675 86.4551C86.3758 86.1598 86.5578 85.9359 86.8137 85.7834C87.0695 85.626 87.3869 85.5472 87.7658 85.5472V86.0565C87.7461 86.0565 87.7264 86.0565 87.7067 86.0565C87.6871 86.0516 87.6674 86.0491 87.6477 86.0491C87.2393 86.0491 86.9195 86.1746 86.6882 86.4255C86.4569 86.6716 86.3413 87.0234 86.3413 87.481V89.459H85.8173ZM89.8059 89.4959C89.4861 89.4959 89.1835 89.4516 88.8981 89.363C88.6127 89.2695 88.3888 89.1539 88.2264 89.0161L88.4626 88.6028C88.6201 88.7209 88.8218 88.8242 89.0678 88.9128C89.3139 88.9965 89.5722 89.0383 89.8428 89.0383C90.2118 89.0383 90.4775 88.9817 90.6399 88.8685C90.8023 88.7504 90.8835 88.5954 90.8835 88.4036C90.8835 88.2609 90.8367 88.1501 90.7432 88.0714C90.6547 87.9878 90.5366 87.9263 90.389 87.8869C90.2414 87.8426 90.0765 87.8057 89.8945 87.7762C89.7124 87.7467 89.5304 87.7122 89.3483 87.6729C89.1712 87.6335 89.0088 87.5769 88.8612 87.5031C88.7136 87.4244 88.593 87.3186 88.4995 87.1857C88.411 87.0529 88.3667 86.8758 88.3667 86.6543C88.3667 86.4428 88.4257 86.2533 88.5438 86.086C88.6619 85.9187 88.8341 85.7883 89.0604 85.6948C89.2917 85.5964 89.5722 85.5472 89.9018 85.5472C90.1528 85.5472 90.4037 85.5817 90.6547 85.6506C90.9056 85.7145 91.1123 85.8006 91.2746 85.9089L91.0458 86.3296C90.8736 86.2115 90.6891 86.1278 90.4923 86.0786C90.2955 86.0245 90.0987 85.9975 89.9018 85.9975C89.5525 85.9975 89.2942 86.059 89.1269 86.182C88.9645 86.3001 88.8833 86.4526 88.8833 86.6396C88.8833 86.7872 88.9276 86.9028 89.0162 86.9865C89.1097 87.0701 89.2302 87.1365 89.3778 87.1857C89.5304 87.23 89.6952 87.2669 89.8723 87.2965C90.0544 87.326 90.234 87.3629 90.4111 87.4072C90.5932 87.4465 90.758 87.5031 90.9056 87.5769C91.0581 87.6458 91.1787 87.7467 91.2673 87.8795C91.3608 88.0075 91.4075 88.1772 91.4075 88.3888C91.4075 88.6151 91.3435 88.8119 91.2156 88.9792C91.0926 89.1416 90.9105 89.2695 90.6694 89.363C90.4333 89.4516 90.1454 89.4959 89.8059 89.4959ZM94.3007 89.459V83.9825H94.8247V89.459H94.3007ZM97.8623 89.4959C97.4883 89.4959 97.1513 89.4122 96.8511 89.2449C96.5559 89.0727 96.3222 88.839 96.15 88.5438C95.9778 88.2436 95.8917 87.9017 95.8917 87.5179C95.8917 87.1292 95.9778 86.7872 96.15 86.492C96.3222 86.1967 96.5559 85.9655 96.8511 85.7982C97.1464 85.6309 97.4834 85.5472 97.8623 85.5472C98.2461 85.5472 98.5856 85.6309 98.8808 85.7982C99.181 85.9655 99.4147 86.1967 99.582 86.492C99.7542 86.7872 99.8403 87.1292 99.8403 87.5179C99.8403 87.9017 99.7542 88.2436 99.582 88.5438C99.4147 88.839 99.181 89.0727 98.8808 89.2449C98.5807 89.4122 98.2412 89.4959 97.8623 89.4959ZM97.8623 89.0309C98.1428 89.0309 98.3912 88.9694 98.6077 88.8464C98.8242 88.7185 98.994 88.5413 99.117 88.315C99.2449 88.0837 99.3089 87.818 99.3089 87.5179C99.3089 87.2128 99.2449 86.9471 99.117 86.7208C98.994 86.4944 98.8242 86.3197 98.6077 86.1967C98.3912 86.0688 98.1452 86.0048 97.8697 86.0048C97.5941 86.0048 97.3481 86.0688 97.1316 86.1967C96.9151 86.3197 96.7429 86.4944 96.615 86.7208C96.487 86.9471 96.4231 87.2128 96.4231 87.5179C96.4231 87.818 96.487 88.0837 96.615 88.315C96.7429 88.5413 96.9151 88.7185 97.1316 88.8464C97.3481 88.9694 97.5917 89.0309 97.8623 89.0309ZM101.798 89.459L100.079 85.5841H100.625L102.204 89.1785H101.946L103.548 85.5841H104.064L102.337 89.459H101.798ZM106.34 89.4959C105.937 89.4959 105.582 89.4122 105.277 89.2449C104.972 89.0727 104.734 88.839 104.561 88.5438C104.389 88.2436 104.303 87.9017 104.303 87.5179C104.303 87.1341 104.384 86.7946 104.547 86.4993C104.714 86.2041 104.94 85.9729 105.226 85.8056C105.516 85.6333 105.841 85.5472 106.2 85.5472C106.564 85.5472 106.886 85.6309 107.167 85.7982C107.452 85.9606 107.676 86.1918 107.838 86.492C108.001 86.7872 108.082 87.1292 108.082 87.5179C108.082 87.5425 108.079 87.5695 108.075 87.5991C108.075 87.6237 108.075 87.6507 108.075 87.6802H104.702V87.2891H107.794L107.587 87.4441C107.587 87.1636 107.526 86.9151 107.403 86.6986C107.285 86.4772 107.122 86.305 106.916 86.182C106.709 86.059 106.47 85.9975 106.2 85.9975C105.934 85.9975 105.695 86.059 105.484 86.182C105.272 86.305 105.108 86.4772 104.989 86.6986C104.871 86.92 104.812 87.1734 104.812 87.4588V87.54C104.812 87.8352 104.876 88.096 105.004 88.3224C105.137 88.5438 105.319 88.7185 105.55 88.8464C105.787 88.9694 106.055 89.0309 106.355 89.0309C106.591 89.0309 106.81 88.9891 107.012 88.9054C107.218 88.8218 107.396 88.6939 107.543 88.5216L107.838 88.8612C107.666 89.0678 107.45 89.2253 107.189 89.3335C106.933 89.4418 106.65 89.4959 106.34 89.4959Z" fill="black"/>
</svg>
