<svg width="63" height="61" viewBox="0 0 63 61" fill="none" xmlns="http://www.w3.org/2000/svg">
<ellipse cx="31.5" cy="30.0349" rx="31.5" ry="30.0349" fill="white"/>
<path d="M30.5 34.4593C29.98 34.4016 29.4685 34.2833 28.976 34.1068C28.991 33.7528 29 33.3838 29 32.9998V32.4943C29.465 32.7163 29.9705 32.8708 30.5 32.9473V29.2498C30.5 28.653 30.7371 28.0808 31.159 27.6588C31.581 27.2368 32.1533 26.9998 32.75 26.9998H36.4475C36.3279 26.1686 36.0106 25.3783 35.5224 24.6951C35.0341 24.0119 34.3891 23.4558 33.6414 23.0734C32.8938 22.6911 32.0654 22.4937 31.2256 22.4977C30.3859 22.5018 29.5594 22.7072 28.8155 23.0968C28.6968 22.6062 28.5014 22.1374 28.2365 21.7078C29.2089 21.2224 30.2841 20.979 31.3708 20.9983C32.4574 21.0176 33.5233 21.299 34.4779 21.8185C35.4325 22.3381 36.2475 23.0804 36.8536 23.9825C37.4598 24.8846 37.8392 25.9197 37.9595 26.9998H40.25C40.8467 26.9998 41.419 27.2368 41.841 27.6588C42.2629 28.0808 42.5 28.653 42.5 29.2498V36.7498C42.5 37.3465 42.2629 37.9188 41.841 38.3408C41.419 38.7627 40.8467 38.9998 40.25 38.9998H32.75C32.1533 38.9998 31.581 38.7627 31.159 38.3408C30.7371 37.9188 30.5 37.3465 30.5 36.7498V34.4593ZM37.9595 28.4998C37.7891 30.0217 37.1064 31.4405 36.0235 32.5233C34.9407 33.6062 33.5219 34.2889 32 34.4593V36.7498C32 36.9487 32.079 37.1395 32.2197 37.2801C32.3603 37.4208 32.5511 37.4998 32.75 37.4998H40.25C40.4489 37.4998 40.6397 37.4208 40.7803 37.2801C40.921 37.1395 41 36.9487 41 36.7498V29.2498C41 29.0509 40.921 28.8601 40.7803 28.7195C40.6397 28.5788 40.4489 28.4998 40.25 28.4998H37.9595ZM36.4475 28.4998H32.75C32.5511 28.4998 32.3603 28.5788 32.2197 28.7195C32.079 28.8601 32 29.0509 32 29.2498V32.9473C33.122 32.7851 34.1614 32.2643 34.963 31.4627C35.7646 30.6612 36.2853 29.6217 36.4475 28.4998ZM27.1925 29.3413C27.035 28.7623 26.78 28.1818 26.342 27.7363C27.05 27.0658 27.5 25.9978 27.5 24.7498C27.5 23.7043 27.2885 22.9858 26.906 22.4113C26.7363 22.1642 26.5401 21.9363 26.321 21.7318C26.237 21.6507 26.152 21.5707 26.066 21.4918C25.9745 21.4063 25.8905 21.3283 25.781 21.2188C25.556 20.9938 25.5305 20.8138 25.5305 20.7193C25.5307 20.6668 25.5394 20.6146 25.556 20.5648C25.6246 20.4165 25.6428 20.2498 25.608 20.0902C25.5732 19.9305 25.4872 19.7866 25.3631 19.6803C25.239 19.5741 25.0836 19.5112 24.9205 19.5014C24.7574 19.4915 24.5955 19.5352 24.4595 19.6258L24.4565 19.6273L24.452 19.6303L24.4385 19.6393L24.3935 19.6693C24.1685 19.8298 23.9517 20.0015 23.744 20.1838C23.369 20.5153 22.88 21.0058 22.5335 21.5908C22.231 22.0758 21.9883 22.5955 21.8105 23.1388C21.6305 23.6773 21.5 24.2608 21.5 24.7498C21.5 25.9978 21.95 27.0643 22.658 27.7378C22.22 28.1818 21.965 28.7623 21.8075 29.3428C21.5 30.4708 21.5 31.8658 21.5 32.9443V32.9998C21.5 36.0868 22.0775 37.9198 22.7315 39.0103C23.06 39.5563 23.402 39.9088 23.6885 40.1308C23.8412 40.2499 24.0073 40.3505 24.1835 40.4308C24.2854 40.468 24.3919 40.4912 24.5 40.4998C24.626 40.4998 24.8165 40.4308 24.8165 40.4308C24.9927 40.3505 25.1588 40.2499 25.3115 40.1308C25.5965 39.9088 25.9415 39.5563 26.2685 39.0103C26.9225 37.9213 27.5 36.0868 27.5 32.9998V32.9458C27.5 31.8658 27.5 30.4723 27.1925 29.3413ZM23.7305 28.7863C23.9 28.6153 24.1265 28.4998 24.5 28.4998C24.875 28.4998 25.1 28.6168 25.2695 28.7848C25.4585 28.9753 25.622 29.2843 25.745 29.7358C25.994 30.6523 26 31.8553 26 32.9998C26 35.9128 25.4525 37.4548 24.9815 38.2393C24.8015 38.5393 24.632 38.7328 24.5 38.8543C24.3114 38.6729 24.1493 38.4659 24.0185 38.2393C23.5475 37.4533 23 35.9128 23 32.9998C23 31.8553 23.006 30.6523 23.255 29.7358C23.378 29.2858 23.5415 28.9753 23.7305 28.7848V28.7863ZM24.5 26.9998C23.9225 26.9998 23 26.3578 23 24.7498C23 24.4903 23.078 24.0793 23.234 23.6143C23.3762 23.1753 23.5722 22.7556 23.8175 22.3648C23.948 22.1443 24.1175 21.9298 24.3005 21.7333C24.404 21.9163 24.5405 22.1008 24.7205 22.2808C24.83 22.3903 24.9725 22.5223 25.094 22.6363L25.28 22.8103C25.4375 22.9633 25.559 23.0968 25.6565 23.2453C25.8365 23.5138 26 23.9203 26 24.7498C26 26.3578 25.0775 26.9998 24.5 26.9998Z" fill="black"/>
</svg>
