<svg width="11" height="10" viewBox="0 0 11 10" fill="none" xmlns="http://www.w3.org/2000/svg">
<path d="M3.84674 2.95597L5.13728 0.399108C5.16207 0.347671 5.2008 0.304228 5.24906 0.273723C5.29733 0.243218 5.35319 0.226878 5.41028 0.226562C5.51842 0.226562 5.62656 0.283881 5.68506 0.399108L6.9756 2.95597L9.86987 3.36724C9.94202 3.37859 10.008 3.41446 10.0568 3.46883C10.1056 3.52319 10.1341 3.59271 10.1376 3.66565C10.1417 3.71422 10.1348 3.76309 10.1174 3.80862C10.1 3.85415 10.0726 3.89516 10.0371 3.92861L7.95533 5.9117L8.44578 8.7067C8.49187 8.96847 8.23306 9.17352 8.00496 9.05652L5.41028 7.72343L2.81678 9.05652C2.78965 9.0706 2.76058 9.08056 2.73051 9.08606C2.52842 9.12152 2.33578 8.93597 2.37596 8.7067L2.86642 5.9117L0.785237 3.92861C0.752882 3.898 0.727164 3.86106 0.70968 3.8201C0.692196 3.77913 0.683319 3.73501 0.6836 3.69047C0.683631 3.6275 0.701009 3.56576 0.733827 3.51202C0.757109 3.47306 0.78884 3.43982 0.826682 3.41477C0.864523 3.38971 0.907508 3.37347 0.952464 3.36724L3.84674 2.95597ZM5.41028 7.03797C5.45798 7.03777 5.50502 7.04913 5.54737 7.07106L7.72546 8.19024L7.31537 5.85202C7.30569 5.79824 7.30936 5.74291 7.32605 5.69088C7.34274 5.63885 7.37194 5.59172 7.4111 5.55361L9.12887 3.91679L6.73451 3.57643C6.68493 3.56894 6.6379 3.54955 6.59746 3.51991C6.55701 3.49027 6.52436 3.45127 6.50228 3.40624L5.41087 1.2447L5.41028 1.24647V7.03797Z" fill="white"/>
</svg>
