<svg width="56" height="64" viewBox="0 0 56 64" fill="none" xmlns="http://www.w3.org/2000/svg">
<path d="M48.5402 13.0135C48.5211 12.8791 48.4557 12.7556 48.3553 12.6644C48.2549 12.5731 48.1257 12.5197 47.9902 12.5135C47.7402 12.5135 43.3364 12.4135 43.3364 12.4135C43.3364 12.4135 40.6352 9.81098 39.6339 8.80973V62.901L55.3452 59.001C55.3452 59.001 48.5902 13.3135 48.5402 13.0135V13.0135ZM36.0814 8.80973C35.8414 8.05266 35.54 7.31647 35.1802 6.60848C33.8752 4.10723 31.9277 2.75098 29.6252 2.75098C29.457 2.74514 29.2888 2.76195 29.1252 2.80098C29.0752 2.70098 28.9752 2.65098 28.9252 2.55098C27.9252 1.45473 26.6252 0.95473 25.0727 1.00098C22.0727 1.10098 19.0727 3.25098 16.6664 7.10473C14.9652 9.80723 13.6664 13.2097 13.3139 15.8622C9.86141 16.9122 7.46016 17.6635 7.41016 17.7135C5.66016 18.2635 5.60891 18.3135 5.41016 19.9635C5.26016 21.2135 0.660156 56.441 0.660156 56.441L38.4827 63.001V8.20973C38.2986 8.21666 38.115 8.23335 37.9327 8.25973C37.9327 8.25973 37.2327 8.45973 36.0814 8.80973V8.80973ZM29.1764 10.9622C27.1764 11.5622 24.9727 12.2622 22.8214 12.9135C23.4214 10.561 24.6227 8.20973 26.0239 6.66348C26.5739 6.11348 27.3252 5.46223 28.1752 5.06223C29.0264 6.85848 29.2264 9.31098 29.1764 10.9622ZM25.0727 3.05598C25.7029 3.03611 26.3265 3.19007 26.8752 3.50098C26.0752 3.90098 25.2739 4.55223 24.5239 5.30223C22.6227 7.35473 21.1714 10.5522 20.5714 13.6085C18.7689 14.1597 16.9677 14.7097 15.3214 15.2097C16.4164 10.411 20.4689 3.15598 25.0727 3.05598ZM19.2689 30.5772C19.4689 33.7785 27.9252 34.4797 28.4252 42.0347C28.7752 47.9897 25.2727 52.0422 20.2189 52.3435C14.1152 52.7435 10.7627 49.141 10.7627 49.141L12.0627 43.641C12.0627 43.641 15.4152 46.1935 18.1177 45.9935C19.8677 45.8935 20.5202 44.4422 20.4689 43.441C20.2189 39.2385 13.3139 39.4885 12.8639 32.5835C12.4639 26.7785 16.2664 20.9247 24.6727 20.3735C27.9227 20.1735 29.5764 20.9747 29.5764 20.9747L27.6752 28.1747C27.6752 28.1747 25.5239 27.1747 22.9714 27.3747C19.2689 27.626 19.2189 29.976 19.2689 30.5772V30.5772ZM31.1777 10.361C31.1777 8.86098 30.9777 6.70848 30.2764 4.90723C32.5789 5.35723 33.6789 7.90723 34.1802 9.46098C33.2793 9.71098 32.2785 10.011 31.1777 10.361V10.361Z" fill="white"/>
</svg>
