<svg width="85" height="85" viewBox="0 0 85 85" fill="none" xmlns="http://www.w3.org/2000/svg">
<circle cx="42.5" cy="42.5" r="42.5" fill="white"/>
<path d="M40.0001 53.9999C40.0001 54.7956 40.3161 55.5586 40.8787 56.1212C41.4413 56.6838 42.2044 56.9999 43.0001 56.9999C43.7957 56.9999 44.5588 56.6838 45.1214 56.1212C45.684 55.5586 46.0001 54.7956 46.0001 53.9999C46.0001 53.2043 45.684 52.4412 45.1214 51.8786C44.5588 51.316 43.7957 50.9999 43.0001 50.9999C42.2044 50.9999 41.4413 51.316 40.8787 51.8786C40.3161 52.4412 40.0001 53.2043 40.0001 53.9999ZM44.5001 46.9999C44.7751 46.9999 45.0001 46.7749 45.0001 46.4999V29.4999C45.0001 29.2249 44.7751 28.9999 44.5001 28.9999H41.5001C41.2251 28.9999 41.0001 29.2249 41.0001 29.4999V46.4999C41.0001 46.7749 41.2251 46.9999 41.5001 46.9999H44.5001ZM69.5001 35.2499H65.7938C65.6313 35.2499 65.4813 35.3249 65.3876 35.4562L58.7313 44.6312L55.6126 40.3312C55.5663 40.2668 55.5053 40.2144 55.4346 40.1785C55.3639 40.1426 55.2856 40.1242 55.2063 40.1249H51.5001C51.0938 40.1249 50.8563 40.5874 51.0938 40.9187L57.9188 50.3374C58.0122 50.4653 58.1345 50.5693 58.2757 50.641C58.4169 50.7127 58.573 50.75 58.7313 50.75C58.8897 50.75 59.0458 50.7127 59.1869 50.641C59.3281 50.5693 59.4504 50.4653 59.5438 50.3374L69.9063 36.0437C70.1438 35.7124 69.9063 35.2499 69.5001 35.2499ZM66.7501 54.3749H62.7376C62.3938 54.3749 62.0751 54.5562 61.8876 54.8437C61.0005 56.2531 59.9563 57.5572 58.7751 58.7312C56.7447 60.763 54.34 62.3824 51.6938 63.4999C48.9505 64.6569 46.0024 65.2499 43.0251 65.2437C40.0188 65.2437 37.1001 64.6562 34.3563 63.4999C31.7101 62.3824 29.3054 60.763 27.2751 58.7312C25.2381 56.7061 23.6161 54.3028 22.5001 51.6562C21.3376 48.9187 20.7501 45.9999 20.7501 42.9999C20.7501 39.9999 21.3376 37.0812 22.5001 34.3437C23.6188 31.6937 25.2251 29.3124 27.2751 27.2687C29.3251 25.2249 31.7063 23.6187 34.3563 22.4999C37.0996 21.3429 40.0478 20.7499 43.0251 20.7562C46.0313 20.7562 48.9501 21.3437 51.6938 22.4999C54.3438 23.6187 56.7251 25.2249 58.7751 27.2687C59.9626 28.4562 61.0001 29.7562 61.8876 31.1562C62.0688 31.4499 62.3938 31.6249 62.7376 31.6249H66.7501C67.1251 31.6249 67.3626 31.2312 67.2001 30.8999C62.8001 22.1562 53.7938 16.1249 43.3563 15.9999C28.4313 15.8249 16.0313 28.0312 16.0001 42.9499C15.9688 57.8812 28.0813 69.9999 43.0251 69.9999C53.6001 69.9999 62.7501 63.9374 67.1938 55.0999C67.2321 55.0239 67.2504 54.9393 67.2469 54.8543C67.2434 54.7692 67.2182 54.6865 67.1738 54.6139C67.1293 54.5413 67.0671 54.4812 66.9929 54.4394C66.9188 54.3976 66.8352 54.3754 66.7501 54.3749Z" fill="black"/>
</svg>
