<svg width="85" height="85" viewBox="0 0 85 85" fill="none" xmlns="http://www.w3.org/2000/svg">
<circle cx="42.5" cy="42.5" r="42.5" fill="white"/>
<path d="M31 71H27V65H19V71H15V65C15.0011 63.9395 15.4228 62.9227 16.1727 62.1727C16.9227 61.4228 17.9395 61.0011 19 61H27C28.0605 61.0011 29.0773 61.4228 29.8273 62.1727C30.5772 62.9227 30.9989 63.9395 31 65V71ZM71 71H67V65H59V71H55V65C55.0011 63.9395 55.4228 62.9227 56.1727 62.1727C56.9227 61.4228 57.9395 61.0011 59 61H67C68.0605 61.0011 69.0773 61.4228 69.8273 62.1727C70.5772 62.9227 70.9989 63.9395 71 65V71ZM51 71H47V65H39V71H35V65C35.0011 63.9395 35.4228 62.9227 36.1727 62.1727C36.9227 61.4228 37.9395 61.0011 39 61H47C48.0605 61.0011 49.0773 61.4228 49.8273 62.1727C50.5772 62.9227 50.9989 63.9395 51 65V71Z" fill="black"/>
<path d="M43 59C45.2091 59 47 57.2091 47 55C47 52.7909 45.2091 51 43 51C40.7909 51 39 52.7909 39 55C39 57.2091 40.7909 59 43 59Z" fill="black"/>
<path d="M23 59C25.2091 59 27 57.2091 27 55C27 52.7909 25.2091 51 23 51C20.7909 51 19 52.7909 19 55C19 57.2091 20.7909 59 23 59Z" fill="black"/>
<path d="M63 59C65.2091 59 67 57.2091 67 55C67 52.7909 65.2091 51 63 51C60.7909 51 59 52.7909 59 55C59 57.2091 60.7909 59 63 59Z" fill="black"/>
<path d="M53 51C55.2091 51 57 49.2091 57 47C57 44.7909 55.2091 43 53 43C50.7909 43 49 44.7909 49 47C49 49.2091 50.7909 51 53 51Z" fill="black"/>
<path d="M33 51C35.2091 51 37 49.2091 37 47C37 44.7909 35.2091 43 33 43C30.7909 43 29 44.7909 29 47C29 49.2091 30.7909 51 33 51Z" fill="black"/>
<path d="M63 39H23C21.9395 38.9989 20.9227 38.5772 20.1727 37.8273C19.4228 37.0773 19.0011 36.0605 19 35V19C19.0011 17.9395 19.4228 16.9227 20.1727 16.1727C20.9227 15.4228 21.9395 15.0011 23 15H63C64.0605 15.0011 65.0773 15.4228 65.8273 16.1727C66.5772 16.9227 66.9989 17.9395 67 19V35C66.9989 36.0605 66.5772 37.0773 65.8273 37.8273C65.0773 38.5772 64.0605 38.9989 63 39ZM23 19V35H63V19H23Z" fill="black"/>
</svg>
